<svg width="1787" height="934" viewBox="0 0 1787 934" fill="none" xmlns="http://www.w3.org/2000/svg">
<path fill-rule="evenodd" clip-rule="evenodd" d="M1285.33 514.458C1286.62 513.422 1288.51 513.632 1289.54 514.926C1290.58 516.219 1290.37 518.107 1289.07 519.142L1288.72 519.436L1288.49 519.634C1288.05 520.013 1287.54 520.461 1286.98 520.98L1286.69 521.245C1284.73 523.068 1282.53 525.279 1280.15 527.882C1273.34 535.354 1266.51 544.455 1260.13 555.225C1247.68 576.256 1238.5 600.976 1233.98 629.523C1228.38 664.833 1230.23 704.238 1240.91 747.887C1241.31 749.496 1240.32 751.12 1238.71 751.514C1237.1 751.908 1235.48 750.923 1235.09 749.314C1224.21 704.901 1222.33 664.692 1228.05 628.584C1232.69 599.269 1242.14 573.834 1254.97 552.168C1261.56 541.033 1268.63 531.605 1275.72 523.839C1278.03 521.305 1280.19 519.115 1282.16 517.266L1282.61 516.845C1283.88 515.667 1284.81 514.873 1285.33 514.458Z" fill="#2E186A"/>
<path fill-rule="evenodd" clip-rule="evenodd" d="M1254.5 708.5C1252.2 706.5 1251.1 703.6 1251.4 700.6C1257.7 642.6 1283.9 582.9 1324.7 561C1366.6 538.5 1395.2 601 1337.1 659C1293.4 702.7 1270 709.8 1261.1 710.7C1258.7 710.9 1256.3 710.1 1254.5 708.5Z" fill="#FEBA91"/>
<path fill-rule="evenodd" clip-rule="evenodd" d="M1162.56 695.111C1179.76 696.593 1193.34 706.022 1203.65 720.68C1207.55 726.229 1210.71 732.158 1213.19 738.086C1213.97 739.932 1214.63 741.664 1215.18 743.248L1215.38 743.835C1215.74 744.894 1215.97 745.665 1216.09 746.099C1216.53 747.696 1215.6 749.349 1214 749.791C1212.46 750.218 1210.87 749.363 1210.36 747.869L1210.17 747.226L1210 746.687C1209.91 746.401 1209.81 746.09 1209.69 745.755C1209.15 744.146 1208.47 742.347 1207.66 740.405C1205.33 734.852 1202.38 729.298 1198.74 724.131C1189.37 710.804 1177.26 702.401 1162.04 701.089C1160.39 700.947 1159.17 699.493 1159.31 697.842C1159.45 696.251 1160.8 695.057 1162.38 695.101L1162.56 695.111Z" fill="#2E186A"/>
<path fill-rule="evenodd" clip-rule="evenodd" d="M1360.82 563.977C1361.95 565.101 1361.99 566.897 1360.96 568.076L1360.73 568.309L1359.56 569.504L1358.46 570.63C1357.95 571.157 1357.41 571.721 1356.83 572.32L1355.95 573.244C1352.05 577.324 1347.7 581.994 1343.03 587.178C1329.65 601.989 1316.28 617.937 1303.81 634.406C1288.95 654.013 1276.39 673.04 1266.85 690.974C1263.82 696.665 1261.11 702.213 1258.75 707.605C1258.08 709.122 1256.31 709.813 1254.79 709.147C1253.28 708.482 1252.59 706.712 1253.25 705.195C1255.68 699.659 1258.45 693.976 1261.55 688.155C1271.26 669.91 1283.99 650.625 1299.02 630.783C1311.61 614.166 1325.09 598.088 1338.57 583.157L1340.22 581.334C1344.04 577.131 1347.63 573.283 1350.91 569.833L1352.93 567.716C1353.64 566.98 1354.3 566.299 1354.91 565.676L1356.58 563.98C1357.75 562.808 1359.65 562.806 1360.82 563.977Z" fill="#2E186A"/>
<path fill-rule="evenodd" clip-rule="evenodd" d="M1338.31 643.062L1339.34 643.011C1341.34 642.917 1343.05 642.881 1344.44 642.884L1345.8 642.902C1347.46 642.956 1348.75 644.343 1348.7 645.999C1348.65 647.596 1347.35 648.86 1345.78 648.899L1345.31 648.892C1343.72 648.865 1341.47 648.902 1338.64 649.054C1334.38 649.282 1329.74 649.729 1324.79 650.447C1311.19 652.418 1297.46 656.083 1284.3 661.848C1282.79 662.513 1281.02 661.822 1280.35 660.304C1279.69 658.787 1280.38 657.017 1281.9 656.352C1295.58 650.356 1309.83 646.553 1323.93 644.509C1329.06 643.765 1333.89 643.3 1338.31 643.062Z" fill="#2E186A"/>
<path fill-rule="evenodd" clip-rule="evenodd" d="M1311.96 570.78C1313.41 571.587 1313.93 573.414 1313.12 574.861L1312.42 576.133C1312.19 576.551 1311.94 577.011 1311.67 577.512L1310.7 579.336C1309.8 581.014 1308.84 582.843 1307.83 584.805C1303.85 592.514 1299.88 600.685 1296.17 608.952C1293.23 615.492 1290.59 621.827 1288.3 627.858L1287.73 629.393C1281.68 645.659 1278.68 658.727 1279.49 667.215C1279.64 668.864 1278.43 670.329 1276.78 670.486C1275.14 670.644 1273.67 669.434 1273.51 667.785C1272.57 657.856 1275.95 643.52 1282.69 625.733C1285.02 619.582 1287.71 613.139 1290.69 606.496C1294.45 598.12 1298.47 589.853 1302.5 582.054L1303.63 579.877C1304.49 578.229 1305.31 576.688 1306.07 575.267L1307.15 573.259L1307.88 571.939C1308.69 570.492 1310.51 569.973 1311.96 570.78Z" fill="#2E186A"/>
<path fill-rule="evenodd" clip-rule="evenodd" d="M1297.4 679.204C1301.6 678.85 1305.25 678.744 1308.06 678.782L1309.01 678.802C1310.66 678.862 1311.96 680.253 1311.9 681.909C1311.84 683.506 1310.54 684.765 1308.97 684.799L1308.38 684.788C1305.71 684.737 1302.1 684.829 1297.9 685.183C1291.56 685.717 1285.31 686.744 1279.49 688.375C1274.01 689.912 1269.15 691.925 1265.08 694.45C1263.67 695.323 1261.82 694.889 1260.95 693.481C1260.08 692.073 1260.51 690.224 1261.92 689.35C1266.51 686.502 1271.88 684.277 1277.87 682.598C1284.09 680.855 1290.71 679.768 1297.4 679.204Z" fill="#2E186A"/>
<path fill-rule="evenodd" clip-rule="evenodd" d="M1202.7 655.5C1199.6 657.7 1196 658 1193.2 656.5C1138.5 626.4 1092.3 570.2 1091.6 509.6C1090.8 447.3 1168.2 434.2 1196.1 530.8C1217.1 603.5 1212.1 636.2 1208.3 647.9C1207.2 650.9 1205.2 653.7 1202.7 655.5Z" fill="#FEBA91"/>
<path fill-rule="evenodd" clip-rule="evenodd" d="M1110.26 469.373C1111.05 467.916 1112.87 467.373 1114.33 468.161C1139.99 482.036 1160.71 514.352 1177.23 559.541C1185.02 580.84 1191.36 603.636 1196.37 626.429L1196.94 629.066C1198.26 635.169 1199.39 640.915 1200.36 646.217L1200.77 648.461C1201.18 650.792 1201.53 652.863 1201.82 654.649L1202.17 656.864C1202.41 658.504 1201.28 660.028 1199.64 660.268C1198 660.509 1196.47 659.375 1196.23 657.736L1195.96 655.963L1195.72 654.518C1195.51 653.211 1195.26 651.767 1194.98 650.195L1194.86 649.513C1193.69 642.939 1192.24 635.61 1190.51 627.716C1185.55 605.168 1179.28 582.622 1171.6 561.602C1155.53 517.676 1135.51 486.432 1111.47 473.439C1110.02 472.651 1109.47 470.831 1110.26 469.373Z" fill="#2E186A"/>
<path fill-rule="evenodd" clip-rule="evenodd" d="M1091.96 517.669C1092.64 516.158 1094.42 515.484 1095.93 516.164C1108.18 521.677 1122.18 528.535 1135.78 536.103L1137.54 537.084C1156.68 547.855 1171.42 558.128 1179.92 567.482C1181.03 568.708 1180.94 570.605 1179.72 571.72C1178.49 572.834 1176.59 572.744 1175.48 571.518C1167.27 562.491 1152.34 552.179 1132.87 541.347C1119.43 533.872 1105.58 527.085 1093.47 521.636C1091.96 520.956 1091.28 519.18 1091.96 517.669Z" fill="#2E186A"/>
<path fill-rule="evenodd" clip-rule="evenodd" d="M1192.52 527.013C1194.17 526.859 1195.63 528.071 1195.79 529.721C1197.09 543.662 1197.75 557.131 1197.44 568.918L1197.39 570.372C1196.87 585.5 1194.72 596.393 1190.29 602.216C1189.28 603.535 1187.4 603.791 1186.08 602.788C1184.77 601.785 1184.51 599.902 1185.51 598.584C1192.17 589.833 1192.89 563.166 1189.81 530.279C1189.66 528.629 1190.87 527.167 1192.52 527.013Z" fill="#2E186A"/>
<path fill-rule="evenodd" clip-rule="evenodd" d="M1117.17 586.912C1118.21 585.624 1120.1 585.426 1121.39 586.469C1128.33 592.09 1138.58 598.044 1151.24 604.092C1160.13 608.336 1169.66 612.375 1179.19 616.071L1180.84 616.707C1183.01 617.539 1185.06 618.31 1186.99 619.014L1189.59 619.957L1191.87 620.762C1193.44 621.299 1194.28 623.006 1193.74 624.573C1193.22 626.084 1191.61 626.915 1190.1 626.49L1189.56 626.312L1188.31 625.869C1187.95 625.744 1187.58 625.61 1187.18 625.467L1184.92 624.648C1182.49 623.755 1179.84 622.758 1177.02 621.665C1167.36 617.918 1157.69 613.822 1148.66 609.506L1146.93 608.676C1134.67 602.725 1124.66 596.842 1117.61 591.131C1116.32 590.088 1116.13 588.199 1117.17 586.912Z" fill="#2E186A"/>
<path fill-rule="evenodd" clip-rule="evenodd" d="M1168.4 682.516C1169.55 674.088 1168.25 666.955 1165.52 666.584C1162.78 666.213 1159.64 672.744 1158.49 681.172C1157.35 689.6 1158.64 696.733 1161.38 697.104C1164.11 697.475 1167.26 690.944 1168.4 682.516Z" fill="#FE7624"/>
<path fill-rule="evenodd" clip-rule="evenodd" d="M1161.44 697.075C1163.05 695.115 1159.53 689.538 1153.57 684.617C1147.6 679.696 1141.45 677.296 1139.84 679.256C1138.22 681.216 1141.75 686.793 1147.71 691.714C1153.67 696.634 1159.82 699.035 1161.44 697.075Z" fill="#FE7624"/>
<path fill-rule="evenodd" clip-rule="evenodd" d="M1177.32 694.145C1184.76 690.248 1189.73 685.067 1188.42 682.572C1187.11 680.078 1180.02 681.214 1172.59 685.111C1165.15 689.008 1160.19 694.189 1161.49 696.684C1162.8 699.179 1169.89 698.042 1177.32 694.145Z" fill="#FE7624"/>
<path fill-rule="evenodd" clip-rule="evenodd" d="M1151.39 707.77C1158.17 704.052 1162.67 699.233 1161.45 697.005C1160.23 694.778 1153.75 695.986 1146.97 699.703C1140.19 703.421 1135.68 708.24 1136.9 710.468C1138.12 712.695 1144.61 711.487 1151.39 707.77Z" fill="#FE7624"/>
<path fill-rule="evenodd" clip-rule="evenodd" d="M1173.21 722.685C1175.52 721.63 1174.77 715.032 1171.54 707.947C1168.31 700.862 1163.81 695.974 1161.5 697.029C1159.19 698.083 1159.94 704.681 1163.17 711.766C1166.4 718.851 1170.89 723.739 1173.21 722.685Z" fill="#FE7624"/>
<path fill-rule="evenodd" clip-rule="evenodd" d="M1299.03 508.983C1304.63 499.206 1305.33 489.077 1300.58 486.36C1295.84 483.642 1287.45 489.365 1281.85 499.142C1276.25 508.92 1275.56 519.048 1280.3 521.766C1285.05 524.483 1293.44 518.76 1299.03 508.983Z" fill="#FE7624"/>
<path fill-rule="evenodd" clip-rule="evenodd" d="M1299.41 531.201C1310.56 530.974 1319.52 526.314 1319.4 520.792C1319.29 515.271 1310.16 510.978 1299 511.205C1287.85 511.431 1278.9 516.091 1279.01 521.613C1279.12 527.134 1288.26 531.427 1299.41 531.201Z" fill="#FE7624"/>
<path fill-rule="evenodd" clip-rule="evenodd" d="M1278.91 521.996C1282.85 519.064 1281.19 510.147 1275.2 502.08C1269.2 494.012 1261.14 489.849 1257.2 492.781C1253.25 495.713 1254.91 504.63 1260.91 512.698C1266.91 520.765 1274.96 524.928 1278.91 521.996Z" fill="#FE7624"/>
<path fill-rule="evenodd" clip-rule="evenodd" d="M1286.18 537.887C1290.28 528.707 1290 519.66 1285.56 517.68C1281.12 515.7 1274.2 521.537 1270.11 530.717C1266.01 539.897 1266.29 548.944 1270.73 550.924C1275.17 552.904 1282.09 547.067 1286.18 537.887Z" fill="#FE7624"/>
<path fill-rule="evenodd" clip-rule="evenodd" d="M1272.02 529.618C1280.97 528.653 1287.84 524.265 1287.36 519.818C1286.88 515.37 1279.23 512.547 1270.28 513.512C1261.33 514.477 1254.47 518.865 1254.95 523.312C1255.43 527.76 1263.07 530.583 1272.02 529.618Z" fill="#FE7624"/>
<path fill-rule="evenodd" clip-rule="evenodd" d="M1319.9 756.8L1282.9 924.4H1165.4L1128.4 756.8C1126.3 747.2 1132.3 737.8 1140.5 737.8H1307.9C1316.1 737.9 1322.1 747.3 1319.9 756.8Z" fill="white"/>
<path fill-rule="evenodd" clip-rule="evenodd" d="M1307.94 734.8L1140.5 734.8C1130.2 734.8 1122.99 746.115 1125.47 757.441L1162.47 925.047C1162.77 926.421 1163.99 927.4 1165.4 927.4H1282.9C1284.31 927.4 1285.53 926.421 1285.83 925.047L1322.83 757.447C1325.42 746.264 1318.23 734.926 1307.94 734.8ZM1307.9 740.8L1308.1 740.806C1314.05 741.064 1318.62 748.29 1317.04 755.822L1280.49 921.4H1167.81L1131.33 756.153C1129.61 748.296 1134.39 740.8 1140.5 740.8H1307.9Z" fill="#2E186A"/>
<path fill-rule="evenodd" clip-rule="evenodd" d="M1109.2 447.2C1105.7 424 1088.1 405.1 1064.7 400.2C1045.4 396.2 1025.8 392.1 1020.4 390.7L1019.7 393.7L896.6 384.2L895.3 366.8L843.4 367.3C784.8 372.7 741 466.3 719.3 523.2L707.3 554.8L798.7 520.1C798.4 537.2 800 554.4 804.3 570.5C826.4 653.1 782.8 678.1 782.8 678.1L759 786.4L730 784.4V929.3L1039.2 928.7L1034.4 678.9L1109.2 447.2ZM1034.4 586.3V585.1L1034.5 586.3H1034.4Z" fill="#FE7624"/>
<path fill-rule="evenodd" clip-rule="evenodd" d="M1037.8 805.8L732.9 808.7L730.1 929.3H1039.2L1037.8 805.8Z" fill="#2E186A"/>
<path fill-rule="evenodd" clip-rule="evenodd" d="M829.208 449.676C829.939 448.189 831.738 447.577 833.224 448.308C834.656 449.012 835.277 450.706 834.668 452.158L834.592 452.324L816.292 489.524C815.561 491.011 813.762 491.623 812.276 490.892C810.844 490.188 810.223 488.494 810.832 487.042L810.908 486.876L829.208 449.676Z" fill="#2E186A"/>
<path fill-rule="evenodd" clip-rule="evenodd" d="M1039.76 312.45C1041.34 311.933 1043.03 312.789 1043.55 314.364C1046.12 322.19 1046.07 332.044 1043.28 341.729C1037.9 360.478 1023.88 373.302 1011.05 370.006C1009.45 369.593 1008.48 367.958 1008.89 366.354C1009.31 364.749 1010.94 363.782 1012.55 364.194C1021.54 366.503 1032.91 356.09 1037.52 340.072C1039.98 331.499 1040.03 322.867 1037.85 316.236C1037.33 314.662 1038.19 312.967 1039.76 312.45Z" fill="#FE7624"/>
<path fill-rule="evenodd" clip-rule="evenodd" d="M887.764 287.35C889.338 286.833 891.033 287.69 891.55 289.264C894.122 297.09 894.065 306.944 891.283 316.629C885.895 335.378 871.885 348.202 859.054 344.906C857.449 344.493 856.482 342.858 856.894 341.254C857.307 339.649 858.942 338.682 860.546 339.094C869.536 341.404 880.914 330.99 885.517 314.972C887.979 306.399 888.029 297.767 885.85 291.136C885.333 289.562 886.189 287.867 887.764 287.35Z" fill="#FE7624"/>
<path fill-rule="evenodd" clip-rule="evenodd" d="M1047.6 186.2C1026.3 165.8 1022.5 72.8 1094.1 20C1166.6 -33.4 1212.2 36.6 1222 54.8C1231.8 73 1234.9 119.8 1173.5 155.8C1112.1 191.8 1071.9 209.4 1047.6 186.2Z" fill="#2E186A"/>
<path fill-rule="evenodd" clip-rule="evenodd" d="M1008.3 222L1009.6 223.1C1017.6 229.9 1030 229 1037.2 221.2L1057.5 199.4C1064.8 191.6 1064.2 179.8 1056.2 173L1054.9 171.9C1046.9 165.1 1034.5 166 1027.3 173.8L1007 195.6C999.7 203.5 1000.3 215.3 1008.3 222Z" fill="#FE7624"/>
<path fill-rule="evenodd" clip-rule="evenodd" d="M968.563 250.859C995.097 225.309 1004.03 191.535 988.516 175.424C973.002 159.312 938.916 166.964 912.382 192.515C885.848 218.065 876.914 251.839 892.428 267.95C907.943 284.061 942.029 276.409 968.563 250.859Z" fill="#2E186A"/>
<path fill-rule="evenodd" clip-rule="evenodd" d="M955.9 250C977.1 279.6 1005.6 293.8 1029.7 293.2C1055.3 292.6 1073.9 237.2 1052.7 207.6C1031.5 178 973.7 158.6 953.7 172C933.7 185.5 934.7 220.4 955.9 250Z" fill="#2E186A"/>
<path fill-rule="evenodd" clip-rule="evenodd" d="M1037.36 312.521C1048.86 308.755 1055.28 296.853 1051.7 285.937C1048.12 275.02 1035.91 269.223 1024.41 272.988C1012.92 276.753 1006.5 288.655 1010.08 299.572C1013.65 310.488 1025.87 316.286 1037.36 312.521Z" fill="white"/>
<path fill-rule="evenodd" clip-rule="evenodd" d="M1023.48 270.137C1010.44 274.408 1003.12 287.981 1007.23 300.506C1011.33 313.03 1025.26 319.642 1038.3 315.371C1051.33 311.101 1058.65 297.528 1054.55 285.003C1050.45 272.478 1036.52 265.867 1023.48 270.137ZM1025.35 275.839C1035.3 272.579 1045.8 277.562 1048.85 286.871C1051.9 296.179 1046.38 306.41 1036.43 309.67C1026.48 312.929 1015.98 307.946 1012.93 298.638C1009.88 289.329 1015.4 279.099 1025.35 275.839Z" fill="#2E186A"/>
<path fill-rule="evenodd" clip-rule="evenodd" d="M889.047 286.218C900.541 282.453 906.959 270.551 903.383 259.634C899.807 248.718 887.591 242.92 876.097 246.685C864.603 250.451 858.184 262.353 861.76 273.269C865.336 284.186 877.553 289.983 889.047 286.218Z" fill="white"/>
<path fill-rule="evenodd" clip-rule="evenodd" d="M875.163 243.835C862.126 248.105 854.806 261.678 858.909 274.203C863.012 286.728 876.944 293.339 889.981 289.069C903.017 284.798 910.337 271.225 906.234 258.7C902.131 246.175 888.199 239.564 875.163 243.835ZM877.031 249.536C886.982 246.277 897.483 251.26 900.532 260.568C903.582 269.876 898.064 280.107 888.113 283.367C878.161 286.627 867.66 281.644 864.611 272.335C861.562 263.027 867.079 252.796 877.031 249.536Z" fill="#2E186A"/>
<path fill-rule="evenodd" clip-rule="evenodd" d="M928.8 341.6L919 371.2L892.4 369.5C889.8 373.2 867.9 443.3 934.9 453.1C978.9 459.6 1009.6 427.4 1030.9 396.1L994.3 388.2L1018.5 304L928.8 341.6Z" fill="white"/>
<path fill-rule="evenodd" clip-rule="evenodd" d="M927.64 338.833L927.459 338.916C926.748 339.272 926.204 339.897 925.952 340.657L916.88 368.058L892.591 366.506C891.549 366.439 890.546 366.92 889.945 367.775C888.734 369.499 886.817 375.624 885.574 382.187C883.873 391.173 883.385 400.524 884.577 409.411C887.925 434.391 903.635 451.559 934.466 456.068C955.764 459.215 975.216 453.846 993.139 441.228C1007.65 431.012 1020.6 416.561 1033.38 397.788L1033.48 397.635C1034.52 395.892 1033.55 393.604 1031.53 393.168L998.069 385.944L1021.38 304.829C1022.08 302.408 1019.66 300.26 1017.34 301.233L927.64 338.833ZM1013.89 309.185L991.417 387.371L991.372 387.544C991.009 389.157 992.028 390.779 993.667 391.132L1025.88 398.084L1025.81 398.187C1014.25 414.577 1002.54 427.271 989.685 436.322C972.964 448.094 955.036 453.042 935.338 450.132C907.252 446.024 893.527 431.027 890.523 408.614C889.425 400.421 889.88 391.7 891.469 383.303L891.538 382.944C892.292 379.062 893.317 375.34 894.064 373.142L894.245 372.623L918.809 374.194L918.994 374.2C920.282 374.203 921.439 373.379 921.848 372.143L931.218 343.838L1013.89 309.185Z" fill="#2E186A"/>
<path fill-rule="evenodd" clip-rule="evenodd" d="M1022.32 296.277C1037.31 249.468 1019.96 202.07 983.57 190.409C947.175 178.749 905.513 207.242 890.517 254.051C875.52 300.86 892.867 348.258 929.262 359.919C965.657 371.579 1007.32 343.086 1022.32 296.277Z" fill="white"/>
<path fill-rule="evenodd" clip-rule="evenodd" d="M887.66 253.136C872.201 301.388 890.194 350.552 928.347 362.776C966.499 374.999 1009.71 345.444 1025.17 297.192C1040.63 248.941 1022.64 199.776 984.485 187.553C946.333 175.329 903.119 204.884 887.66 253.136ZM893.374 254.967C907.908 209.601 948.017 182.169 982.655 193.266C1017.29 204.364 1033.99 249.996 1019.46 295.362C1004.92 340.728 964.815 368.159 930.177 357.062C895.54 345.965 878.839 300.332 893.374 254.967Z" fill="#2E186A"/>
<path fill-rule="evenodd" clip-rule="evenodd" d="M944.121 254.769C944.746 253.234 946.496 252.497 948.031 253.121C949.511 253.724 950.249 255.373 949.74 256.866L949.679 257.031L936.09 290.418L947.978 292.338C949.556 292.593 950.646 294.034 950.485 295.604L950.462 295.778C950.207 297.356 948.766 298.446 947.196 298.285L947.022 298.262L934.044 296.165C930.886 295.679 929.006 292.421 930.049 289.368L930.121 289.169L944.121 254.769Z" fill="#2E186A"/>
<path fill-rule="evenodd" clip-rule="evenodd" d="M968.304 236.925C975.171 232.221 982.351 233.394 988.819 237.993C990.013 238.841 991.087 239.747 992.033 240.655C992.613 241.213 993.032 241.661 993.278 241.948C994.356 243.206 994.21 245.1 992.952 246.178C991.743 247.215 989.945 247.12 988.85 245.993L988.543 245.654C988.388 245.488 988.164 245.258 987.875 244.981C987.132 244.267 986.28 243.549 985.343 242.883C980.711 239.59 976.125 238.84 971.696 241.875C970.329 242.811 968.462 242.463 967.525 241.096C966.589 239.729 966.938 237.862 968.304 236.925Z" fill="#2E186A"/>
<path fill-rule="evenodd" clip-rule="evenodd" d="M925.147 228.476C928.866 227.855 932.716 228.403 936.456 229.672C938.046 230.211 939.27 230.758 940.009 231.151C941.472 231.929 942.027 233.746 941.249 235.209C940.499 236.617 938.787 237.184 937.355 236.53L937 236.353C936.913 236.311 936.803 236.259 936.671 236.199L936.533 236.136C935.94 235.871 935.266 235.604 934.529 235.353C931.645 234.375 928.731 233.961 926.135 234.394C923.465 234.84 921.276 236.159 919.56 238.617C918.611 239.976 916.741 240.308 915.383 239.36C914.024 238.411 913.692 236.541 914.64 235.183C917.307 231.362 920.928 229.18 925.147 228.476Z" fill="#2E186A"/>
<path fill-rule="evenodd" clip-rule="evenodd" d="M976.34 271.444C976.758 267.101 974.734 263.354 971.82 263.074C968.907 262.794 966.206 266.087 965.789 270.43C965.372 274.773 967.395 278.521 970.309 278.801C973.223 279.081 975.923 275.787 976.34 271.444Z" fill="#2E186A"/>
<path fill-rule="evenodd" clip-rule="evenodd" d="M927.265 267.535C928.135 263.259 926.514 259.321 923.646 258.737C920.778 258.154 917.748 261.147 916.878 265.422C916.009 269.698 917.629 273.636 920.497 274.22C923.365 274.803 926.396 271.81 927.265 267.535Z" fill="#2E186A"/>
<path fill-rule="evenodd" clip-rule="evenodd" d="M1010.2 196.4C1010.2 196.4 982.6 207.8 984.3 225.3L866.6 217.6C866.6 217.6 854.4 128.3 995.1 171L1010.2 196.4Z" fill="#2E186A"/>
<path fill-rule="evenodd" clip-rule="evenodd" d="M1002 200.3C1002 200.3 992.7 258.8 1030.5 274.8L1031.2 223L1002 200.3Z" fill="#2E186A"/>
<path fill-rule="evenodd" clip-rule="evenodd" d="M845.919 303.565C851.422 284.573 865.785 271.646 878.645 275.422C880.235 275.888 881.145 277.555 880.679 279.145C880.212 280.735 878.545 281.645 876.955 281.179C868.015 278.554 856.378 289.027 851.681 305.235C847.041 321.249 851.18 336.166 859.953 338.934L860.086 338.974L860.33 339.035L860.451 339.071L860.488 339.079C861.758 339.377 862.717 340.482 862.795 341.824L862.8 342C862.8 343.657 861.457 345 859.8 345C859.454 345 859.193 344.953 858.92 344.879L858.733 344.823L858.579 344.786C845.826 341.158 840.53 322.898 845.757 304.134L845.919 303.565Z" fill="#FE7624"/>
<path fill-rule="evenodd" clip-rule="evenodd" d="M997.919 328.665C1003.42 309.673 1017.79 296.746 1030.65 300.522C1032.23 300.988 1033.15 302.655 1032.68 304.245C1032.21 305.835 1030.54 306.745 1028.95 306.279C1020.01 303.654 1008.38 314.127 1003.68 330.335C999.041 346.349 1003.18 361.266 1011.95 364.034L1012.09 364.074L1012.33 364.135L1012.45 364.171L1012.49 364.179C1013.76 364.477 1014.72 365.582 1014.79 366.924L1014.8 367.1C1014.8 368.757 1013.46 370.1 1011.8 370.1C1011.45 370.1 1011.19 370.053 1010.92 369.979L1010.73 369.923L1010.58 369.886C997.826 366.258 992.53 347.998 997.757 329.234L997.919 328.665Z" fill="#FE7624"/>
<path fill-rule="evenodd" clip-rule="evenodd" d="M972.933 302.218C973.42 300.634 975.099 299.745 976.682 300.233C978.266 300.72 979.155 302.399 978.667 303.982C975.753 313.455 969.226 319.343 960.369 322.172C954.503 324.046 948.386 324.392 942.895 323.875L942.146 323.798C941.696 323.747 941.349 323.699 941.114 323.66C939.479 323.392 938.371 321.849 938.64 320.214C938.899 318.637 940.343 317.551 941.911 317.716L942.525 317.801C942.766 317.831 943.079 317.866 943.456 317.902C948.212 318.349 953.567 318.046 958.544 316.456C965.635 314.191 970.637 309.679 972.933 302.218Z" fill="#2E186A"/>
<path fill-rule="evenodd" clip-rule="evenodd" d="M630.5 810.6L598.7 927.2H789.8L758.8 809.6L630.5 810.6Z" fill="#5D21D1"/>
<path fill-rule="evenodd" clip-rule="evenodd" d="M944 814.9H461.4C456.1 814.9 451.8 810.6 451.8 805.3L454.5 494C454.5 488.7 456.1 478.9 461.3 478.9H944C949.3 478.9 953.6 483.2 953.6 488.5V805.3C953.5 810.6 949.2 814.9 944 814.9Z" fill="#5D21D1"/>
<path fill-rule="evenodd" clip-rule="evenodd" d="M866.6 767.1H518C511.9 767.1 507 762.2 507 756.1V521.3C507 515.2 511.9 510.3 518 510.3H866.6C872.7 510.3 877.6 515.2 877.6 521.3V756.2C877.6 762.2 872.6 767.1 866.6 767.1Z" fill="white"/>
<path fill-rule="evenodd" clip-rule="evenodd" d="M803.7 753.7H579.3C574.2 753.7 570.1 749.6 570.1 744.5V596.8C570.1 591.7 574.2 587.6 579.3 587.6H803.8C808.9 587.6 813 591.7 813 596.8V744.4C813 749.5 808.8 753.7 803.7 753.7Z" fill="#2E186A"/>
<path fill-rule="evenodd" clip-rule="evenodd" d="M691.6 840.2C677.185 840.2 665.5 851.885 665.5 866.3C665.5 880.715 677.185 892.4 691.6 892.4C706.015 892.4 717.7 880.715 717.7 866.3C717.7 851.885 706.015 840.2 691.6 840.2ZM691.6 846.2C702.701 846.2 711.7 855.199 711.7 866.3C711.7 877.401 702.701 886.4 691.6 886.4C680.499 886.4 671.5 877.401 671.5 866.3C671.5 855.199 680.499 846.2 691.6 846.2Z" fill="white"/>
<path fill-rule="evenodd" clip-rule="evenodd" d="M742.015 812.379C743.57 812.014 745.127 812.932 745.576 814.444L745.621 814.615L771.121 923.315C771.499 924.928 770.498 926.542 768.885 926.921C767.33 927.286 765.773 926.368 765.325 924.856L765.279 924.685L739.779 815.985C739.401 814.372 740.402 812.758 742.015 812.379Z" fill="white"/>
<path fill-rule="evenodd" clip-rule="evenodd" d="M895.4 497H489.2C481.443 497 475.2 503.243 475.2 511V775.4C475.2 783.157 481.443 789.4 489.2 789.4H895.4C903.157 789.4 909.4 783.157 909.4 775.4V511C909.4 503.243 903.157 497 895.4 497ZM489.2 503H895.4C899.843 503 903.4 506.557 903.4 511V775.4C903.4 779.843 899.843 783.4 895.4 783.4H489.2C484.757 783.4 481.2 779.843 481.2 775.4V511C481.2 506.557 484.757 503 489.2 503Z" fill="white"/>
<path fill-rule="evenodd" clip-rule="evenodd" d="M930.5 478.6C932.098 478.6 933.404 479.849 933.495 481.424L933.5 481.6V811.9C933.5 813.557 932.157 814.9 930.5 814.9C928.902 814.9 927.596 813.651 927.505 812.076L927.5 811.9V481.6C927.5 479.943 928.843 478.6 930.5 478.6Z" fill="white"/>
<path fill-rule="evenodd" clip-rule="evenodd" d="M839.6 520.7H426.2L481.4 501.4C484.8 500.2 488.4 499.6 492 499.6H898.3L839.6 520.7Z" fill="#FE7624"/>
<path fill-rule="evenodd" clip-rule="evenodd" d="M898.3 496.6H492C488.037 496.6 484.101 497.265 480.402 498.571L425.21 517.868C422.021 518.983 422.822 523.7 426.2 523.7H839.6C839.946 523.7 840.289 523.64 840.615 523.523L899.315 502.423C902.48 501.285 901.663 496.6 898.3 496.6ZM881.083 502.6L839.075 517.7H443.867L482.39 504.232C485.453 503.151 488.713 502.6 492 502.6H881.083Z" fill="#2E186A"/>
<path fill-rule="evenodd" clip-rule="evenodd" d="M468.4 520.6H426.2C426.2 520.6 426.1 550.2 426.1 550.6C426.1 561.6 435.6 570.5 447.3 570.5C459 570.5 468.5 561.6 468.5 550.6C468.5 549.8 468.4 520.6 468.4 520.6Z" fill="#FE7624"/>
<path fill-rule="evenodd" clip-rule="evenodd" d="M468.4 517.6H426.2C424.606 517.6 423.302 518.843 423.206 520.414L423.1 550.6C423.1 563.295 433.978 573.5 447.3 573.5C460.489 573.5 471.282 563.498 471.497 550.98L471.4 520.59C471.394 518.937 470.053 517.6 468.4 517.6ZM429.189 523.6H465.41L465.5 550.6C465.5 559.893 457.391 567.5 447.3 567.5C437.209 567.5 429.1 559.893 429.1 550.6L429.189 523.6Z" fill="#2E186A"/>
<path fill-rule="evenodd" clip-rule="evenodd" d="M509.6 520.6H467.4C467.4 520.6 467.3 550.2 467.3 550.6C467.3 561.6 476.8 570.5 488.5 570.5C500.2 570.5 509.7 561.6 509.7 550.6C509.8 549.8 509.6 520.6 509.6 520.6Z" fill="white"/>
<path fill-rule="evenodd" clip-rule="evenodd" d="M509.6 517.6H467.4C465.806 517.6 464.502 518.843 464.406 520.414L464.3 550.6C464.3 563.295 475.178 573.5 488.5 573.5L488.899 573.497C501.776 573.3 512.273 563.569 512.685 551.351L512.718 549.566C512.74 547.465 512.726 543.012 512.689 535.593L512.6 520.579C512.589 518.931 511.249 517.6 509.6 517.6ZM470.389 523.6H506.619L506.721 543.539C506.733 547.49 506.733 550.148 506.723 550.228C506.708 550.351 506.7 550.476 506.7 550.6C506.7 559.893 498.591 567.5 488.5 567.5C478.409 567.5 470.3 559.893 470.3 550.6L470.389 523.6Z" fill="#2E186A"/>
<path fill-rule="evenodd" clip-rule="evenodd" d="M550.9 520.6H508.7C508.7 520.6 508.6 550.2 508.6 550.6C508.6 561.6 518.1 570.5 529.8 570.5C541.5 570.5 551 561.6 551 550.6C551 549.8 550.9 520.6 550.9 520.6Z" fill="#FE7624"/>
<path fill-rule="evenodd" clip-rule="evenodd" d="M550.9 517.6H508.7C507.106 517.6 505.802 518.843 505.706 520.414L505.6 550.6C505.6 563.295 516.478 573.5 529.8 573.5C542.989 573.5 553.782 563.498 553.997 550.98L553.9 520.59C553.894 518.937 552.553 517.6 550.9 517.6ZM511.689 523.6H547.91L548 550.6C548 559.893 539.891 567.5 529.8 567.5C519.709 567.5 511.6 559.893 511.6 550.6L511.689 523.6Z" fill="#2E186A"/>
<path fill-rule="evenodd" clip-rule="evenodd" d="M592.1 520.6H549.9C549.9 520.6 549.8 550.2 549.8 550.6C549.8 561.6 559.3 570.5 571 570.5C582.7 570.5 592.2 561.6 592.2 550.6C592.2 549.8 592.1 520.6 592.1 520.6Z" fill="white"/>
<path fill-rule="evenodd" clip-rule="evenodd" d="M592.1 517.6H549.9C548.306 517.6 547.002 518.843 546.906 520.414L546.8 550.6C546.8 563.295 557.678 573.5 571 573.5C584.189 573.5 594.982 563.498 595.197 550.98L595.1 520.59C595.094 518.937 593.753 517.6 592.1 517.6ZM552.889 523.6H589.11L589.2 550.6C589.2 559.893 581.091 567.5 571 567.5C560.909 567.5 552.8 559.893 552.8 550.6L552.889 523.6Z" fill="#2E186A"/>
<path fill-rule="evenodd" clip-rule="evenodd" d="M633.3 520.6H591.1C591.1 520.6 591 550.2 591 550.6C591 561.6 600.5 570.5 612.2 570.5C623.9 570.5 633.4 561.6 633.4 550.6C633.5 549.8 633.3 520.6 633.3 520.6Z" fill="#FE7624"/>
<path fill-rule="evenodd" clip-rule="evenodd" d="M633.3 517.6H591.1C589.506 517.6 588.202 518.843 588.106 520.414L588 550.6C588 563.295 598.878 573.5 612.2 573.5L612.599 573.497C625.476 573.3 635.973 563.569 636.385 551.351L636.418 549.566C636.44 547.465 636.426 543.012 636.389 535.593L636.3 520.579C636.289 518.931 634.949 517.6 633.3 517.6ZM594.089 523.6H630.319L630.421 543.539C630.433 547.49 630.433 550.148 630.423 550.228C630.408 550.351 630.4 550.476 630.4 550.6C630.4 559.893 622.291 567.5 612.2 567.5C602.109 567.5 594 559.893 594 550.6L594.089 523.6Z" fill="#2E186A"/>
<path fill-rule="evenodd" clip-rule="evenodd" d="M674.6 520.6H632.4C632.4 520.6 632.3 550.2 632.3 550.6C632.3 561.6 641.8 570.5 653.5 570.5C665.2 570.5 674.7 561.6 674.7 550.6C674.7 549.8 674.6 520.6 674.6 520.6Z" fill="white"/>
<path fill-rule="evenodd" clip-rule="evenodd" d="M674.6 517.6H632.4C630.806 517.6 629.502 518.843 629.406 520.414L629.3 550.6C629.3 563.295 640.178 573.5 653.5 573.5C666.689 573.5 677.482 563.498 677.697 550.98L677.6 520.59C677.594 518.937 676.253 517.6 674.6 517.6ZM635.389 523.6H671.61L671.7 550.6C671.7 559.893 663.591 567.5 653.5 567.5C643.409 567.5 635.3 559.893 635.3 550.6L635.389 523.6Z" fill="#2E186A"/>
<path fill-rule="evenodd" clip-rule="evenodd" d="M715.8 520.6H673.6C673.6 520.6 673.5 550.2 673.5 550.6C673.5 561.6 683 570.5 694.7 570.5C706.4 570.5 715.9 561.6 715.9 550.6C715.9 549.8 715.8 520.6 715.8 520.6Z" fill="#FE7624"/>
<path fill-rule="evenodd" clip-rule="evenodd" d="M715.8 517.6H673.6C672.006 517.6 670.702 518.843 670.606 520.414L670.5 550.6C670.5 563.295 681.378 573.5 694.7 573.5C707.889 573.5 718.682 563.498 718.897 550.98L718.8 520.59C718.794 518.937 717.453 517.6 715.8 517.6ZM676.589 523.6H712.81L712.9 550.6C712.9 559.893 704.791 567.5 694.7 567.5C684.609 567.5 676.5 559.893 676.5 550.6L676.589 523.6Z" fill="#2E186A"/>
<path fill-rule="evenodd" clip-rule="evenodd" d="M757 520.6H714.8C714.8 520.6 714.7 550.2 714.7 550.6C714.7 561.6 724.2 570.5 735.9 570.5C747.6 570.5 757.1 561.6 757.1 550.6C757.2 549.8 757 520.6 757 520.6Z" fill="white"/>
<path fill-rule="evenodd" clip-rule="evenodd" d="M757 517.6H714.8C713.147 517.6 711.806 518.937 711.8 520.59L711.7 550.6C711.7 563.295 722.578 573.5 735.9 573.5L736.299 573.497C749.176 573.3 759.673 563.569 760.085 551.351L760.118 549.566C760.14 547.465 760.126 543.012 760.089 535.593L760 520.579C759.989 518.931 758.649 517.6 757 517.6ZM717.789 523.6H754.019L754.121 543.539C754.133 547.49 754.133 550.148 754.123 550.228C754.108 550.351 754.1 550.476 754.1 550.6C754.1 559.893 745.991 567.5 735.9 567.5C725.924 567.5 717.885 560.065 717.703 550.916L717.789 523.6Z" fill="#2E186A"/>
<path fill-rule="evenodd" clip-rule="evenodd" d="M798.3 520.6H756.1C756.1 520.6 756 550.2 756 550.6C756 561.6 765.5 570.5 777.2 570.5C788.9 570.5 798.4 561.6 798.4 550.6C798.4 549.8 798.3 520.6 798.3 520.6Z" fill="#FE7624"/>
<path fill-rule="evenodd" clip-rule="evenodd" d="M798.3 517.6H756.1C754.506 517.6 753.202 518.843 753.106 520.414L753 550.6C753 563.295 763.878 573.5 777.2 573.5C790.389 573.5 801.182 563.498 801.397 550.98L801.3 520.59C801.294 518.937 799.953 517.6 798.3 517.6ZM759.089 523.6H795.31L795.4 550.6C795.4 559.893 787.291 567.5 777.2 567.5C767.109 567.5 759 559.893 759 550.6L759.089 523.6Z" fill="#2E186A"/>
<path fill-rule="evenodd" clip-rule="evenodd" d="M839.5 520.6H797.3C797.3 520.6 797.2 550.2 797.2 550.6C797.2 561.6 806.7 570.5 818.4 570.5C830.1 570.5 839.6 561.6 839.6 550.6C839.6 549.8 839.5 520.6 839.5 520.6Z" fill="white"/>
<path fill-rule="evenodd" clip-rule="evenodd" d="M839.5 517.6H797.3C795.647 517.6 794.306 518.937 794.3 520.59L794.2 550.6C794.2 563.295 805.078 573.5 818.4 573.5C831.589 573.5 842.382 563.498 842.597 550.98L842.5 520.59C842.494 518.937 841.153 517.6 839.5 517.6ZM800.289 523.6H836.51L836.6 550.607C836.6 559.893 828.491 567.5 818.4 567.5C808.424 567.5 800.385 560.065 800.203 550.916L800.289 523.6Z" fill="#2E186A"/>
<path fill-rule="evenodd" clip-rule="evenodd" d="M526.173 496.681C527.73 496.114 529.452 496.916 530.019 498.473C530.566 499.974 529.839 501.629 528.391 502.254L528.227 502.319L470.027 523.519C468.47 524.086 466.748 523.284 466.181 521.727C465.634 520.226 466.361 518.571 467.809 517.946L467.973 517.881L526.173 496.681Z" fill="#2E186A"/>
<path fill-rule="evenodd" clip-rule="evenodd" d="M565.875 496.681C567.432 496.114 569.153 496.918 569.719 498.475C570.265 499.976 569.538 501.63 568.089 502.254L567.925 502.319L509.625 523.519C508.068 524.086 506.347 523.282 505.781 521.725C505.235 520.224 505.962 518.57 507.411 517.946L507.575 517.881L565.875 496.681Z" fill="#2E186A"/>
<path fill-rule="evenodd" clip-rule="evenodd" d="M607.675 496.681C609.232 496.114 610.953 496.918 611.519 498.475C612.065 499.976 611.338 501.63 609.889 502.254L609.725 502.319L551.425 523.519C549.868 524.086 548.147 523.282 547.581 521.725C547.035 520.224 547.762 518.57 549.211 517.946L549.375 517.881L607.675 496.681Z" fill="#2E186A"/>
<path fill-rule="evenodd" clip-rule="evenodd" d="M648.975 496.681C650.532 496.114 652.253 496.918 652.819 498.475C653.365 499.976 652.638 501.63 651.189 502.254L651.025 502.319L592.725 523.519C591.168 524.086 589.447 523.282 588.881 521.725C588.335 520.224 589.062 518.57 590.511 517.946L590.675 517.881L648.975 496.681Z" fill="#2E186A"/>
<path fill-rule="evenodd" clip-rule="evenodd" d="M690.273 496.681C691.83 496.114 693.552 496.916 694.119 498.473C694.666 499.974 693.939 501.629 692.491 502.254L692.327 502.319L634.127 523.519C632.57 524.086 630.848 523.284 630.281 521.727C629.734 520.226 630.461 518.571 631.909 517.946L632.073 517.881L690.273 496.681Z" fill="#2E186A"/>
<path fill-rule="evenodd" clip-rule="evenodd" d="M732.473 496.681C734.03 496.114 735.752 496.916 736.319 498.473C736.866 499.974 736.139 501.629 734.691 502.254L734.527 502.319L676.327 523.519C674.77 524.086 673.048 523.284 672.481 521.727C671.934 520.226 672.661 518.571 674.109 517.946L674.273 517.881L732.473 496.681Z" fill="#2E186A"/>
<path fill-rule="evenodd" clip-rule="evenodd" d="M772.973 496.681C774.53 496.114 776.252 496.916 776.819 498.473C777.366 499.974 776.639 501.629 775.191 502.254L775.027 502.319L716.827 523.519C715.27 524.086 713.548 523.284 712.981 521.727C712.434 520.226 713.161 518.571 714.609 517.946L714.773 517.881L772.973 496.681Z" fill="#2E186A"/>
<path fill-rule="evenodd" clip-rule="evenodd" d="M815.373 496.681C816.93 496.114 818.652 496.916 819.219 498.473C819.766 499.974 819.039 501.629 817.591 502.254L817.427 502.319L759.227 523.519C757.67 524.086 755.948 523.284 755.381 521.727C754.834 520.226 755.561 518.571 757.009 517.946L757.173 517.881L815.373 496.681Z" fill="#2E186A"/>
<path fill-rule="evenodd" clip-rule="evenodd" d="M853.773 496.681C855.33 496.114 857.052 496.916 857.619 498.473C858.166 499.974 857.439 501.629 855.991 502.254L855.827 502.319L797.627 523.519C796.07 524.086 794.348 523.284 793.781 521.727C793.234 520.226 793.961 518.571 795.409 517.946L795.573 517.881L853.773 496.681Z" fill="#2E186A"/>
<path fill-rule="evenodd" clip-rule="evenodd" d="M808.6 753.7H394.8C392.2 753.7 390.1 751.6 390.1 749V739.4C390.1 736.8 392.2 734.7 394.8 734.7H808.6C811.2 734.7 813.3 736.8 813.3 739.4V749C813.3 751.6 811.2 753.7 808.6 753.7Z" fill="#FE7624"/>
<path fill-rule="evenodd" clip-rule="evenodd" d="M430.4 735H712.8C722.5 735 730.4 727.1 730.4 717.4V626.4C730.4 616.7 722.5 608.8 712.8 608.8H430.4C420.7 608.8 412.8 616.7 412.8 626.4V717.4C412.8 727.1 420.7 735 430.4 735Z" fill="#FEBA91"/>
<path fill-rule="evenodd" clip-rule="evenodd" d="M607.7 609V733.8H601.7V609H607.7Z" fill="white"/>
<path fill-rule="evenodd" clip-rule="evenodd" d="M439.5 708.3H500.6C504.3 708.3 507.2 705.3 507.2 701.7V679.7C507.2 676 504.2 673.1 500.6 673.1H439.5C435.8 673.1 432.9 676.1 432.9 679.7V701.7C432.9 705.3 435.8 708.3 439.5 708.3Z" fill="white"/>
<path fill-rule="evenodd" clip-rule="evenodd" d="M637 929.3H307.5C304.4 929.3 301.9 926.8 301.9 923.7V913.1C301.9 910 304.4 907.5 307.5 907.5H637C640.1 907.5 642.6 910 642.6 913.1V923.7C642.7 926.8 640.1 929.3 637 929.3Z" fill="#FE7624"/>
<path fill-rule="evenodd" clip-rule="evenodd" d="M981.1 929.3H880.3C877.2 929.3 874.7 926.8 874.7 923.7V913.1C874.7 910 877.2 907.5 880.3 907.5H981.1C984.2 907.5 986.7 910 986.7 913.1V923.7C986.7 926.8 984.2 929.3 981.1 929.3Z" fill="#FE7624"/>
<path fill-rule="evenodd" clip-rule="evenodd" d="M842.2 647.1L826.5 608.6C821.7 600.6 828.9 593.6 836.8 599.6C839.8 601.9 843.6 605.2 847.2 611.2C857.6 628.4 880.6 664.4 879.3 663C878 661.6 842.2 647.1 842.2 647.1Z" fill="white"/>
<path fill-rule="evenodd" clip-rule="evenodd" d="M823.736 609.815L823.804 609.932L839.422 648.233C839.702 648.92 840.226 649.477 840.89 649.799L841.137 649.906L846.866 652.241L851.201 654.02C853.598 655.006 855.964 655.985 858.251 656.937L864.078 659.379C867.116 660.661 869.743 661.789 871.878 662.729L873.367 663.39C874.521 663.907 875.468 664.344 876.189 664.694L876.73 664.962C876.838 665.016 876.936 665.066 877.025 665.113L877.387 665.312L877.471 665.384L877.622 665.498C877.71 665.559 877.803 665.609 878.082 665.76L878.33 665.872C878.774 666.06 878.975 666.035 880.381 665.856L881.084 665.348C882.054 664.629 882.092 664.466 882.318 663.487L882.344 662.976C882.352 662.743 882.338 662.671 882.298 662.456L882.221 662.156C882.185 662.02 882.169 661.981 882.122 661.866C882.033 661.643 881.93 661.445 881.765 661.151L881.437 660.582C881.24 660.247 880.994 659.836 880.695 659.344L878.911 656.441L858.811 624.324C855.253 618.614 852.433 614.043 850.205 610.37L849.767 609.648C846.627 604.415 843.354 600.913 839.086 597.576L838.615 597.211C828.295 589.373 817.576 599 823.736 609.815ZM834.986 601.989L834.975 601.981C838.766 604.888 841.583 607.803 844.313 612.226L846.536 615.881C848.579 619.223 851.038 623.196 853.993 627.938L871.602 656.053L869.321 655.078C868.108 654.563 866.79 654.007 865.363 653.408L861.924 651.967C858.759 650.646 855.419 649.265 852.041 647.878L844.499 644.795L829.278 607.467C829.22 607.325 829.151 607.188 829.073 607.056C825.879 601.734 829.859 598.095 834.986 601.989Z" fill="#2E186A"/>
<path fill-rule="evenodd" clip-rule="evenodd" d="M964.1 633.4L881.2 651.7L840.6 631L786.4 614.5C779.8 612.6 774.9 620.9 780 625.6C782.7 628 823.5 641.7 823.5 641.7L771.6 635.9C766.3 635.3 762.8 641.5 766.2 645.7C769.6 649.9 775.7 650.2 783.9 652.1C788.9 653.2 821 657 821 657L775.2 660.2C763.9 661.5 764.2 677.7 785.8 675C797 673.6 810.6 673.7 820.1 671.1L789.1 680C778.9 686.2 789.4 697.7 833.1 684.5C859.7 705.9 873.6 709.9 897.6 695.8C897.7 695.7 977.9 682.6 977.9 682.6L964.1 633.4Z" fill="white"/>
<path fill-rule="evenodd" clip-rule="evenodd" d="M778.007 627.842L778.08 627.905C779.604 629.171 785.261 631.445 795.484 635.136L797.152 635.736L771.933 632.919C763.958 632.016 758.787 641.311 763.868 647.588C766.49 650.826 769.687 652.172 776.232 653.556L779.855 654.295C781.145 654.559 782.188 654.783 783.223 655.023L783.861 655.152C784.869 655.344 786.384 655.586 788.366 655.874L790.242 656.141L774.991 657.207L774.857 657.22C767.657 658.048 763.215 664.073 765.332 670.095C767.459 676.143 775.024 679.253 785.706 678.033L786.828 677.896C780.049 682.541 781.3 689.837 790.042 692.404L790.357 692.493C798.727 694.815 812.964 693.493 831.802 688.014L832.452 687.823L832.916 688.191C860.082 709.687 874.908 712.379 898.391 698.811L898.658 698.655L908.068 697.086L944.408 691.118L978.384 685.561C980.149 685.272 981.272 683.512 980.789 681.79L966.989 632.59L966.936 632.422C966.444 630.99 964.95 630.14 963.453 630.471L881.603 648.538L841.963 628.327C841.806 628.247 841.642 628.181 841.474 628.13L787.274 611.63C777.69 608.871 770.678 620.717 777.748 627.599L778.007 627.842ZM839.471 633.791L879.837 654.373L880.047 654.47C880.615 654.706 881.243 654.763 881.847 654.63L961.977 636.94L974.105 680.18L900.233 692.304L897.308 692.801L894.563 693.294C893.982 693.412 895.482 693.216 895.562 693.502L895.564 693.514L894.774 693.969C873.62 706.011 861.218 703.271 834.981 682.163C834.209 681.542 833.181 681.342 832.233 681.628L830.858 682.039C812.644 687.407 799.179 688.702 791.999 686.722L791.508 686.579L791.074 686.444C787.816 685.384 787.731 684.424 790.328 682.768L820.928 673.984C824.749 672.887 823.142 667.157 819.308 668.206L818.798 668.343C814.281 669.526 809.429 670.08 799.23 670.817L795.243 671.106C790.739 671.441 788.268 671.668 785.428 672.023C776.994 673.078 772.042 671.091 770.993 668.105L770.941 667.946C770.333 665.88 771.965 663.694 775.284 663.214L775.495 663.186L821.209 659.993C824.776 659.744 824.963 654.64 821.546 654.049L820.93 653.971L815.462 653.313L811.055 652.776C809.593 652.596 808.142 652.416 806.713 652.238L799.33 651.302C791.527 650.295 786.208 649.536 784.545 649.17L783.328 648.896C782.911 648.804 782.478 648.712 782.018 648.615L777.9 647.775C772.35 646.626 770.055 645.695 768.532 643.812C766.843 641.727 768.594 638.579 771.263 638.881L823.167 644.681C826.679 645.074 827.824 640.174 824.627 638.919L824.395 638.836L818.316 636.773L814.253 635.379C810.862 634.211 807.504 633.043 804.282 631.905L799.354 630.151C789.905 626.755 783.019 624.053 782.066 623.413L782.013 623.374L782.033 623.394C779.307 620.881 781.951 616.341 785.57 617.383L839.471 633.791ZM899.689 697.957C899.278 698.455 901.543 698.128 900.808 698.27L898.661 698.653L899.12 698.387C899.339 698.258 899.541 698.101 899.721 697.921L899.689 697.957Z" fill="#2E186A"/>
<path fill-rule="evenodd" clip-rule="evenodd" d="M1021 467.8L1106.8 436L1150.6 643.1C1153.5 664.8 1139.3 685 1118 689.7L897 720.9C890.5 721.4 884.7 717 883.4 710.6L883.3 642.7C881.8 635.4 887 628.3 894.4 627.4L1039 613.1L1021 467.8Z" fill="#FE7624"/>
<path fill-rule="evenodd" clip-rule="evenodd" d="M967.619 618.655C965.987 618.941 964.432 617.85 964.145 616.219C963.869 614.645 964.873 613.143 966.409 612.781L966.581 612.745L1032.68 601.145C1032.79 601.127 1032.89 601.114 1033 601.107L1033.21 601.1L1033.56 601.1L1034.19 601.111C1034.43 601.117 1034.69 601.125 1034.97 601.137C1036.11 601.183 1037.36 601.271 1038.69 601.41C1042.4 601.797 1046.1 602.509 1049.58 603.634C1059.41 606.808 1065.94 612.711 1066.98 621.963C1067.17 623.61 1065.98 625.095 1064.34 625.281C1062.69 625.467 1061.2 624.283 1061.02 622.637C1060.29 616.147 1055.56 611.869 1047.74 609.343C1044.69 608.359 1041.39 607.724 1038.07 607.377C1037.07 607.273 1036.12 607.201 1035.24 607.156L1034.72 607.132C1034.4 607.118 1034.11 607.11 1033.86 607.105L1033.46 607.099L967.619 618.655Z" fill="#2E186A"/>
<path fill-rule="evenodd" clip-rule="evenodd" d="M1017.47 490.931C1019.05 490.703 1020.52 491.754 1020.84 493.299L1020.87 493.473L1036 598.743L1036.11 598.686C1036.48 598.481 1036.86 598.278 1037.24 598.078L1037.83 597.78C1045.87 593.808 1054.34 592.676 1062.39 596.269C1066.52 598.111 1070.3 601.149 1073.66 605.453C1074.68 606.758 1074.45 608.643 1073.15 609.664C1071.84 610.684 1069.96 610.453 1068.94 609.147C1066.16 605.596 1063.15 603.179 1059.95 601.748C1053.8 599.005 1047.08 599.903 1040.49 603.16C1039.14 603.83 1037.9 604.548 1036.82 605.262L1036.4 605.548C1036.26 605.639 1036.14 605.728 1036.02 605.812L1035.69 606.051L1035.57 606.148C1033.8 607.553 1031.2 606.573 1030.76 604.401L1030.73 604.227L1014.93 494.327C1014.69 492.687 1015.83 491.166 1017.47 490.931Z" fill="#2E186A"/>
<path fill-rule="evenodd" clip-rule="evenodd" d="M1089.7 805.8C1087.3 805.5 1084.9 805.4 1082.4 805.6C1060.9 807.2 1045.2 827.7 1050.5 849.7C1051.8 855.1 1054.4 860.1 1058 864.3C1064.9 872.2 1074.4 876.5 1084.5 876.6V896.7C1084.5 914.2 1098.7 928.5 1116.3 928.5H1169.9C1187.4 928.5 1201.7 914.3 1201.7 896.7V818.2C1201.7 811.4 1196.2 805.9 1189.4 805.9H1089.7V805.8ZM1072.2 855.9C1068.2 852.5 1065.8 847.7 1065.4 842.5C1064.6 831.7 1072.8 822.2 1083.6 821.4C1083.9 821.4 1084.2 821.4 1084.5 821.4V860.7C1080 860.6 1075.7 858.9 1072.2 855.9Z" fill="#5D21D1"/>
<path fill-rule="evenodd" clip-rule="evenodd" d="M1146.4 885.6V889.9C1146.4 891.7 1144.9 893.2 1143.1 893.2C1141.3 893.2 1139.8 891.7 1139.8 889.9V885.4C1136.5 884.9 1133.4 883.8 1130.7 882.2C1129 881.2 1128.3 879.1 1129.2 877.3V877.2C1130.2 875.2 1132.6 874.5 1134.5 875.6C1137.6 877.4 1141.2 878.5 1143.8 878.5C1146.6 878.5 1148.4 877.5 1148.4 875.5C1148.4 869.3 1129.9 873 1129.9 860.6C1129.9 855.2 1133.7 851.5 1139.8 850.4V846.3C1139.8 844.5 1141.3 843 1143.1 843C1144.9 843 1146.4 844.5 1146.4 846.3V850.2C1149.1 850.5 1151.8 851.2 1154.2 852.2C1156.2 853 1157 855.4 1156.1 857.3L1156 857.5C1155.1 859.4 1152.9 860.1 1151 859.3C1148.1 858.1 1145.1 857.3 1143.1 857.3C1140.8 857.3 1139.2 858.1 1139.2 859.8C1139.2 865.9 1157.7 862.4 1157.7 875.1C1157.8 881.3 1153 884.9 1146.4 885.6Z" fill="white"/>
<path fill-rule="evenodd" clip-rule="evenodd" d="M1783.99 921C1785.65 920.994 1786.99 922.331 1787 923.988C1787.01 925.586 1785.76 926.897 1784.19 926.994L1784.01 927L3.01179 934C1.35495 934.006 0.00653568 932.669 2.36723e-05 931.012C-0.00625577 929.414 1.23752 928.103 2.81196 928.006L2.98821 928L1783.99 921Z" fill="#2E186A"/>
</svg>
