<svg width="1710" height="736" viewBox="0 0 1710 736" fill="none" xmlns="http://www.w3.org/2000/svg">
<path fill-rule="evenodd" clip-rule="evenodd" d="M689.28 365.29H311.28C287.207 365.287 264.119 374.848 247.097 391.869C230.074 408.891 220.51 431.977 220.51 456.05V641.88C220.51 665.953 230.074 689.039 247.097 706.061C264.119 723.082 287.207 732.643 311.28 732.64H689.28V365.29Z" fill="#5D21D1"/>
<path fill-rule="evenodd" clip-rule="evenodd" d="M681.59 391.07H385.59C367.873 391.07 353.51 405.433 353.51 423.15V676.29C353.51 694.008 367.873 708.37 385.59 708.37H681.59C683.247 708.37 684.59 707.027 684.59 705.37V394.07C684.59 392.413 683.247 391.07 681.59 391.07ZM678.59 397.069V702.37H385.59C371.186 702.37 359.51 690.694 359.51 676.29V423.15L359.514 422.719C359.744 408.514 371.33 397.07 385.59 397.07L678.59 397.069Z" fill="#FE7624"/>
<path fill-rule="evenodd" clip-rule="evenodd" d="M410.58 417.771C399.726 417.776 390.93 426.576 390.93 437.431V662.001C390.93 672.853 399.728 681.651 410.58 681.651H670.48V417.771H410.58Z" fill="white"/>
<circle cx="293.55" cy="472.79" r="32.67" fill="#FEBA91"/>
<path fill-rule="evenodd" clip-rule="evenodd" d="M293.55 447.87C279.787 447.87 268.63 459.027 268.63 472.79C268.63 486.553 279.787 497.71 293.55 497.71C307.313 497.71 318.47 486.553 318.47 472.79C318.47 459.027 307.313 447.87 293.55 447.87ZM293.55 453.87C303.999 453.87 312.47 462.341 312.47 472.79C312.47 483.239 303.999 491.71 293.55 491.71C283.101 491.71 274.63 483.239 274.63 472.79C274.63 462.341 283.101 453.87 293.55 453.87Z" fill="#FE7624"/>
<path fill-rule="evenodd" clip-rule="evenodd" d="M333.3 573.34H307.03V547.08H280.95V573.34H254.68V599.42H280.95V625.69H307.03V599.42H333.3V573.34Z" fill="#FE7624"/>
<rect x="306.67" y="658.95" width="24.94" height="24.94" fill="white"/>
<rect x="306.67" y="407.11" width="21.51" height="9.07" rx="4.535" fill="white"/>
<path fill-rule="evenodd" clip-rule="evenodd" d="M1050 558.22C1062.45 554.78 1099.82 556.93 1099.82 556.93C1099.82 556.93 1104.55 586.57 1134.9 597.45C1205.9 621.36 1229.54 573.25 1229.54 573.25C1234.12 589.25 1298.69 739.48 1370.85 730.89C1443.01 722.3 1434.42 525.29 1367.99 389.56C1301.56 253.83 1210.49 294.49 1177.85 301.36C1145.21 308.23 1103.97 312.08 1071.33 311.67C1058.11 311.724 1044.9 310.761 1031.82 308.79L1050 558.22Z" fill="#5D21D1"/>
<path fill-rule="evenodd" clip-rule="evenodd" d="M1309.69 704C1328.46 721.89 1349.29 733.44 1370.8 730.88C1416.32 725.46 1429.71 645.05 1416.7 552.34C1384.51 545.34 1353.24 590.2 1335.58 622.64C1322.34 647 1314 681.62 1309.69 704Z" fill="#FE7624"/>
<path fill-rule="evenodd" clip-rule="evenodd" d="M1175.37 452.521C1149.81 452.521 1128.99 471.692 1128.99 495.471C1128.99 519.249 1149.81 538.421 1175.37 538.421C1200.93 538.421 1221.75 519.249 1221.75 495.471C1221.75 471.692 1200.93 452.521 1175.37 452.521ZM1175.37 458.521C1197.72 458.521 1215.75 475.121 1215.75 495.471C1215.75 515.82 1197.72 532.421 1175.37 532.421C1153.02 532.421 1134.99 515.82 1134.99 495.471C1134.99 475.121 1153.02 458.521 1175.37 458.521Z" fill="#FE7624"/>
<ellipse cx="1175.37" cy="487.281" rx="43.38" ry="39.95" fill="#FE7624"/>
<path fill-rule="evenodd" clip-rule="evenodd" d="M1258.98 408.291C1244.42 408.291 1232.36 417.636 1232.36 429.591C1232.36 441.546 1244.42 450.891 1258.98 450.891C1273.54 450.891 1285.6 441.546 1285.6 429.591C1285.6 417.636 1273.54 408.291 1258.98 408.291ZM1258.98 414.291C1270.51 414.291 1279.6 421.333 1279.6 429.591C1279.6 437.849 1270.51 444.891 1258.98 444.891C1247.45 444.891 1238.36 437.849 1238.36 429.591C1238.36 421.333 1247.45 414.291 1258.98 414.291Z" fill="#FE7624"/>
<ellipse cx="1204.38" cy="386.011" rx="23.62" ry="18.3" fill="#FEBA91"/>
<ellipse cx="1255.64" cy="341.051" rx="23.62" ry="18.3" fill="#FE7624"/>
<ellipse cx="1311.47" cy="386.011" rx="23.62" ry="18.3" fill="white"/>
<ellipse cx="1074.86" cy="357.201" rx="29.64" ry="26.2" fill="white"/>
<path fill-rule="evenodd" clip-rule="evenodd" d="M1074.86 318.631C1051.06 318.631 1031.63 335.811 1031.63 357.201C1031.63 378.59 1051.06 395.771 1074.86 395.771C1098.66 395.771 1118.09 378.59 1118.09 357.201C1118.09 335.811 1098.66 318.631 1074.86 318.631ZM1074.86 324.631C1095.5 324.631 1112.09 339.301 1112.09 357.201C1112.09 375.101 1095.5 389.771 1074.86 389.771C1054.22 389.771 1037.63 375.101 1037.63 357.201C1037.63 339.301 1054.22 324.631 1074.86 324.631Z" fill="white"/>
<path fill-rule="evenodd" clip-rule="evenodd" d="M1252.96 305.108C1220.6 305.308 1193.12 317.509 1174.46 337.622C1158.13 355.224 1150.59 377.219 1154.96 393.686L1155.31 394.96C1162.23 420.198 1156.5 433.276 1136.82 444.86L1136.3 445.165L1136.41 445.11C1121.18 452.477 1110.53 462.052 1103.95 473.317C1096.1 486.742 1094.67 500.916 1096.96 513.73L1097.14 514.683L1097.28 515.373L1097.42 516.014L1097.55 516.607L1097.68 517.15L1097.81 517.642L1097.99 518.282L1098.13 518.758L1098.26 519.211L1098.44 519.787L1098.66 520.482L1098.84 521.009C1099.46 522.815 1100.25 524.819 1101.21 526.972C1103.96 533.107 1107.61 539.238 1112.28 544.97C1124.59 560.051 1141.67 569.665 1164.15 571.094C1192.76 572.447 1214.44 564.678 1229.5 550.377C1240.07 540.34 1246.64 527.238 1247.49 518.502L1247.52 518.102C1248.03 511.496 1250.24 503.941 1254.29 497.085L1254.59 496.585C1259.84 487.95 1267.64 481.064 1278.38 476.598L1278.78 476.433L1278.52 476.491C1297.57 472.312 1313.6 466.416 1327.06 457.6C1344.03 446.486 1355.69 431.341 1360.97 411.439C1366.68 389.898 1357.46 363.151 1337.49 341.679C1316.41 319.019 1286.45 305.186 1253.95 305.106L1252.96 305.108ZM1253 311.108C1284.15 310.918 1312.92 324.075 1333.1 345.766C1351.78 365.846 1360.3 390.569 1355.17 409.901C1350.29 428.304 1339.56 442.244 1323.77 452.581C1311.01 460.936 1295.63 466.595 1277.24 470.63C1277.07 470.666 1276.91 470.715 1276.76 470.778C1264.24 475.824 1255.13 483.884 1249.13 494.031C1244.72 501.492 1242.27 509.662 1241.6 516.976L1241.54 517.639C1240.98 524.857 1235.05 536.835 1225.37 546.026C1211.52 559.182 1191.43 566.378 1164.48 565.104C1143.81 563.788 1128.23 555.022 1116.93 541.177C1112.61 535.882 1109.23 530.199 1106.69 524.52C1105.8 522.538 1105.08 520.703 1104.52 519.064L1104.41 518.732L1104.21 518.118L1104.04 517.573L1103.85 516.938L1103.75 516.611L1103.59 516.032C1103.38 515.223 1103.17 514.278 1102.97 513.21C1100.77 501.542 1101.99 488.56 1109.13 476.344C1115.1 466.134 1124.84 457.372 1139.03 450.511L1139.22 450.407C1161.9 437.278 1168.96 421.276 1160.87 392.557C1156.84 378.273 1163.67 358.071 1178.86 341.703C1196.4 322.799 1222.3 311.298 1253 311.108Z" fill="#FE7624"/>
<path fill-rule="evenodd" clip-rule="evenodd" d="M1099.85 510.471C1101.45 510.471 1102.75 511.72 1102.84 513.294L1102.85 513.471V556.151C1102.85 557.808 1101.51 559.151 1099.85 559.151C1098.25 559.151 1096.95 557.902 1096.86 556.327L1096.85 556.151L1096.85 516.471H1050.03C1048.43 516.471 1047.13 515.222 1047.04 513.647L1047.03 513.471C1047.03 511.873 1048.28 510.567 1049.85 510.476L1050.03 510.471H1099.85Z" fill="#FE7624"/>
<path fill-rule="evenodd" clip-rule="evenodd" d="M1229.35 544.62C1230.95 544.62 1232.25 545.869 1232.35 547.444L1232.35 547.62V570.52C1232.35 572.177 1231.01 573.52 1229.35 573.52C1227.75 573.52 1226.45 572.271 1226.36 570.696L1226.35 570.52V547.62C1226.35 545.963 1227.69 544.62 1229.35 544.62Z" fill="#FE7624"/>
<path fill-rule="evenodd" clip-rule="evenodd" d="M644.85 732.23H1004.35C1004.35 732.23 1076.62 727.18 1076.62 638.3V27.77C1076.62 12.43 1066 0 1053 0H668.52C655.45 0 644.85 12.43 644.85 27.77V732.23Z" fill="#FE7624"/>
<path fill-rule="evenodd" clip-rule="evenodd" d="M1076.62 39.92H1038.2V20.27C1038.26 12.994 1035.99 5.88921 1031.72 0H1023.67C1028.84 4.56 1032.2 12 1032.2 20.27V39.92H986.77V0H980.77V39.92H696.41V0H690.41V39.92H644.85V45.92H1032.2V637.31C1032.2 712.25 981.32 726.31 965.72 728.85C964.113 729.116 963.012 730.617 963.24 732.23H977.36C988.64 728.789 999.076 723.03 1008 715.32C1028.06 697.76 1038.23 671.51 1038.23 637.32V45.92H1076.65L1076.62 39.92Z" fill="white"/>
<path fill-rule="evenodd" clip-rule="evenodd" d="M689.28 352.48H924.61C924.61 352.48 983.43 353.2 983.43 274.71V79.0004C983.43 71.3304 978.32 65.1104 972.02 65.1104H700.69C694.39 65.1104 689.28 71.3304 689.28 79.0004L689.28 352.48Z" fill="#2E186A"/>
<rect x="739.08" y="102.01" width="198.37" height="214.11" rx="8.1" fill="white"/>
<path fill-rule="evenodd" clip-rule="evenodd" d="M929.35 99.0098H747.18C741.05 99.0098 736.08 103.979 736.08 110.11V308.02C736.08 314.15 741.05 319.12 747.18 319.12H929.35C935.48 319.12 940.45 314.15 940.45 308.02V110.11C940.45 103.979 935.48 99.0098 929.35 99.0098ZM747.18 105.01H929.35C932.167 105.01 934.45 107.293 934.45 110.11V308.02C934.45 310.836 932.167 313.12 929.35 313.12H747.18C744.363 313.12 742.08 310.836 742.08 308.02V110.11C742.08 107.293 744.363 105.01 747.18 105.01Z" fill="#2E186A"/>
<ellipse cx="882.256" cy="480.233" rx="19.65" ry="21.73" transform="rotate(-9.53 882.256 480.233)" fill="#2E186A"/>
<ellipse cx="930.838" cy="442.463" rx="19.7382" ry="21.8276" transform="rotate(-9.74364 930.838 442.463)" fill="#2E186A"/>
<path fill-rule="evenodd" clip-rule="evenodd" d="M915.165 406.836L850.907 458.624C836.044 470.606 833.249 493.711 844.539 510.326L844.868 510.802C856.385 527.205 877.617 530.895 892.474 518.904L956.723 467.105C971.59 455.12 974.388 432.014 963.091 415.403L962.749 414.908C951.246 398.527 930.014 394.843 915.165 406.836ZM957.839 418.356L958.142 418.795C967.708 432.86 965.335 452.456 952.957 462.434L888.707 514.234C876.622 523.988 859.35 520.986 849.791 507.373L849.488 506.934C839.929 492.865 842.299 473.271 854.673 463.295L918.932 411.506C931.012 401.75 948.282 404.747 957.839 418.356Z" fill="white"/>
<path fill-rule="evenodd" clip-rule="evenodd" d="M813.457 583.644C819.387 580.108 827.06 582.048 830.596 587.977C834.077 593.815 832.25 601.344 826.533 604.95L826.262 605.116L792.692 625.136C786.763 628.672 779.09 626.732 775.554 620.802C772.073 614.964 773.9 607.436 779.617 603.83L779.887 603.664L813.457 583.644Z" fill="#2E186A"/>
<path fill-rule="evenodd" clip-rule="evenodd" d="M748.882 583.53C754.874 580.102 762.511 582.18 765.94 588.172C769.315 594.072 767.352 601.567 761.571 605.068L761.298 605.23L726.308 625.25C720.316 628.678 712.679 626.6 709.25 620.608C705.875 614.708 707.838 607.213 713.618 603.712L713.892 603.55L748.882 583.53Z" fill="#2E186A"/>
<path fill-rule="evenodd" clip-rule="evenodd" d="M798.65 446.52H761.42V409.39H726.14V446.52H688.9V481.7H726.14V518.83H761.42V481.7H798.65V446.52Z" fill="#2E186A"/>
<path fill-rule="evenodd" clip-rule="evenodd" d="M743.78 452.46C737.332 452.46 732.1 457.674 732.1 464.11C732.1 470.546 737.332 475.76 743.78 475.76C750.228 475.76 755.46 470.546 755.46 464.11C755.46 457.674 750.228 452.46 743.78 452.46ZM743.78 458.46C746.919 458.46 749.46 460.992 749.46 464.11C749.46 467.228 746.919 469.76 743.78 469.76C740.641 469.76 738.1 467.228 738.1 464.11C738.1 460.992 740.641 458.46 743.78 458.46Z" fill="#FE7624"/>
<path fill-rule="evenodd" clip-rule="evenodd" d="M761.84 99.0098C763.438 99.0098 764.744 100.259 764.835 101.833L764.84 102.01V314.61C764.84 316.267 763.497 317.61 761.84 317.61C760.242 317.61 758.936 316.361 758.845 314.786L758.84 314.61V102.01C758.84 100.353 760.183 99.0098 761.84 99.0098Z" fill="#2E186A"/>
<path fill-rule="evenodd" clip-rule="evenodd" d="M721.8 211.29C723.457 211.29 724.8 212.633 724.8 214.29C724.8 215.888 723.551 217.194 721.976 217.285L721.8 217.29H703.59C701.933 217.29 700.59 215.947 700.59 214.29C700.59 212.692 701.839 211.386 703.414 211.295L703.59 211.29H721.8Z" fill="white"/>
<ellipse cx="712.69" cy="191.11" rx="6.88" ry="8.08" fill="#FE7624"/>
<path fill-rule="evenodd" clip-rule="evenodd" d="M951.197 581.613C952.665 580.983 954.358 581.616 955.063 583.027L955.137 583.187L979.907 640.917C980.56 642.44 979.855 644.204 978.333 644.857C976.865 645.487 975.172 644.854 974.467 643.443L974.393 643.283L949.623 585.553C948.97 584.03 949.674 582.266 951.197 581.613Z" fill="white"/>
<path fill-rule="evenodd" clip-rule="evenodd" d="M930.887 593.623C932.355 592.993 934.048 593.626 934.753 595.037L934.827 595.197L959.597 652.927C960.25 654.449 959.546 656.213 958.023 656.867C956.555 657.497 954.862 656.864 954.157 655.453L954.083 655.293L929.313 597.563C928.66 596.04 929.364 594.276 930.887 593.623Z" fill="white"/>
<path fill-rule="evenodd" clip-rule="evenodd" d="M910.567 605.632C912.035 605.003 913.728 605.635 914.433 607.047L914.507 607.207L939.277 664.937C939.93 666.459 939.226 668.223 937.703 668.876C936.235 669.506 934.542 668.874 933.837 667.462L933.763 667.302L908.993 609.572C908.34 608.05 909.044 606.286 910.567 605.632Z" fill="white"/>
<path fill-rule="evenodd" clip-rule="evenodd" d="M890.247 617.643C891.715 617.013 893.408 617.646 894.113 619.057L894.187 619.217L918.957 676.947C919.61 678.47 918.905 680.234 917.383 680.887C915.915 681.517 914.222 680.884 913.517 679.473L913.443 679.313L888.673 621.583C888.02 620.06 888.724 618.297 890.247 617.643Z" fill="white"/>
<path fill-rule="evenodd" clip-rule="evenodd" d="M869.927 629.643C871.395 629.013 873.088 629.646 873.793 631.057L873.867 631.217L898.637 688.957C899.29 690.48 898.585 692.244 897.063 692.897C895.594 693.527 893.902 692.894 893.197 691.483L893.123 691.323L868.353 633.583C867.7 632.06 868.405 630.296 869.927 629.643Z" fill="white"/>
<path fill-rule="evenodd" clip-rule="evenodd" d="M849.617 641.653C851.085 641.023 852.778 641.656 853.483 643.067L853.557 643.227L878.327 700.957C878.98 702.48 878.275 704.244 876.753 704.897C875.285 705.527 873.592 704.894 872.887 703.483L872.813 703.323L848.043 645.593C847.39 644.07 848.094 642.306 849.617 641.653Z" fill="white"/>
<path fill-rule="evenodd" clip-rule="evenodd" d="M1706.94 729.58C1708.6 729.58 1709.94 730.923 1709.94 732.58C1709.94 734.178 1708.69 735.484 1707.12 735.575L1706.94 735.58H3C1.34315 735.58 0 734.237 0 732.58C0 730.982 1.24892 729.676 2.82373 729.585L3 729.58H1706.94Z" fill="#2E186A"/>
</svg>
