<svg width="32" height="32" viewBox="0 0 32 32" fill="none" xmlns="http://www.w3.org/2000/svg">
<path d="M7.5 31.5V0.499893H10.5V31.5H7.5Z" stroke="#000577" stroke-linecap="round" stroke-linejoin="round"/>
<path d="M15.5 31.5H12.5V26.5H15.5V31.5Z" stroke="#000577" stroke-linecap="round" stroke-linejoin="round"/>
<path d="M15.5 0.5H12.5V7H15.5V0.5Z" stroke="#000577" stroke-linecap="round" stroke-linejoin="round"/>
<path d="M8.75 7H19.898C22.8144 7 25.1786 8.28655 25.1786 11.1072C25.1786 13.9278 23.3718 15.2143 20.4554 15.2143M8.75 7V15.2143M8.75 7H5.5M20.4554 15.2143L8.75 15.2143M20.4554 15.2143C23.2394 15.2143 26 16.8526 26 20.1071C26 23.3617 23.5176 25 20.4554 25H8.75M8.75 15.2143V25M8.75 25H5.5" stroke="#A8ABFF" stroke-width="5" stroke-linecap="round" stroke-linejoin="round"/>
</svg>
