<svg width="1694" height="792" viewBox="0 0 1694 792" fill="none" xmlns="http://www.w3.org/2000/svg">
<rect x="339.34" y="497.846" width="290" height="72.6" transform="rotate(90 339.34 497.846)" fill="#5D21D1"/>
<rect x="320.617" y="522.49" width="135" height="39" transform="rotate(90 320.617 522.49)" fill="white"/>
<rect x="320.598" y="663.171" width="12.6" height="39" transform="rotate(90 320.598 663.171)" fill="#FE7624"/>
<path fill-rule="evenodd" clip-rule="evenodd" d="M300.4 721.3C291.177 721.3 283.7 728.777 283.7 738C283.7 747.223 291.177 754.7 300.4 754.7C309.623 754.7 317.1 747.223 317.1 738C317.1 728.777 309.623 721.3 300.4 721.3ZM300.4 727.3C306.309 727.3 311.1 732.09 311.1 738C311.1 743.909 306.309 748.7 300.4 748.7C294.491 748.7 289.7 743.909 289.7 738C289.7 732.09 294.491 727.3 300.4 727.3Z" fill="white"/>
<path fill-rule="evenodd" clip-rule="evenodd" d="M316.1 551.6C317.757 551.6 319.1 552.943 319.1 554.6C319.1 556.198 317.851 557.504 316.276 557.595L316.1 557.6H287.2C285.543 557.6 284.2 556.257 284.2 554.6C284.2 553.002 285.449 551.696 287.024 551.605L287.2 551.6H316.1Z" fill="#FE7624"/>
<path fill-rule="evenodd" clip-rule="evenodd" d="M316.1 566.5C317.757 566.5 319.1 567.843 319.1 569.5C319.1 571.098 317.851 572.404 316.276 572.495L316.1 572.5H287.2C285.543 572.5 284.2 571.157 284.2 569.5C284.2 567.902 285.449 566.596 287.024 566.505L287.2 566.5H316.1Z" fill="#FE7624"/>
<path fill-rule="evenodd" clip-rule="evenodd" d="M316.1 581.4C317.757 581.4 319.1 582.743 319.1 584.4C319.1 585.998 317.851 587.304 316.276 587.395L316.1 587.4H287.2C285.543 587.4 284.2 586.057 284.2 584.4C284.2 582.802 285.449 581.496 287.024 581.405L287.2 581.4H316.1Z" fill="#FE7624"/>
<rect x="411.606" y="498.074" width="290" height="72.6" transform="rotate(90 411.606 498.074)" fill="#5D21D1"/>
<rect x="392.884" y="522.818" width="135" height="39" transform="rotate(90 392.884 522.818)" fill="white"/>
<rect x="392.865" y="663.5" width="12.6" height="39" transform="rotate(90 392.865 663.5)" fill="#2E186A"/>
<path fill-rule="evenodd" clip-rule="evenodd" d="M372.6 721.6C363.377 721.6 355.9 729.077 355.9 738.3C355.9 747.523 363.377 755 372.6 755C381.823 755 389.3 747.523 389.3 738.3C389.3 729.077 381.823 721.6 372.6 721.6ZM372.6 727.6C378.509 727.6 383.3 732.391 383.3 738.3C383.3 744.21 378.509 749 372.6 749C366.691 749 361.9 744.21 361.9 738.3C361.9 732.391 366.691 727.6 372.6 727.6Z" fill="white"/>
<path fill-rule="evenodd" clip-rule="evenodd" d="M388 613.8C389.657 613.8 391 615.143 391 616.8C391 618.397 389.751 619.703 388.176 619.795L388 619.8H359C357.343 619.8 356 618.457 356 616.8C356 615.202 357.249 613.896 358.824 613.805L359 613.8H388Z" fill="#2E186A"/>
<path fill-rule="evenodd" clip-rule="evenodd" d="M388 537C389.657 537 391 538.343 391 540C391 541.598 389.751 542.904 388.176 542.995L388 543H359C357.343 543 356 541.657 356 540C356 538.402 357.249 537.096 358.824 537.005L359 537H388Z" fill="#2E186A"/>
<path fill-rule="evenodd" clip-rule="evenodd" d="M388 628.6C389.657 628.6 391 629.943 391 631.6C391 633.198 389.751 634.504 388.176 634.595L388 634.6H359C357.343 634.6 356 633.257 356 631.6C356 630.002 357.249 628.696 358.824 628.605L359 628.6H388Z" fill="#2E186A"/>
<path fill-rule="evenodd" clip-rule="evenodd" d="M388 643.5C389.657 643.5 391 644.843 391 646.5C391 648.098 389.751 649.404 388.176 649.495L388 649.5H359C357.343 649.5 356 648.157 356 646.5C356 644.902 357.249 643.596 358.824 643.505L359 643.5H388Z" fill="#2E186A"/>
<rect x="267.786" y="498.095" width="290" height="72.6" transform="rotate(90 267.786 498.095)" fill="#5D21D1"/>
<rect x="249.063" y="522.838" width="135" height="39" transform="rotate(90 249.063 522.838)" fill="white"/>
<rect x="249.045" y="663.42" width="12.6" height="39" transform="rotate(90 249.045 663.42)" fill="#FE7624"/>
<path fill-rule="evenodd" clip-rule="evenodd" d="M228.8 721.6C219.577 721.6 212.1 729.077 212.1 738.3C212.1 747.523 219.577 755 228.8 755C238.023 755 245.5 747.523 245.5 738.3C245.5 729.077 238.023 721.6 228.8 721.6ZM228.8 727.6C234.709 727.6 239.5 732.391 239.5 738.3C239.5 744.21 234.709 749 228.8 749C222.891 749 218.1 744.21 218.1 738.3C218.1 732.391 222.891 727.6 228.8 727.6Z" fill="white"/>
<path fill-rule="evenodd" clip-rule="evenodd" d="M244.1 613.8C245.757 613.8 247.1 615.143 247.1 616.8C247.1 618.397 245.851 619.703 244.276 619.795L244.1 619.8H215.2C213.543 619.8 212.2 618.457 212.2 616.8C212.2 615.202 213.449 613.896 215.024 613.805L215.2 613.8H244.1Z" fill="#2E186A"/>
<path fill-rule="evenodd" clip-rule="evenodd" d="M244.1 537C245.757 537 247.1 538.343 247.1 540C247.1 541.598 245.851 542.904 244.276 542.995L244.1 543H215.2C213.543 543 212.2 541.657 212.2 540C212.2 538.402 213.449 537.096 215.024 537.005L215.2 537H244.1Z" fill="#2E186A"/>
<path fill-rule="evenodd" clip-rule="evenodd" d="M244.1 628.6C245.757 628.6 247.1 629.943 247.1 631.6C247.1 633.198 245.851 634.504 244.276 634.595L244.1 634.6H215.2C213.543 634.6 212.2 633.257 212.2 631.6C212.2 630.002 213.449 628.696 215.024 628.605L215.2 628.6H244.1Z" fill="#2E186A"/>
<path fill-rule="evenodd" clip-rule="evenodd" d="M244.1 643.5C245.757 643.5 247.1 644.843 247.1 646.5C247.1 648.098 245.851 649.404 244.276 649.495L244.1 649.5H215.2C213.543 649.5 212.2 648.157 212.2 646.5C212.2 644.902 213.449 643.596 215.024 643.505L215.2 643.5H244.1Z" fill="#2E186A"/>
<path fill-rule="evenodd" clip-rule="evenodd" d="M348.4 405C348.4 405 350.2 388 337.7 372.8C325.2 357.6 325.1 348 318.1 340.8C311.1 333.5 300 336.9 310 361.5C320 386.1 324.3 396.2 324.3 396.2L348.4 405Z" fill="white"/>
<path fill-rule="evenodd" clip-rule="evenodd" d="M305.329 337.318C301.705 341.866 302.313 350.557 307.221 362.63L313.226 377.339C314.722 380.984 316.093 384.311 317.343 387.328L320.234 394.274L321.54 397.375C321.865 398.139 322.492 398.734 323.271 399.018L347.371 407.818C349.204 408.488 351.178 407.257 351.383 405.316L351.42 404.875C351.427 404.78 351.434 404.674 351.44 404.558C351.604 401.665 351.421 397.966 350.631 393.75C349.462 387.505 347.152 381.343 343.433 375.574C342.397 373.966 341.259 372.405 340.017 370.895C336.505 366.623 333.812 362.596 331.485 358.34C330.684 356.875 329.948 355.428 329.128 353.728L326.542 348.277C324.463 344 322.738 341.267 320.251 338.709C315.556 333.813 309.022 332.682 305.329 337.318ZM315.935 342.877C317.741 344.734 319.082 346.776 320.698 349.993L321.146 350.901C321.59 351.814 323.188 355.215 323.401 355.662C324.393 357.742 325.259 359.461 326.22 361.219C328.724 365.797 331.625 370.136 335.383 374.706C336.477 376.036 337.478 377.41 338.39 378.825C341.663 383.903 343.701 389.338 344.734 394.855L344.834 395.407C345.155 397.236 345.345 398.94 345.434 400.481L345.446 400.727L326.554 393.829L323.671 386.925L319.719 377.355C317.764 372.6 315.581 367.261 313.163 361.314L312.779 360.371C308.61 350.115 308.142 343.416 310.021 341.057C310.967 339.87 313.293 340.236 315.731 342.669L315.935 342.877Z" fill="#2E186A"/>
<path fill-rule="evenodd" clip-rule="evenodd" d="M291.2 370.3C292.3 370.3 360.4 366.8 368.5 434.3L291.2 370.3Z" fill="white"/>
<path fill-rule="evenodd" clip-rule="evenodd" d="M306.147 368.229C314.848 369.466 323.443 371.828 331.506 375.599C353.434 385.852 367.973 404.726 371.479 433.943C371.676 435.588 370.502 437.081 368.857 437.279C367.212 437.476 365.719 436.302 365.521 434.657C362.271 407.569 349.073 390.436 328.965 381.034C321.482 377.535 313.451 375.328 305.302 374.17C300.162 373.439 295.828 373.22 292.327 373.275L291.2 373.3C289.543 373.3 288.2 371.957 288.2 370.3C288.2 368.702 289.449 367.396 291.024 367.305L291.716 367.285C295.604 367.196 300.417 367.415 306.147 368.229Z" fill="#2E186A"/>
<path fill-rule="evenodd" clip-rule="evenodd" d="M337.2 505C337.2 505 328.8 455.2 317.7 437.9C306.6 420.6 281.9 421.9 281.9 421.9C281.9 421.9 219.1 366.2 210 356.2C200.9 346.1 204.4 336.5 220.6 347.7C236.8 358.9 285.7 394.3 285.7 394.3C285.7 394.3 367.1 366.7 380.4 444.9L395.4 491.3L337.2 505Z" fill="white"/>
<path fill-rule="evenodd" clip-rule="evenodd" d="M203.446 342.119C200.437 345.981 202.52 352.38 207.771 358.208L208.132 358.598C211.967 362.7 222.7 372.701 238.558 387.078L243.392 391.453L248.249 395.835C254.258 401.248 260.511 406.853 266.786 412.457L279.909 424.144C280.445 424.62 281.132 424.886 281.844 424.899L282.289 424.888C284.018 424.84 286.387 424.93 289.158 425.276C293.343 425.798 297.47 426.801 301.298 428.387C307.2 430.833 311.94 434.478 315.175 439.52C318.911 445.343 322.703 455.749 326.338 469.308C328.459 477.218 330.397 485.707 332.11 494.197L332.631 496.813C332.854 497.949 333.065 499.047 333.264 500.103L333.843 503.238L334.242 505.499C334.53 507.207 336.201 508.317 337.887 507.92L396.087 494.22L396.261 494.174C397.861 493.696 398.775 491.988 398.255 490.377L383.319 444.178L383.358 444.397C377.78 411.602 360.186 393.834 334.592 388.353C321.48 385.544 307.558 386.208 294.215 389.001C291.93 389.479 289.834 389.988 287.955 390.502L286.792 390.828L286.242 390.989L276.655 384.062C272.286 380.909 267.912 377.756 263.616 374.664L248.497 363.804C236.659 355.323 227.609 348.898 222.306 345.232L221.561 344.726C213.292 339.195 206.693 337.951 203.446 342.119ZM210.213 345.819C212.293 346.255 215.11 347.599 218.486 349.888L220.681 351.409C224.714 354.22 230.374 358.229 237.37 363.223L249.296 371.76L254.641 375.599C257.649 377.761 260.715 379.967 263.809 382.196L283.941 396.73C284.728 397.3 285.743 397.453 286.663 397.141L287.225 396.961L287.857 396.768C288.082 396.701 288.32 396.632 288.572 396.56L288.959 396.45C290.867 395.914 293.043 395.376 295.444 394.873C308.036 392.238 321.162 391.612 333.335 394.219C356.565 399.195 372.283 415.068 377.442 445.403L377.486 445.615C377.504 445.685 377.523 445.754 377.545 445.823L391.544 489.125L339.599 501.352L339.16 498.992C338.807 497.119 338.417 495.117 337.992 493.01C336.255 484.406 334.29 475.799 332.134 467.754L331.72 466.227C328.059 452.847 324.239 442.535 320.225 436.28C316.277 430.126 310.561 425.73 303.594 422.844C299.227 421.034 294.587 419.907 289.901 419.322L289.326 419.253C287.236 419.012 285.354 418.901 283.753 418.88L283.012 418.876L272.492 409.508L267.367 404.929C262.819 400.862 258.304 396.813 253.908 392.857L244.746 384.588C227.374 368.863 215.653 357.954 212.219 354.181C208.698 350.273 207.519 346.653 208.179 345.806C208.19 345.792 208.231 345.767 208.403 345.727C208.798 345.636 209.407 345.65 210.213 345.819Z" fill="#2E186A"/>
<path fill-rule="evenodd" clip-rule="evenodd" d="M280.9 419.5C280.9 419.5 248.7 347.8 243.8 334.3C238.9 320.8 245.5 313.7 256.5 331.6C267.5 349.5 292.4 391 292.4 391" fill="white"/>
<path fill-rule="evenodd" clip-rule="evenodd" d="M242.829 318.5C247.488 316.135 253.08 320.441 258.81 329.633L260.547 332.461C262.472 335.607 264.771 339.383 267.394 343.708L274.663 355.719C278.092 361.397 281.701 367.385 285.349 373.446L294.972 389.457C295.825 390.877 295.364 392.72 293.943 393.573C292.575 394.394 290.816 393.997 289.926 392.698L289.812 392.517L281.303 378.36C278.381 373.503 275.475 368.678 272.656 364.006L261.213 345.088C258.338 340.352 255.891 336.339 253.944 333.171C251.495 329.186 249.226 326.418 247.333 324.931C246.683 324.421 246.134 324.108 245.723 323.969L245.591 323.93L245.548 323.918L245.502 324.02C245.328 324.41 245.202 325.016 245.167 325.799C245.085 327.643 245.513 330.089 246.458 332.819L246.62 333.277C248.274 337.833 253.22 349.486 260.556 366.252L264.784 375.883L268.338 383.931C270.444 388.692 272.601 393.553 274.775 398.436L283.637 418.271C284.315 419.783 283.64 421.558 282.129 422.237C280.618 422.916 278.842 422.241 278.163 420.729L272.651 408.409L268.193 398.402C265.826 393.081 263.486 387.802 261.219 382.666L255.857 370.48C248.017 352.588 242.754 340.212 240.98 335.324C238.153 327.536 238.456 320.721 242.829 318.5Z" fill="#2E186A"/>
<path fill-rule="evenodd" clip-rule="evenodd" d="M277.8 413.7C277.8 413.7 275.2 352.2 275.2 340.3C275.2 320.7 287 315.1 290 341.5C292 359.2 294.3 391.7 294.3 391.7" fill="white"/>
<path fill-rule="evenodd" clip-rule="evenodd" d="M280.985 320.69C287.192 319.664 291.334 327.329 292.927 340.7L292.981 341.163C293.157 342.717 293.338 344.414 293.524 346.246L293.686 347.849C294.066 351.683 294.464 356.015 294.875 360.754C295.404 366.867 295.93 373.375 296.432 379.919L296.996 387.409L297.293 391.488C297.409 393.141 296.165 394.576 294.512 394.692C292.918 394.805 291.527 393.652 291.325 392.087L291.303 391.843L290.725 383.987L290.299 378.423C289.894 373.211 289.476 368.045 289.055 363.111L288.636 358.297C288.378 355.381 288.124 352.641 287.878 350.104L287.556 346.856C287.371 345.044 287.192 343.369 287.019 341.839C286.346 335.916 285.195 331.509 283.772 328.824C283.221 327.786 282.678 327.104 282.221 326.767L282.085 326.672C281.998 326.615 281.972 326.609 281.965 326.61C281.863 326.627 281.636 326.765 281.315 327.12C280.822 327.663 280.321 328.513 279.874 329.625C278.817 332.256 278.2 335.968 278.2 340.3L278.207 341.484C278.252 345.951 278.527 354.991 278.978 367.465L279.341 377.238L279.498 381.347C279.64 385.034 279.787 388.784 279.937 392.541L280.797 413.573C280.867 415.229 279.582 416.627 277.927 416.697C276.33 416.765 274.973 415.572 274.815 414.003L274.773 413.132L274.396 404.027C274.193 399.066 273.99 394.022 273.793 389.025L273.345 377.465L272.792 362.329C272.412 351.407 272.2 343.762 272.2 340.3C272.2 329.698 275.453 321.605 280.985 320.69Z" fill="#2E186A"/>
<path fill-rule="evenodd" clip-rule="evenodd" d="M1204.1 405C1204.1 405 1202.3 388 1214.8 372.8C1227.3 357.6 1227.4 348 1234.4 340.8C1241.4 333.6 1252.5 336.9 1242.5 361.5C1232.5 386.1 1228.2 396.2 1228.2 396.2L1204.1 405Z" fill="white"/>
<path fill-rule="evenodd" clip-rule="evenodd" d="M1232.25 338.709C1229.86 341.164 1228.18 343.782 1226.21 347.771L1225.1 350.079C1224.49 351.361 1223.81 352.817 1223.68 353.078C1222.74 355.067 1221.92 356.691 1221.02 358.34C1218.69 362.596 1216 366.623 1212.48 370.895C1211.24 372.405 1210.1 373.966 1209.07 375.574C1205.35 381.343 1203.04 387.505 1201.87 393.75C1201.12 397.766 1200.92 401.311 1201.04 404.139L1201.06 404.558C1201.08 404.907 1201.1 405.162 1201.12 405.316C1201.32 407.256 1203.3 408.487 1205.13 407.818L1229.23 399.018C1230.01 398.734 1230.64 398.139 1230.96 397.375L1232.43 393.875L1235.43 386.677C1238.14 380.116 1241.42 372.132 1245.28 362.63C1250.19 350.554 1250.8 341.886 1247.17 337.351C1243.48 332.744 1236.97 333.855 1232.25 338.709ZM1242.48 341.099C1244.33 343.405 1243.9 349.906 1239.92 359.885L1236.06 369.358C1234.44 373.32 1232.95 376.957 1231.58 380.281L1228.61 387.443L1225.95 393.829L1207.05 400.727L1207.07 400.481C1207.16 398.786 1207.38 396.894 1207.77 394.855C1208.8 389.338 1210.84 383.903 1214.11 378.825C1215.02 377.41 1216.02 376.036 1217.12 374.706C1220.88 370.136 1223.78 365.797 1226.28 361.218C1227.13 359.656 1227.91 358.125 1228.77 356.342L1231.3 351.017L1231.8 349.993C1233.42 346.776 1234.76 344.736 1236.55 342.891C1239.07 340.301 1241.51 339.885 1242.48 341.099Z" fill="#2E186A"/>
<path fill-rule="evenodd" clip-rule="evenodd" d="M1261.3 370.3C1260.2 370.3 1192.1 366.8 1184 434.3L1261.3 370.3Z" fill="white"/>
<path fill-rule="evenodd" clip-rule="evenodd" d="M1246.35 368.229C1251.83 367.451 1256.48 367.216 1260.27 367.275L1261.3 367.3C1262.96 367.3 1264.3 368.643 1264.3 370.3C1264.3 371.898 1263.05 373.204 1261.48 373.295L1261.3 373.3C1261.23 373.3 1260.79 373.287 1260.65 373.284C1257.06 373.201 1252.57 373.406 1247.2 374.17C1239.05 375.328 1231.02 377.535 1223.54 381.034C1203.43 390.436 1190.23 407.569 1186.98 434.657C1186.78 436.302 1185.29 437.476 1183.64 437.279C1182 437.081 1180.82 435.588 1181.02 433.943C1184.53 404.726 1199.07 385.852 1220.99 375.599C1229.06 371.828 1237.65 369.466 1246.35 368.229Z" fill="#2E186A"/>
<path fill-rule="evenodd" clip-rule="evenodd" d="M1215.3 505C1215.3 505 1223.7 455.2 1234.8 437.9C1245.9 420.6 1270.6 421.9 1270.6 421.9C1270.6 421.9 1333.4 366.2 1342.5 356.2C1351.6 346.1 1348.1 336.5 1331.9 347.7C1315.7 358.9 1266.8 394.3 1266.8 394.3C1266.8 394.3 1185.4 366.7 1172.1 444.9L1157.1 491.3L1215.3 505Z" fill="white"/>
<path fill-rule="evenodd" clip-rule="evenodd" d="M1330.19 345.232L1326.36 347.908C1322.4 350.685 1317.25 354.337 1311.1 358.728L1299.71 366.885L1292.54 372.03C1288.91 374.646 1285.19 377.32 1281.46 380.013L1266.26 390.989L1265.44 390.752L1265.16 390.673C1263.13 390.102 1260.82 389.532 1258.29 389.001C1244.94 386.208 1231.02 385.544 1217.91 388.353L1217.14 388.521C1192.22 394.134 1175.01 411.573 1169.31 443.418L1169.18 444.178L1154.25 490.377C1153.71 492.045 1154.71 493.818 1156.41 494.22L1214.61 507.92C1216.3 508.317 1217.97 507.207 1218.26 505.499L1218.66 503.238L1219.09 500.887C1219.48 498.817 1219.91 496.575 1220.39 494.197C1222.1 485.707 1224.04 477.218 1226.16 469.308L1226.56 467.842C1230.07 454.998 1233.72 445.131 1237.32 439.52C1240.56 434.478 1245.3 430.833 1251.2 428.387C1255.03 426.801 1259.16 425.798 1263.34 425.276C1265.94 424.952 1268.18 424.852 1269.88 424.88L1270.44 424.896C1271.16 424.933 1271.86 424.714 1272.43 424.281L1272.66 424.086L1284 413.984L1289.13 409.401C1295.39 403.804 1301.59 398.239 1307.5 392.903L1316.03 385.187C1331.25 371.358 1341.39 361.875 1344.72 358.219C1349.98 352.38 1352.06 345.981 1349.05 342.119C1345.71 337.826 1338.81 339.275 1330.19 345.232ZM1344.1 345.727L1344.23 345.762C1344.29 345.783 1344.31 345.797 1344.32 345.806C1344.98 346.653 1343.8 350.273 1340.27 354.192L1339.81 354.694C1336.04 358.683 1325.38 368.608 1309.87 382.667L1305.09 387.001L1300.23 391.377C1294.78 396.292 1289.12 401.367 1283.43 406.455L1269.49 418.876L1269.18 418.876C1267.35 418.882 1265.11 419.009 1262.6 419.322C1257.91 419.907 1253.27 421.034 1248.91 422.844C1241.94 425.73 1236.22 430.126 1232.28 436.28C1228.11 442.771 1224.15 453.631 1220.37 467.754C1218.21 475.799 1216.24 484.406 1214.51 493.01L1213.98 495.659C1213.64 497.384 1213.33 499.025 1213.05 500.565L1212.9 501.352L1160.95 489.125L1174.95 445.823C1175 445.685 1175.03 445.545 1175.06 445.403C1180.22 415.068 1195.94 399.195 1219.16 394.219C1231.34 391.612 1244.46 392.238 1257.06 394.873C1259.22 395.326 1261.2 395.806 1262.96 396.289L1263.54 396.45C1263.94 396.561 1264.31 396.668 1264.64 396.768L1265.63 397.074C1265.73 397.104 1265.79 397.126 1265.84 397.141C1266.69 397.431 1267.63 397.319 1268.39 396.846L1269.61 395.969L1283.1 386.227C1288.08 382.631 1293.05 379.058 1297.86 375.599L1315.13 363.223C1323.23 357.441 1329.54 352.979 1333.61 350.168C1337.16 347.708 1340.12 346.273 1342.29 345.819C1343.09 345.65 1343.7 345.636 1344.1 345.727Z" fill="#2E186A"/>
<path fill-rule="evenodd" clip-rule="evenodd" d="M1271.6 419.5C1271.6 419.5 1303.8 347.8 1308.7 334.3C1313.5 320.8 1307 313.7 1296 331.6C1285 349.5 1260.1 391 1260.1 391" fill="white"/>
<path fill-rule="evenodd" clip-rule="evenodd" d="M1293.44 330.029C1299.27 320.556 1304.92 316.096 1309.64 318.503C1313.91 320.684 1314.29 327.292 1311.65 334.946L1311.52 335.324C1309.64 340.5 1303.85 354.07 1295.23 373.694L1293.21 378.301L1290.31 384.876C1287.36 391.529 1284.31 398.394 1281.25 405.259L1274.34 420.729C1273.66 422.24 1271.88 422.915 1270.37 422.237C1268.86 421.558 1268.18 419.782 1268.86 418.271L1274.37 405.963L1279.84 393.689C1281.86 389.144 1283.85 384.641 1285.79 380.243L1291.91 366.335C1299.26 349.525 1304.22 337.842 1305.87 333.295C1306.91 330.376 1307.38 327.754 1307.29 325.805C1307.26 325.105 1307.15 324.546 1307.01 324.156L1306.91 323.921L1306.89 323.929C1306.51 324.028 1305.99 324.299 1305.37 324.765L1305.16 324.928C1303.34 326.359 1301.17 328.979 1298.83 332.733L1298.56 333.171C1296.84 335.959 1294.74 339.401 1292.3 343.414L1282.97 358.821L1274.47 372.916L1262.67 392.543C1261.82 393.964 1259.98 394.425 1258.56 393.572C1257.19 392.752 1256.71 391.012 1257.44 389.616L1257.56 389.406L1263.86 378.913L1271.5 366.223L1282.51 348C1287 340.577 1290.71 334.478 1293.44 330.029Z" fill="#2E186A"/>
<path fill-rule="evenodd" clip-rule="evenodd" d="M1274.7 413.7C1274.7 413.7 1277.3 352.2 1277.3 340.3C1277.3 320.7 1265.5 315.1 1262.5 341.5C1260.5 359.2 1258.2 391.7 1258.2 391.7" fill="white"/>
<path fill-rule="evenodd" clip-rule="evenodd" d="M1259.52 341.161L1259.63 340.239C1261.26 327.154 1265.38 319.675 1271.51 320.69C1276.97 321.592 1280.21 329.472 1280.3 339.854L1280.3 340.871C1280.27 345.434 1279.96 355.683 1279.43 370.157L1279.05 380.193L1278.71 389.025C1278.56 392.773 1278.41 396.547 1278.26 400.293L1277.7 413.827C1277.63 415.482 1276.23 416.767 1274.57 416.697C1272.98 416.63 1271.72 415.327 1271.7 413.75L1271.73 412.88L1272.11 403.782L1272.56 392.541L1273.06 379.963L1273.68 363.006C1274.06 352.068 1274.28 344.304 1274.3 340.665L1274.3 340.3C1274.3 335.968 1273.68 332.256 1272.63 329.625C1272.18 328.513 1271.68 327.663 1271.19 327.12C1270.86 326.765 1270.64 326.627 1270.54 326.61L1270.51 326.615C1270.49 326.626 1270.42 326.663 1270.28 326.767C1269.82 327.104 1269.28 327.786 1268.73 328.824C1267.35 331.423 1266.23 335.633 1265.55 341.269L1265.48 341.837C1265.31 343.368 1265.13 345.044 1264.94 346.856L1264.62 350.104C1264.29 353.487 1263.95 357.229 1263.6 361.271C1263.13 366.754 1262.66 372.559 1262.2 378.423L1261.6 386.351L1261.19 391.912C1261.08 393.564 1259.64 394.809 1257.99 394.692C1256.34 394.576 1255.09 393.141 1255.21 391.488L1255.73 384.341L1255.92 381.883C1256.42 375.336 1256.94 368.788 1257.47 362.599L1257.97 356.794C1258.23 353.901 1258.49 351.188 1258.73 348.678L1258.98 346.246C1259.16 344.414 1259.34 342.717 1259.52 341.161Z" fill="#2E186A"/>
<path fill-rule="evenodd" clip-rule="evenodd" d="M1234 478.3C1235.3 463 1233.3 456.9 1233.3 456.9C1198.1 460.6 1169.9 427 1169.9 427C1169.9 427 1166.5 430.8 1157.1 443C1147.6 455.2 1129.7 441.4 1119 458.9C1110.4 473.1 1080 547.3 1068.6 575.2C1034.1 472.6 989.7 420.5 917.3 407.4C907.9 350.2 867.1 277.6 704.9 290.3C604.1 308.5 573.3 360.1 580.3 414.6H579.8C579.8 414.6 514.5 413.7 478 522.3C467.3 497.1 456.4 472.4 451.8 464.7C441.2 447.2 404.9 455 395.4 442.9C385.9 430.7 382.6 426.9 382.6 426.9C382.6 426.9 354.4 460.5 319.2 456.8C319.2 456.8 317.2 462.9 318.5 478.2C319.8 493.5 301.2 495.3 305.4 515.3C309.5 535.3 375.1 714.8 375.1 714.8C381.3 731.5 389.4 783.7 423.3 785.5C423.6 786.1 424 786.4 424.5 786.4C478.2 786.2 1134.7 786.8 1134.7 786.8C1134.7 786.8 1134.8 786.1 1134.8 784.7C1164 777.8 1171.6 730.5 1177.5 714.7C1177.5 714.7 1243 535.3 1247.2 515.2C1251.3 495.3 1232.7 493.6 1234 478.3Z" fill="#FE7624"/>
<path fill-rule="evenodd" clip-rule="evenodd" d="M1234.3 475.8C1236.8 459.8 1233.7 453.8 1233.7 453.8C1201.6 460.8 1171.9 424.2 1171.9 424.2C1171.9 424.2 1167.9 427.7 1158.3 441.2C1154.4 446.6 1150.5 447.2 1146.5 448.3C1159.8 491.7 1222.4 497.7 1244.2 498.3C1242.5 488.9 1232.4 488 1234.3 475.8Z" fill="#2E186A"/>
<path fill-rule="evenodd" clip-rule="evenodd" d="M318.1 475.9C315.6 459.9 318.8 453.8 318.8 453.8C350.9 460.8 380.6 424.2 380.6 424.2C380.6 424.2 385.4 424.7 395.1 438.2C399 443.6 405.6 448.2 409.6 449.3C396.3 492.7 329.5 498.6 307.7 499.1C309.3 489.8 320 488.1 318.1 475.9Z" fill="#2E186A"/>
<path fill-rule="evenodd" clip-rule="evenodd" d="M580 411.3C560.5 415.3 540.2 425.6 522.3 445.4C539 469.5 597.2 551.6 704.5 569C704.5 568.5 704.3 567.7 704 566.8C644.5 542.4 586.3 474.5 580 411.3Z" fill="#2E186A"/>
<path fill-rule="evenodd" clip-rule="evenodd" d="M917.3 407C921 429.2 920 449.2 919.5 461C917.8 499.9 900.4 527.1 889.4 546.5L888.6 566.4C934 555.7 969.6 471.7 975.7 430.4C959.6 421.5 956.7 415 917.3 407Z" fill="#2E186A"/>
<path fill-rule="evenodd" clip-rule="evenodd" d="M694.895 541.439C696.745 540.367 699.096 540.943 700.25 542.714L700.507 543.147L701.314 544.567C701.66 545.179 702.042 545.858 702.456 546.602L703.917 549.244C705.047 551.301 706.248 553.521 707.508 555.89L707.931 556.685C713.589 567.357 719.248 578.751 724.532 590.404C729.624 601.632 734.101 612.525 737.796 622.879C743.612 639.178 747.313 653.636 748.482 665.818C748.693 668.017 747.081 669.971 744.882 670.182C742.683 670.393 740.729 668.781 740.518 666.582C739.422 655.158 735.874 641.298 730.261 625.568C726.647 615.438 722.252 604.746 717.246 593.708C712.361 582.935 707.146 572.375 701.91 562.416L700.863 560.433C698.908 556.747 697.094 553.415 695.467 550.496L694.351 548.505L693.439 546.905C692.331 544.994 692.983 542.546 694.895 541.439Z" fill="#2E186A"/>
<path fill-rule="evenodd" clip-rule="evenodd" d="M883.76 536.443C885.824 537.01 887.063 539.094 886.606 541.16L885.884 543.897L885.269 546.291C884.95 547.549 884.614 548.898 884.264 550.331L884.088 551.055C882.226 558.717 880.364 567.094 878.627 575.908C875.627 591.122 873.321 606.005 871.982 619.937C870.503 635.329 870.269 648.944 871.477 660.276C871.712 662.472 870.121 664.443 867.924 664.677C865.727 664.911 863.757 663.321 863.523 661.124C862.25 649.186 862.492 635.057 864.019 619.172C865.386 604.951 867.731 589.816 870.778 574.361C872.435 565.952 874.205 557.937 875.981 550.545L876.314 549.166C876.795 547.187 877.251 545.356 877.676 543.689L878.237 541.518L878.843 539.24C879.428 537.11 881.63 535.857 883.76 536.443Z" fill="#2E186A"/>
<path fill-rule="evenodd" clip-rule="evenodd" d="M474.576 522.115C476.112 521.676 477.711 522.518 478.231 524.008L478.285 524.176C478.369 524.472 486.087 541.008 497.016 564.303L508.284 588.296L526.314 626.622C527.02 628.121 526.377 629.908 524.878 630.614C523.379 631.32 521.592 630.677 520.886 629.178L502.854 590.848L484.386 551.502C476.546 534.762 472.691 526.438 472.515 525.824C472.06 524.231 472.983 522.57 474.576 522.115Z" fill="#2E186A"/>
<path fill-rule="evenodd" clip-rule="evenodd" d="M1068.5 576.007C1069.32 574.57 1071.16 574.073 1072.59 574.898C1073.98 575.692 1074.49 577.421 1073.79 578.832L1073.7 578.993L1041 635.993C1040.18 637.43 1038.34 637.927 1036.91 637.102C1035.52 636.308 1035.01 634.579 1035.71 633.168L1035.8 633.007L1068.5 576.007Z" fill="#2E186A"/>
<path fill-rule="evenodd" clip-rule="evenodd" d="M616.847 704.704C618.502 704.785 619.778 706.193 619.696 707.847L619.639 708.792L619.538 710.186C619.509 710.562 619.476 710.959 619.44 711.375C619.202 714.14 618.867 717.218 618.418 720.53C617.134 730.002 615.195 739.478 612.459 748.351C608.81 760.182 604.014 770.038 597.857 777.269C590.351 786.083 581.043 790.691 569.966 790.197C568.311 790.123 567.029 788.722 567.103 787.066C567.177 785.411 568.578 784.129 570.234 784.203C587.293 784.964 599.202 770.979 606.725 746.583C609.354 738.057 611.229 728.893 612.472 719.724C612.868 716.804 613.172 714.075 613.398 711.596L613.463 710.86C613.503 710.394 613.539 709.955 613.57 709.544L613.7 707.621C613.702 707.595 613.703 707.573 613.704 707.553C613.782 705.957 615.094 704.714 616.671 704.7L616.847 704.704Z" fill="#2E186A"/>
<path fill-rule="evenodd" clip-rule="evenodd" d="M858.6 787C849.7 718.3 840.3 616.6 854.8 573.6C877.7 505.9 868.8 420.8 853.3 408.5C837.8 396.2 667.1 398.5 667.1 398.5L636.4 409.1C636.4 409.1 753.3 517.7 787.9 715.8C793.3 746.9 797 771.3 799.4 790.4" fill="white"/>
<path fill-rule="evenodd" clip-rule="evenodd" d="M693.7 341L691.2 384.3L665.7 401.9C665.7 401.9 732.5 448.2 792.2 517.2C792.2 517.2 828.9 491.3 837.4 409.2L818.2 406.2L726.2 351.7L693.7 341Z" fill="white"/>
<path fill-rule="evenodd" clip-rule="evenodd" d="M690.705 340.827L688.289 382.663L663.996 399.431C662.324 400.585 662.269 403.013 663.835 404.25L665.831 405.667L667.34 406.752C669.102 408.025 671.089 409.485 673.286 411.125L675.085 412.473C682.043 417.708 689.708 423.707 697.914 430.417C723.402 451.258 748.891 474.641 772.673 500.013C778.602 506.339 784.36 512.723 789.931 519.163C790.94 520.329 792.67 520.54 793.93 519.651L794.16 519.484C794.623 519.141 795.309 518.591 796.19 517.821C797.88 516.346 799.749 514.521 801.752 512.325C807.42 506.109 813.066 498.152 818.319 488.284C829.254 467.746 837.053 441.687 840.384 409.509L840.397 409.333C840.466 407.816 839.382 406.473 837.863 406.236L819.233 403.324L727.729 349.119C727.542 349.008 727.344 348.918 727.138 348.85L694.638 338.15C692.766 337.534 690.819 338.859 690.705 340.827ZM696.47 345.07L724.949 354.446L816.671 408.781L816.872 408.89C817.144 409.024 817.436 409.117 817.737 409.164L834.108 411.722L834.022 412.489C830.576 442.248 823.182 466.383 813.023 485.465C808.008 494.885 802.652 502.433 797.318 508.282L796.894 508.743C795.504 510.244 794.197 511.537 792.995 512.632L792.549 513.031L794.469 515.237C788.844 508.736 783.033 502.292 777.051 495.91C753.074 470.33 727.393 446.771 701.712 425.772L699.567 424.024C691.392 417.385 683.773 411.465 676.876 406.317L674.961 404.894C673.889 404.1 672.872 403.355 671.914 402.658L670.924 401.939L692.904 386.769C693.665 386.244 694.142 385.396 694.195 384.473L696.47 345.07Z" fill="#2E186A"/>
<path fill-rule="evenodd" clip-rule="evenodd" d="M664.8 261.9C664.8 261.9 625.4 267.3 636.6 302.4C647.8 337.5 689.1 311.6 689.1 311.6L677.4 261.2L664.8 261.9Z" fill="white"/>
<path fill-rule="evenodd" clip-rule="evenodd" d="M677.234 258.205L664.634 258.905C664.553 258.909 664.473 258.917 664.393 258.928L663.987 258.988C662.902 259.159 661.284 259.494 659.291 260.037C655.542 261.06 651.79 262.49 648.264 264.409C634.268 272.024 627.859 284.875 633.742 303.312C638.392 317.887 648.373 324.268 661.575 323.777C667.876 323.543 674.515 321.768 681.152 318.965C683.352 318.036 685.418 317.048 687.309 316.052L688.01 315.678C689.268 314.999 690.182 314.463 690.694 314.142C691.778 313.462 692.312 312.169 692.022 310.922L680.322 260.522C679.993 259.102 678.689 258.124 677.234 258.205ZM675.047 264.335L685.675 310.116L685.16 310.398C683.242 311.434 681.107 312.471 678.817 313.438C672.794 315.982 666.824 317.578 661.352 317.781C650.742 318.176 643.255 313.389 639.458 301.488C634.518 286.005 639.506 276.005 651.132 269.679C654.213 268.002 657.54 266.734 660.87 265.826C661.869 265.553 662.804 265.331 663.657 265.155L664.258 265.036L664.937 264.914L665.096 264.888L675.047 264.335Z" fill="#2E186A"/>
<path fill-rule="evenodd" clip-rule="evenodd" d="M758.6 121.7C768.9 119.6 839.7 106.6 854.4 166.2C869.1 225.8 868.3 293.5 865.2 324.8C862.1 356.1 723.9 358 715.9 356.2C707.9 354.4 697.6 346.3 697.6 346.3L668.3 255.6C668.3 255.6 647.8 144.3 758.6 121.7Z" fill="white"/>
<path fill-rule="evenodd" clip-rule="evenodd" d="M775.637 116.393C768.809 116.872 763.054 117.73 758.001 118.76C731.471 124.172 710.853 134.859 695.629 150.031C682.723 162.893 674.056 178.594 669.015 196.304C665.11 210.022 663.585 224.148 663.829 237.909C663.908 242.404 664.175 246.564 664.568 250.309L664.654 251.106C664.79 252.321 664.93 253.416 665.07 254.383L665.22 255.373C665.275 255.719 665.319 255.977 665.35 256.143C665.373 256.272 665.405 256.398 665.445 256.522L694.745 347.222C694.929 347.79 695.277 348.289 695.746 348.658L696.372 349.137L696.987 349.595C697.31 349.833 697.656 350.083 698.023 350.345C699.77 351.59 701.648 352.834 703.592 353.999C705.857 355.356 708.066 356.519 710.181 357.428C711.963 358.194 713.651 358.769 715.241 359.127C721.736 360.588 762.51 359.393 792.733 355.892L794.917 355.634C814.098 353.322 830.388 350.135 842.646 346.007L843.725 345.638C858.676 340.436 867.322 333.815 868.185 325.096C870 306.772 870.606 281.631 869.472 255.98C868.058 223.976 864.102 193.01 857.313 165.482C850.508 137.894 831.81 122.857 805.407 117.865C795.849 116.057 785.789 115.682 775.637 116.393ZM804.293 123.76C828.546 128.346 845.296 141.816 851.487 166.918C858.174 194.027 862.08 224.61 863.478 256.245C864.599 281.617 864.001 306.472 862.215 324.504C861.084 335.917 834.876 344.852 793.307 349.784L792.042 349.932C762.48 353.356 722.178 354.537 716.559 353.273C715.361 353.004 714.015 352.545 712.551 351.916C710.706 351.123 708.727 350.082 706.677 348.853C704.879 347.775 703.13 346.617 701.505 345.458L700.851 344.988L700.165 344.481L671.219 254.878L671.092 254.086L671.064 253.899C670.915 252.91 670.763 251.754 670.617 250.441C670.197 246.671 669.909 242.426 669.828 237.803C669.594 224.596 671.056 211.047 674.785 197.946C679.56 181.174 687.729 166.375 699.865 154.281C714.236 139.959 733.792 129.822 759.2 124.639C764.014 123.658 769.52 122.837 776.057 122.379C785.73 121.701 795.288 122.058 804.293 123.76Z" fill="#2E186A"/>
<path fill-rule="evenodd" clip-rule="evenodd" d="M681.2 253.3C688.6 259.2 710.6 295.5 717 312.9C717 312.9 759.1 292.7 821.7 284.3C821.7 284.3 856 281 870.1 283.5C870.1 283.5 874.4 347.3 850.4 383.4C826.4 419.5 766.7 417.3 737 400.8C707.2 384.3 701.6 375.4 692.8 355C684 334.6 658.2 257.8 658.2 257.8L681.2 253.3Z" fill="#968BB4"/>
<path fill-rule="evenodd" clip-rule="evenodd" d="M664.8 269C664.8 269 643 241.9 632.4 212.4C622.5 184.6 632.1 153.2 656.7 137.4C677.2 124.2 694.3 130.7 694.3 130.7C694.3 130.7 666.7 93.4002 697.4 54.1002C708.2 40.2002 724.3 31.4002 741.6 29.9002C784 26.2002 801.2 61.1002 801.2 61.1002C801.2 61.1002 837 -28.6998 935.4 10.5002C945.3 14.5002 957.5 27.3002 963.6 36.2002C1000.7 90.1002 907.3 169.8 855.3 181.3C798.2 193.9 763.3 188.1 743.1 175.9C757.9 182.9 752.2 272.5 664.8 269Z" fill="#2E186A"/>
<path fill-rule="evenodd" clip-rule="evenodd" d="M813.806 240.701C815.892 240.223 817.971 241.47 818.548 243.506L818.599 243.706L831.099 298.206C831.577 300.291 830.33 302.37 828.295 302.947L828.096 302.998L811.996 306.698C809.843 307.193 807.696 305.849 807.202 303.696C806.722 301.61 807.969 299.531 810.005 298.953L810.204 298.902L822.407 296.097L810.801 245.494C810.323 243.408 811.57 241.329 813.606 240.752L813.806 240.701Z" fill="#2E186A"/>
<path fill-rule="evenodd" clip-rule="evenodd" d="M836.075 266.528C839.149 266.184 841.203 261.99 840.663 257.16C840.123 252.33 837.194 248.693 834.12 249.037C831.046 249.381 828.993 253.575 829.532 258.405C830.072 263.235 833.002 266.872 836.075 266.528Z" fill="#2E186A"/>
<path fill-rule="evenodd" clip-rule="evenodd" d="M782.77 270.028C785.844 269.685 787.898 265.491 787.358 260.661C786.818 255.831 783.889 252.194 780.815 252.538C777.741 252.881 775.688 257.075 776.227 261.905C776.767 266.735 779.697 270.372 782.77 270.028Z" fill="#2E186A"/>
<path fill-rule="evenodd" clip-rule="evenodd" d="M784.421 226.501C786.63 226.457 788.456 228.212 788.499 230.421C788.67 239.092 783.249 244.913 774.714 248.267C771.974 249.344 769.081 250.097 766.194 250.593L765.519 250.705C764.101 250.93 762.973 251.048 762.245 251.092C760.04 251.228 758.143 249.55 758.008 247.345C757.876 245.207 759.45 243.358 761.556 243.125L762.097 243.079C762.218 243.068 762.364 243.053 762.534 243.035C763.224 242.96 764 242.853 764.838 242.709C767.225 242.298 769.606 241.679 771.789 240.821C777.421 238.608 780.465 235.419 780.502 230.871L780.501 230.579C780.457 228.37 782.212 226.544 784.421 226.501Z" fill="#2E186A"/>
<path fill-rule="evenodd" clip-rule="evenodd" d="M829.061 204.015C832.492 203.17 836.056 202.896 839.522 203.565C844.936 204.61 849.258 207.867 851.678 213.528C852.546 215.559 851.603 217.91 849.572 218.778C847.541 219.647 845.19 218.704 844.322 216.672C842.987 213.55 840.903 211.979 838.006 211.42C835.84 211.002 833.375 211.192 830.973 211.783C830.555 211.886 830.17 211.994 829.823 212.101L829.465 212.217L829.164 212.323C827.108 213.131 824.786 212.12 823.978 210.064C823.169 208.009 824.18 205.686 826.236 204.878C826.838 204.641 827.806 204.323 829.061 204.015Z" fill="#2E186A"/>
<path fill-rule="evenodd" clip-rule="evenodd" d="M809.112 324.158C801.575 325.666 793.528 326.078 785.54 325.703C778.605 325.426 772.644 330.313 775.4 336.007C779.499 344.679 788.154 349.575 801.945 347.98C815.616 346.378 821.923 340.177 821.903 331.638L821.899 331.343C821.9 326.146 815.418 323.035 809.394 324.105L809.112 324.158ZM814.717 330.505C815.216 330.739 815.584 331.008 815.789 331.255L815.9 331.4C816.005 336.88 812.163 340.741 801.251 342.021C790.201 343.298 784.013 339.907 780.946 333.694L780.812 333.418C780.733 333.254 780.765 333.151 781.214 332.783C782.068 332.083 783.579 331.63 785.28 331.698C793.699 332.092 802.216 331.656 810.288 330.042C811.829 329.734 813.485 329.929 814.717 330.505Z" fill="#2E186A"/>
<rect x="1147.77" y="784.773" width="307.403" height="72.6008" transform="rotate(179.728 1147.77 784.773)" fill="#2E186A"/>
<rect x="1143.02" y="766.305" width="135.002" height="39.0004" transform="rotate(179.728 1143.02 766.305)" fill="white"/>
<rect x="1002.36" y="766.951" width="12.6001" height="39.0004" transform="rotate(179.728 1002.36 766.951)" fill="#FE7624"/>
<path fill-rule="evenodd" clip-rule="evenodd" d="M908.8 732.3C899.577 732.3 892.1 739.777 892.1 749C892.1 758.223 899.577 765.7 908.8 765.7C918.023 765.7 925.5 758.223 925.5 749C925.5 739.777 918.023 732.3 908.8 732.3ZM908.8 738.3C914.709 738.3 919.5 743.09 919.5 749C919.5 754.909 914.709 759.7 908.8 759.7C902.891 759.7 898.1 754.909 898.1 749C898.1 743.09 902.891 738.3 908.8 738.3Z" fill="white"/>
<path fill-rule="evenodd" clip-rule="evenodd" d="M1110.68 730C1112.28 729.989 1113.59 731.229 1113.69 732.803L1113.7 732.979L1113.9 761.979C1113.91 763.636 1112.58 764.989 1110.92 765C1109.32 765.011 1108.01 763.771 1107.91 762.197L1107.9 762.021L1107.7 733.021C1107.69 731.364 1109.02 730.011 1110.68 730Z" fill="#FE7624"/>
<path fill-rule="evenodd" clip-rule="evenodd" d="M1095.89 730.1C1097.49 730.095 1098.8 731.339 1098.89 732.913L1098.9 733.09L1099 761.99C1099.01 763.647 1097.67 764.994 1096.01 765C1094.41 765.006 1093.1 763.761 1093.01 762.187L1093 762.01L1092.9 733.11C1092.89 731.454 1094.23 730.106 1095.89 730.1Z" fill="#FE7624"/>
<path fill-rule="evenodd" clip-rule="evenodd" d="M1080.99 730.2C1082.59 730.195 1083.9 731.439 1083.99 733.014L1084 733.19L1084.1 762.09C1084.11 763.747 1082.77 765.094 1081.11 765.1C1079.51 765.106 1078.2 763.861 1078.11 762.287L1078.1 762.111L1078 733.211C1077.99 731.554 1079.33 730.206 1080.99 730.2Z" fill="#FE7624"/>
<rect x="1183.35" y="716.481" width="290" height="76.3" transform="rotate(-180 1183.35 716.481)" fill="#2E186A"/>
<rect x="1158.63" y="694.024" width="135" height="39" transform="rotate(-180 1158.63 694.024)" fill="white"/>
<rect x="1017.97" y="694.024" width="12.6" height="39" transform="rotate(-180 1017.97 694.024)" fill="#FE7624"/>
<path fill-rule="evenodd" clip-rule="evenodd" d="M943.2 657.1C933.977 657.1 926.5 664.577 926.5 673.8C926.5 683.023 933.977 690.5 943.2 690.5C952.423 690.5 959.9 683.023 959.9 673.8C959.9 664.577 952.423 657.1 943.2 657.1ZM943.2 663.1C949.109 663.1 953.9 667.891 953.9 673.8C953.9 679.71 949.109 684.5 943.2 684.5C937.291 684.5 932.5 679.71 932.5 673.8C932.5 667.891 937.291 663.1 943.2 663.1Z" fill="white"/>
<path fill-rule="evenodd" clip-rule="evenodd" d="M1064.7 657.2C1066.3 657.2 1067.6 658.449 1067.69 660.024L1067.7 660.2V689.1C1067.7 690.757 1066.36 692.1 1064.7 692.1C1063.1 692.1 1061.8 690.851 1061.71 689.276L1061.7 689.1V660.2C1061.7 658.543 1063.04 657.2 1064.7 657.2Z" fill="#FE7624"/>
<path fill-rule="evenodd" clip-rule="evenodd" d="M1141.4 657.2C1143 657.2 1144.3 658.449 1144.39 660.024L1144.4 660.2V689.1C1144.4 690.757 1143.06 692.1 1141.4 692.1C1139.8 692.1 1138.5 690.851 1138.41 689.276L1138.4 689.1V660.2C1138.4 658.543 1139.74 657.2 1141.4 657.2Z" fill="#FE7624"/>
<path fill-rule="evenodd" clip-rule="evenodd" d="M1049.8 657.2C1051.4 657.2 1052.7 658.449 1052.79 660.024L1052.8 660.2V689.1C1052.8 690.757 1051.46 692.1 1049.8 692.1C1048.2 692.1 1046.9 690.851 1046.81 689.276L1046.8 689.1V660.2C1046.8 658.543 1048.14 657.2 1049.8 657.2Z" fill="#FE7624"/>
<path fill-rule="evenodd" clip-rule="evenodd" d="M1035 657.2C1036.6 657.2 1037.9 658.449 1037.99 660.024L1038 660.2V689.1C1038 690.757 1036.66 692.1 1035 692.1C1033.4 692.1 1032.1 690.851 1032.01 689.276L1032 689.1V660.2C1032 658.543 1033.34 657.2 1035 657.2Z" fill="#FE7624"/>
<rect x="1128.5" y="534.4" width="359.1" height="253.3" fill="#5D21D1"/>
<path fill-rule="evenodd" clip-rule="evenodd" d="M1333 532V789.2H1327V532H1333Z" fill="white"/>
<path fill-rule="evenodd" clip-rule="evenodd" d="M1444.2 559.4C1445.86 559.4 1447.2 560.743 1447.2 562.4C1447.2 563.998 1445.95 565.304 1444.38 565.395L1444.2 565.4H1281.7C1280.04 565.4 1278.7 564.057 1278.7 562.4C1278.7 560.802 1279.95 559.496 1281.52 559.405L1281.7 559.4H1444.2Z" fill="white"/>
<path fill-rule="evenodd" clip-rule="evenodd" d="M1484.4 650.4C1486.06 650.4 1487.4 651.743 1487.4 653.4C1487.4 654.998 1486.15 656.304 1484.58 656.395L1484.4 656.4H1380C1378.34 656.4 1377 655.057 1377 653.4C1377 651.802 1378.25 650.496 1379.82 650.405L1380 650.4H1484.4Z" fill="white"/>
<path fill-rule="evenodd" clip-rule="evenodd" d="M1469 735.3C1470.66 735.3 1472 736.643 1472 738.3C1472 739.897 1470.75 741.203 1469.18 741.295L1469 741.3H1265.4C1263.74 741.3 1262.4 739.957 1262.4 738.3C1262.4 736.702 1263.65 735.396 1265.22 735.305L1265.4 735.3H1469Z" fill="white"/>
<path fill-rule="evenodd" clip-rule="evenodd" d="M1293.9 627.7C1295.56 627.7 1296.9 629.043 1296.9 630.7C1296.9 632.298 1295.65 633.604 1294.08 633.695L1293.9 633.7H1188.7C1187.04 633.7 1185.7 632.357 1185.7 630.7C1185.7 629.103 1186.95 627.797 1188.52 627.705L1188.7 627.7H1293.9Z" fill="white"/>
<path fill-rule="evenodd" clip-rule="evenodd" d="M1192.7 587.9C1194.36 587.9 1195.7 589.243 1195.7 590.9C1195.7 592.498 1194.45 593.804 1192.88 593.895L1192.7 593.9H1128.9C1127.24 593.9 1125.9 592.557 1125.9 590.9C1125.9 589.302 1127.15 587.996 1128.72 587.905L1128.9 587.9H1192.7Z" fill="white"/>
<path fill-rule="evenodd" clip-rule="evenodd" d="M1253.3 704.9C1254.96 704.9 1256.3 706.243 1256.3 707.9C1256.3 709.498 1255.05 710.804 1253.48 710.895L1253.3 710.9H1128.5C1126.84 710.9 1125.5 709.557 1125.5 707.9C1125.5 706.302 1126.75 704.996 1128.32 704.905L1128.5 704.9H1253.3Z" fill="white"/>
<path fill-rule="evenodd" clip-rule="evenodd" d="M1128 591.3C1101.2 601.9 1128.8 619.5 1128.8 619.5C1128.8 619.5 1135.7 599.5 1171.1 591.3C1166.5 591.3 1128 591.3 1128 591.3Z" fill="#5D21D1"/>
<path fill-rule="evenodd" clip-rule="evenodd" d="M1171.1 588.3H1128C1127.62 588.3 1127.25 588.371 1126.9 588.51C1118.96 591.651 1114.51 595.794 1113.5 600.902C1112.44 606.313 1115.28 611.564 1120.45 616.604C1121.92 618.036 1123.48 619.349 1125.05 620.521L1125.5 620.859C1126.23 621.394 1126.81 621.789 1127.19 622.029C1128.77 623.04 1130.87 622.358 1131.57 620.647L1131.68 620.359C1131.75 620.182 1131.88 619.879 1132.09 619.463C1132.56 618.509 1133.18 617.429 1133.99 616.253C1136.35 612.82 1139.67 609.358 1144.13 606.1C1151.13 600.987 1160.25 596.893 1171.78 594.222C1175.25 593.417 1174.67 588.3 1171.1 588.3ZM1152.61 594.299L1152.43 594.384C1148.01 596.407 1144.08 598.71 1140.59 601.255C1135.57 604.92 1131.78 608.874 1129.05 612.858L1128.73 613.327C1128.42 613.794 1128.13 614.25 1127.86 614.695L1127.69 614.984L1127.48 614.813C1126.5 614.031 1125.55 613.192 1124.64 612.309C1120.79 608.551 1118.83 604.93 1119.39 602.062L1119.43 601.881C1120.04 599.294 1122.75 596.737 1128.31 594.412L1128.58 594.299H1152.61Z" fill="white"/>
<path fill-rule="evenodd" clip-rule="evenodd" d="M1488.7 653C1515.5 663.6 1487.9 681.2 1487.9 681.2C1487.9 681.2 1481 661.2 1445.6 653C1450.3 653.1 1488.7 653 1488.7 653Z" fill="#5D21D1"/>
<path fill-rule="evenodd" clip-rule="evenodd" d="M1488.69 650L1468.31 650.038L1448.44 650.027C1447.12 650.021 1446.18 650.012 1445.66 650.001C1442.06 649.924 1441.41 655.109 1444.92 655.923C1456.45 658.594 1465.57 662.688 1472.57 667.801C1477.03 671.058 1480.35 674.52 1482.71 677.954C1483.52 679.13 1484.14 680.21 1484.61 681.163L1484.77 681.492C1484.91 681.792 1485 682.007 1485.05 682.127L1485.06 682.179C1485.7 684.012 1487.88 684.773 1489.51 683.73L1489.91 683.472C1490.35 683.174 1490.95 682.753 1491.65 682.222C1493.22 681.049 1494.78 679.736 1496.25 678.304C1501.42 673.264 1504.26 668.013 1503.2 662.603C1502.19 657.494 1497.74 653.351 1489.8 650.21C1489.45 650.071 1489.07 649.999 1488.69 650ZM1488.12 656.001L1488.39 656.113C1494.07 658.491 1496.79 661.113 1497.31 663.762C1497.87 666.63 1495.91 670.251 1492.06 674.009L1491.51 674.533C1490.77 675.225 1490 675.888 1489.22 676.513L1489.01 676.684L1488.84 676.395C1488.48 675.802 1488.09 675.189 1487.65 674.558C1484.92 670.575 1481.13 666.62 1476.11 662.955L1475.58 662.575C1472.45 660.34 1468.96 658.297 1465.1 656.472L1464.18 656.042L1488.12 656.001Z" fill="white"/>
<path fill-rule="evenodd" clip-rule="evenodd" d="M1222.8 708.1C1222.8 708.1 1160.6 719.8 1162.1 756.5C1162.1 756.5 1112.2 738.2 1129 708.1H1222.8Z" fill="#5D21D1"/>
<path fill-rule="evenodd" clip-rule="evenodd" d="M1222.8 705.1H1129C1127.91 705.1 1126.91 705.688 1126.38 706.638C1121.42 715.523 1121.39 724.196 1125.56 732.259C1128.87 738.646 1134.63 744.351 1142.14 749.438C1146.28 752.243 1150.69 754.687 1155.11 756.765C1156.46 757.401 1157.73 757.963 1158.9 758.45L1159.39 758.654C1160.17 758.978 1160.75 759.199 1161.07 759.317C1163.07 760.053 1165.18 758.513 1165.1 756.378C1164.5 741.646 1175.17 729.921 1193.74 720.974C1200.21 717.854 1207.17 715.318 1214.14 713.327C1216.3 712.707 1218.33 712.18 1220.18 711.744L1221.54 711.431C1221.76 711.382 1221.97 711.337 1222.16 711.294L1223.35 711.048C1226.94 710.375 1226.44 705.1 1222.8 705.1ZM1201.67 711.1L1201.01 711.349C1197.65 712.62 1194.34 714.024 1191.13 715.568L1190.52 715.866C1172.42 724.723 1160.88 736.444 1159.27 751.473L1159.21 752.045L1158.73 751.831C1158.38 751.671 1158.03 751.506 1157.66 751.335C1153.51 749.382 1149.36 747.086 1145.5 744.471L1145.05 744.162C1130.95 734.467 1125.01 723.625 1130.64 711.489L1130.82 711.1H1201.67Z" fill="white"/>
<path fill-rule="evenodd" clip-rule="evenodd" d="M1689.1 783.4C1691.31 783.4 1693.1 785.191 1693.1 787.4C1693.1 789.542 1691.42 791.291 1689.3 791.395L1689.1 791.4H4.1C1.89086 791.4 0.0999985 789.609 0.0999985 787.4C0.0999985 785.258 1.78397 783.509 3.90036 783.405L4.1 783.4H1689.1Z" fill="#2E186A"/>
</svg>
