<svg width="1280" height="548" viewBox="0 0 1280 548" fill="none" xmlns="http://www.w3.org/2000/svg">
<path fill-rule="evenodd" clip-rule="evenodd" d="M932.6 57.5998H909C906.4 57.5998 902.9 56.9998 902.9 53.1998C902.9 49.3998 906 48.7998 909 48.7998H937.7C942.2 48.7998 943.7 50.2998 943.7 53.3998V56.2998C943.7 58.0998 943.1 59.2998 941.1 61.2998L911.4 89.5998H937.6C940.5 89.5998 943.7 90.1998 943.7 93.9998C943.7 97.8998 940.2 98.3998 937.6 98.3998H907C900.8 98.3998 900.5 95.7998 900.5 93.1998V90.8998C900.5 88.7998 900.6 88.0998 902.2 86.6998L932.6 57.5998Z" fill="#2E186A"/>
<path fill-rule="evenodd" clip-rule="evenodd" d="M1001.1 12H969.3C965.8 12 961.1 11.3 961.1 6C961.1 0.9 965.3 0 969.3 0H1008.1C1014.2 0 1016.2 2 1016.2 6.2V10.2C1016.2 12.6 1015.5 14.3 1012.7 16.9L972.7 55.1H1008C1012 55.1 1016.2 56 1016.2 61.1C1016.2 66.3 1011.5 67.1 1008 67.1H966.6C958.3 67.1 957.8 63.6 957.8 60.1V57C957.8 54.1 957.9 53.3 960 51.3L1001.1 12Z" fill="#2E186A"/>
<path fill-rule="evenodd" clip-rule="evenodd" d="M631.658 133.217C665.701 116.195 702.099 112.987 739.076 122.036C770.98 129.844 802.478 146.649 830.661 169.707L831.61 170.486L831.707 170.57L832.638 171.41C835.145 173.531 837.56 175.679 839.762 177.759L840.54 178.5L978.754 302.228L1032.79 294.328C1043.48 292.858 1050.26 305.41 1043.23 313.483L1043.01 313.726L927.965 439.347L928.145 439.466C937.076 445.397 944.279 453.707 948.862 463.664L949.139 464.276C961.574 492.096 950.22 525.096 923.313 539.446C898.481 552.703 868.116 546.099 850.765 524.711L850.373 524.221L830.025 546.713C829.503 547.289 828.781 547.638 828.011 547.692L827.8 547.7H717.8C716.143 547.7 714.8 546.357 714.8 544.7C714.8 543.102 716.049 541.796 717.624 541.705L717.8 541.7L826.469 541.699L848.375 517.487C849.628 516.103 851.811 516.194 852.95 517.634L853.064 517.788C868.107 539.443 897.051 546.665 920.488 534.153C944.618 521.284 954.809 491.664 943.661 466.723C939.071 456.442 931.393 448.08 921.812 442.605C920.197 441.682 919.813 439.542 920.963 438.118L921.088 437.974L1038.59 309.673C1042.12 305.824 1038.95 299.72 1033.85 300.243L1033.63 300.268L978.234 308.368C977.422 308.487 976.599 308.267 975.956 307.766L975.799 307.635L836.499 182.935L836.422 182.864C834.335 180.86 832.011 178.766 829.527 176.64L828.693 175.93L827.748 175.078L826.853 174.344C799.641 152.081 769.319 135.817 738.705 128.126L737.649 127.864C702.009 119.141 667.064 122.222 634.342 138.583C617.115 147.196 601.127 158.716 586.899 172.644C585.18 174.326 582.28 173.404 581.849 171.038C577.758 148.586 558.072 132 535 132C508.757 132 487.4 153.357 487.4 179.6C487.4 205.843 508.757 227.2 535 227.2C536.981 227.2 538.987 227.042 541.295 226.727C543.684 226.402 545.462 228.885 544.383 231.042C538.945 241.918 534.377 253.251 530.66 265.004C530.161 266.584 528.475 267.46 526.895 266.96C525.316 266.461 524.44 264.775 524.94 263.195C528.088 253.241 531.833 243.576 536.186 234.224L536.682 233.166L536.367 233.179L535.683 233.195L535 233.2C505.443 233.2 481.4 209.157 481.4 179.6C481.4 150.043 505.443 126 535 126C558.905 126 579.573 141.803 586.316 164.026L586.518 164.713L587.344 163.951C600.506 151.844 615.026 141.67 630.548 133.777L631.658 133.217Z" fill="#2E186A"/>
<path fill-rule="evenodd" clip-rule="evenodd" d="M534.9 151.3C519.143 151.3 506.4 164.043 506.4 179.8C506.4 195.524 519.21 208.3 534.9 208.3C550.657 208.3 563.4 195.557 563.4 179.8C563.4 164.043 550.657 151.3 534.9 151.3ZM534.9 157.3C547.343 157.3 557.4 167.357 557.4 179.8C557.4 192.243 547.343 202.3 534.9 202.3C522.521 202.3 512.4 192.207 512.4 179.8C512.4 167.357 522.457 157.3 534.9 157.3Z" fill="#2E186A"/>
<path fill-rule="evenodd" clip-rule="evenodd" d="M702.991 184.575C704.496 184.038 706.146 184.775 706.761 186.227L706.825 186.391C706.726 186.114 708.077 189.056 708.716 190.801C710.68 196.162 711.443 201.831 710.35 207.888C708.902 215.912 704.278 223.622 695.93 230.74C690.009 235.788 682.287 240.47 672.612 244.744C671.097 245.414 669.326 244.728 668.656 243.213C667.986 241.697 668.672 239.926 670.187 239.256C679.357 235.205 686.586 230.822 692.037 226.174C699.359 219.932 703.251 213.442 704.445 206.823C705.329 201.925 704.706 197.298 703.082 192.865L702.894 192.374C702.287 190.842 701.189 188.449 701.175 188.409C700.618 186.849 701.431 185.132 702.991 184.575Z" fill="#2E186A"/>
<path fill-rule="evenodd" clip-rule="evenodd" d="M778.619 146.965C779.08 145.374 780.744 144.457 782.335 144.919C783.926 145.38 784.843 147.044 784.381 148.635L784.272 148.994C783.967 149.951 783.423 151.356 782.598 153.075C781.058 156.282 779.032 159.485 776.453 162.481C765.786 174.871 749.425 179.911 726.781 173.486C725.187 173.034 724.262 171.375 724.714 169.781C725.166 168.187 726.825 167.262 728.419 167.714C748.799 173.497 762.753 169.198 771.906 158.566C774.119 155.995 775.866 153.234 777.189 150.478C777.649 149.519 778.022 148.635 778.314 147.849L778.474 147.406L778.619 146.965Z" fill="#2E186A"/>
<path fill-rule="evenodd" clip-rule="evenodd" d="M797 202.7C790.373 202.7 785 208.073 785 214.7C785 221.328 790.373 226.7 797 226.7C803.627 226.7 809 221.328 809 214.7C809 208.073 803.627 202.7 797 202.7ZM797 208.7C800.314 208.7 803 211.386 803 214.7C803 218.014 800.314 220.7 797 220.7C793.686 220.7 791 218.014 791 214.7C791 211.386 793.686 208.7 797 208.7Z" fill="#2E186A"/>
<path fill-rule="evenodd" clip-rule="evenodd" d="M921.888 437.373C923.007 436.152 924.905 436.069 926.127 437.188C927.301 438.264 927.423 440.06 926.436 441.283L926.312 441.426L852.012 522.526C850.893 523.748 848.995 523.831 847.773 522.712C846.599 521.636 846.477 519.84 847.464 518.617L847.588 518.473L921.888 437.373Z" fill="#2E186A"/>
<path fill-rule="evenodd" clip-rule="evenodd" d="M961.2 270.6L928.9 246.2C938.2 239.3 944.8 228.8 946.3 216.4C946.6 213.4 946.7 210.5 946.4 207.6C954.3 205.4 960.4 198.7 961.4 190.1C962.7 178.8 954.6 168.6 943.3 167.2C936.3 166.4 929.7 169.2 925.3 174.2C920.2 171.2 914.5 169.2 908.2 168.4C902.4 167.7 896.8 168.2 891.5 169.7C888.4 164.2 882.8 160.1 876 159.3C864.7 158 854.5 166.1 853.1 177.4C852.2 185.4 856 192.9 862.3 197.1C861.3 200 860.5 203.1 860.2 206.4C858.7 219.2 862.9 231.2 870.8 240.2C870.6 240.4 870.4 240.7 870.2 240.9L833.1 251.1C826.3 253 822.4 260 824.2 266.7C825.3 270.7 828.2 273.7 831.8 275.1C859.9 265.9 883.9 258 888.9 256.1C902.3 251.2 924.6 261.6 913.4 275.9C905.7 285.8 862.5 324.9 836.7 348C832.5 357.5 836.7 368.6 846.2 372.8C855.7 377 866.8 372.8 871 363.3L880.3 342.4C882.6 343.3 884.9 343.9 887.4 344.2C890.3 344.5 893.2 344.4 896.1 343.8L898.2 365.5C899.2 375.8 908.4 383.4 918.7 382.4C929 381.4 936.6 372.2 935.6 361.9L930.3 307.2C932.2 301.7 933.5 295.7 934.2 289.5C934.5 287.2 934.6 285 934.7 282.8L945.5 290.9C951.1 295.1 959.1 294 963.3 288.4C967.9 282.8 966.8 274.8 961.2 270.6Z" fill="#FE7624"/>
<path fill-rule="evenodd" clip-rule="evenodd" d="M889.288 253.276C896.718 250.614 906.617 251.953 913.398 256.314C921.389 261.453 923.453 269.717 917.169 277.74C909.955 287.027 873.752 320.341 831.292 358.043C830.053 359.143 828.157 359.031 827.057 357.792C825.957 356.553 826.069 354.657 827.308 353.556L832.3 349.118C872.007 313.77 905.85 282.531 912.438 274.05C916.408 268.981 915.337 264.695 910.152 261.36C904.902 257.984 896.942 256.907 891.32 258.921L890.479 259.22C880.027 262.895 825.14 280.946 761.431 301.752C759.856 302.266 758.163 301.406 757.648 299.831C757.134 298.256 757.994 296.562 759.569 296.048L809.849 279.598C851.974 265.788 883.581 255.34 889.288 253.276Z" fill="#2E186A"/>
<path fill-rule="evenodd" clip-rule="evenodd" d="M510.246 261.613C575.3 260.165 632.382 268.172 666.753 285.522L668.473 286.398C693.545 299.247 724.365 318.878 759.058 343.439C784.892 361.727 810.48 381.03 834.151 399.639C844.232 407.543 845.647 422.227 837.296 431.904L815.787 456.221L812.758 459.619C804.116 469.295 796.365 477.792 788.687 485.952L786.173 488.614C779.921 495.21 773.921 501.353 768.136 507.062L766.563 508.609C748.025 526.77 732.204 539.919 719.289 547.304C717.851 548.127 716.018 547.627 715.196 546.189C714.373 544.751 714.873 542.918 716.311 542.096C729.033 534.821 745.045 521.418 763.921 502.792C770.04 496.754 776.407 490.22 783.066 483.169L784.317 481.84C792.25 473.41 800.268 464.61 809.283 454.502L820.286 442.084C825.484 436.202 831.015 429.938 832.562 428.202C838.89 421.115 837.908 410.209 830.446 404.358C807.688 386.467 783.153 367.933 758.349 350.292L755.592 348.336C720.322 323.368 689.106 303.542 664.048 290.878C630.749 274.068 574.536 266.184 510.379 267.612C451.859 268.914 393.99 278.014 361.205 290.989C338.231 300.09 307.638 318.425 271.987 343.479C246.026 361.725 219.725 381.862 195.874 401.143C188.701 406.881 187.673 417.447 193.595 424.468C214.572 449.379 237.222 473.91 259.22 494.168C289.33 521.897 314.205 537.7 330.8 537.7C332.457 537.7 333.8 539.043 333.8 540.7C333.8 542.357 332.457 543.7 330.8 543.7C312.14 543.7 286.373 527.33 255.155 498.582C232.939 478.123 210.132 453.421 189.007 428.334C180.913 418.737 182.316 404.305 192.114 396.467C216.05 377.118 242.452 356.903 268.538 338.57L270.692 337.06C305.779 312.527 335.946 294.541 358.996 285.41C392.542 272.134 451.075 262.93 510.246 261.613Z" fill="#2E186A"/>
<path fill-rule="evenodd" clip-rule="evenodd" d="M314.011 392.245C300.843 392.245 288.47 396.951 277.243 404.759C273.338 407.475 269.85 410.382 266.82 413.294C265.888 414.189 265.056 415.031 264.329 415.804L264.023 416.131C263.534 416.658 263.193 417.045 263.005 417.268C262.065 418.384 262.065 420.016 263.005 421.132L263.243 421.409C263.436 421.628 263.696 421.917 264.021 422.267C264.817 423.126 265.75 424.078 266.813 425.1C269.839 428.006 273.321 430.908 277.221 433.619C288.435 441.413 300.799 446.111 313.967 446.111C330.876 446.111 347.649 438.278 363.777 421.264C364.873 420.108 364.874 418.298 363.781 417.14C347.683 400.093 330.922 392.245 314.011 392.245ZM314.529 398.247C328.678 398.398 342.845 404.747 356.846 418.623L357.42 419.195L357.371 419.245C343 433.632 328.467 440.111 313.967 440.111C302.168 440.111 290.932 435.842 280.646 428.692C277.02 426.173 273.778 423.471 270.97 420.773L270.609 420.424C270.373 420.193 270.144 419.968 269.923 419.747L269.384 419.199L269.603 418.977L270.266 418.313C270.495 418.087 270.732 417.856 270.977 417.62C273.79 414.917 277.038 412.21 280.668 409.685C290.969 402.522 302.213 398.245 314.011 398.245L314.529 398.247Z" fill="#2E186A"/>
<path fill-rule="evenodd" clip-rule="evenodd" d="M373.6 431.6C380.062 431.6 385.3 426.048 385.3 419.2C385.3 412.351 380.062 406.8 373.6 406.8C367.138 406.8 361.9 412.351 361.9 419.2C361.9 426.048 367.138 431.6 373.6 431.6Z" fill="#2E186A"/>
<path fill-rule="evenodd" clip-rule="evenodd" d="M435.267 392.245C422.098 392.245 409.733 396.951 398.519 404.761C394.619 407.476 391.137 410.384 388.111 413.296C387.048 414.319 386.115 415.273 385.319 416.133L384.756 416.751C384.559 416.972 384.408 417.146 384.303 417.27C383.365 418.387 383.366 420.017 384.305 421.132L384.543 421.409C384.736 421.628 384.996 421.917 385.321 422.267C386.117 423.126 387.05 424.078 388.113 425.1C391.139 428.006 394.621 430.908 398.521 433.619C409.735 441.413 422.099 446.111 435.267 446.111C452.176 446.111 468.949 438.278 485.077 421.264C486.174 420.108 486.174 418.296 485.079 417.138C468.951 400.093 452.177 392.245 435.267 392.245ZM435.785 398.247C449.935 398.398 464.115 404.748 478.143 418.625L478.718 419.197L478.671 419.245C464.3 433.632 449.767 440.111 435.267 440.111C423.468 440.111 412.232 435.842 401.946 428.692C398.32 426.173 395.078 423.471 392.27 420.773L391.909 420.424C391.673 420.193 391.444 419.968 391.223 419.747L390.682 419.197L390.9 418.975C391.325 418.542 391.783 418.089 392.272 417.619C395.08 414.916 398.323 412.209 401.948 409.684C412.234 402.521 423.469 398.245 435.267 398.245L435.785 398.247Z" fill="#2E186A"/>
<path fill-rule="evenodd" clip-rule="evenodd" d="M494.9 431.6C501.362 431.6 506.6 426.048 506.6 419.2C506.6 412.351 501.362 406.8 494.9 406.8C488.438 406.8 483.2 412.351 483.2 419.2C483.2 426.048 488.438 431.6 494.9 431.6Z" fill="#2E186A"/>
<path fill-rule="evenodd" clip-rule="evenodd" d="M555.311 392.245C542.143 392.245 529.77 396.951 518.543 404.759C514.638 407.475 511.15 410.382 508.12 413.294C507.188 414.189 506.356 415.031 505.629 415.804L505.323 416.131C504.834 416.658 504.493 417.045 504.305 417.268C503.365 418.384 503.365 420.016 504.305 421.132L504.543 421.409C504.736 421.628 504.996 421.917 505.321 422.267C506.117 423.126 507.05 424.078 508.113 425.1C511.139 428.006 514.621 430.908 518.521 433.619C529.735 441.413 542.099 446.111 555.267 446.111C572.176 446.111 588.949 438.278 605.077 421.264C606.173 420.108 606.174 418.298 605.081 417.14C588.983 400.093 572.222 392.245 555.311 392.245ZM555.829 398.247C569.978 398.398 584.145 404.747 598.146 418.623L598.72 419.195L598.671 419.245C584.3 433.632 569.767 440.111 555.267 440.111C543.468 440.111 532.232 435.842 521.946 428.692C518.32 426.173 515.078 423.471 512.27 420.773L511.909 420.424C511.673 420.193 511.444 419.968 511.223 419.747L510.684 419.199L510.903 418.977L511.566 418.313C511.795 418.087 512.032 417.856 512.277 417.62C515.09 414.917 518.338 412.21 521.968 409.685C532.269 402.522 543.513 398.245 555.311 398.245L555.829 398.247Z" fill="#2E186A"/>
<path fill-rule="evenodd" clip-rule="evenodd" d="M614.9 431.6C621.362 431.6 626.6 426.048 626.6 419.2C626.6 412.351 621.362 406.8 614.9 406.8C608.438 406.8 603.2 412.351 603.2 419.2C603.2 426.048 608.438 431.6 614.9 431.6Z" fill="#2E186A"/>
<path fill-rule="evenodd" clip-rule="evenodd" d="M675.311 392.245C662.143 392.245 649.77 396.951 638.543 404.759C634.638 407.475 631.15 410.382 628.12 413.294C627.188 414.189 626.356 415.031 625.629 415.804L625.323 416.131C624.834 416.658 624.493 417.045 624.305 417.268C623.365 418.384 623.365 420.016 624.305 421.132L624.543 421.409C624.736 421.628 624.996 421.917 625.321 422.267C626.117 423.126 627.05 424.078 628.113 425.1C631.139 428.006 634.621 430.908 638.521 433.619C649.735 441.413 662.099 446.111 675.267 446.111C692.176 446.111 708.949 438.278 725.077 421.264C726.173 420.108 726.174 418.298 725.081 417.14C708.983 400.093 692.222 392.245 675.311 392.245ZM675.829 398.247C689.978 398.398 704.145 404.747 718.146 418.623L718.72 419.195L718.671 419.245C704.3 433.632 689.767 440.111 675.267 440.111C663.468 440.111 652.232 435.842 641.946 428.692C638.32 426.173 635.078 423.471 632.27 420.773L631.909 420.424C631.673 420.193 631.444 419.968 631.223 419.747L630.684 419.199L630.903 418.977L631.566 418.313C631.795 418.087 632.032 417.856 632.277 417.62C635.09 414.917 638.338 412.21 641.968 409.685C652.269 402.522 663.513 398.245 675.311 398.245L675.829 398.247Z" fill="#2E186A"/>
<path fill-rule="evenodd" clip-rule="evenodd" d="M1276.3 541.7C1277.96 541.7 1279.3 543.043 1279.3 544.7C1279.3 546.298 1278.05 547.604 1276.48 547.695L1276.3 547.7H3.9C2.24315 547.7 0.900002 546.357 0.900002 544.7C0.900002 543.103 2.14892 541.797 3.72373 541.705L3.9 541.7H1276.3Z" fill="#2E186A"/>
</svg>
