<svg width="1379" height="785" viewBox="0 0 1379 785" fill="none" xmlns="http://www.w3.org/2000/svg">
<path fill-rule="evenodd" clip-rule="evenodd" d="M478.6 561.599L467.68 658.889C467.68 658.889 408.25 723.649 353.68 743.889C281.33 770.669 254.73 732.399 285.24 664.419L353.68 548.419L399.68 500.189L478.68 536.299" fill="white"/>
<path fill-rule="evenodd" clip-rule="evenodd" d="M397.509 498.119C398.345 497.242 399.621 496.959 400.742 497.384L400.927 497.461L479.927 533.571C481.434 534.26 482.097 536.04 481.408 537.547C480.744 539 479.066 539.668 477.595 539.097L477.433 539.028L400.375 503.806L356.088 550.24L287.909 665.798L287.543 666.622C273.486 698.387 272.159 723.556 282.89 737.385L283.222 737.805C294.571 751.865 318.753 753.619 352.637 741.077C356.595 739.609 360.657 737.872 364.814 735.878C381.173 728.033 398.632 716.418 416.571 702.034C428.898 692.149 440.718 681.551 451.607 670.954L453.11 669.485L454.571 668.045L455.989 666.637L457.363 665.261L458.693 663.918L459.977 662.61L461.215 661.338L462.932 659.554L464.245 658.172L464.808 657.571L475.619 561.265C475.797 559.677 477.184 558.519 478.759 558.604L478.935 558.618C480.522 558.796 481.681 560.183 481.596 561.758L481.581 561.934L470.661 659.224C470.59 659.856 470.32 660.449 469.89 660.918L468.914 661.966L467.966 662.969L466.905 664.081L465.525 665.512L464.269 666.802C464.056 667.02 463.841 667.24 463.624 667.461L462.3 668.804C462.075 669.031 461.849 669.259 461.621 669.489L460.229 670.883L458.793 672.309L457.314 673.766L455.792 675.254C444.773 685.977 432.814 696.7 420.324 706.715C402.057 721.363 384.235 733.219 367.408 741.288C363.09 743.359 358.86 745.168 354.721 746.703C281.394 773.845 250.19 735.188 282.503 663.191L282.575 663.041L282.656 662.895L351.096 546.895C351.174 546.764 351.261 546.638 351.358 546.52L351.509 546.349L397.509 498.119Z" fill="#2E186A"/>
<path fill-rule="evenodd" clip-rule="evenodd" d="M870.26 465.809C870.26 465.809 953 527.269 1004.08 629.459C1037.28 700.229 901.54 697.379 805.83 686.879C744.16 649.489 744.51 636.699 744.51 636.699L870.26 465.809Z" fill="white"/>
<path fill-rule="evenodd" clip-rule="evenodd" d="M867.844 464.031L742.094 634.921C741.776 635.352 741.581 635.859 741.526 636.388L741.51 636.659C741.497 637.602 741.79 638.77 742.469 640.184L742.685 640.616C742.723 640.689 742.762 640.763 742.801 640.838L743.053 641.292C743.316 641.753 743.616 642.238 743.955 642.745L744.306 643.261L744.685 643.792C744.75 643.882 744.816 643.972 744.884 644.063L745.302 644.618C745.518 644.899 745.745 645.187 745.982 645.48L746.47 646.075C746.554 646.176 746.639 646.277 746.725 646.379L747.257 646.998C747.348 647.103 747.44 647.208 747.534 647.314L748.11 647.959C748.209 648.067 748.309 648.177 748.41 648.287L749.031 648.956C749.138 649.069 749.245 649.183 749.354 649.298L750.022 649.992L750.636 650.617L751.269 651.249L751.923 651.889L752.596 652.537L753.289 653.192L754.002 653.855C754.122 653.966 754.244 654.077 754.366 654.189L755.109 654.864L755.873 655.546L756.657 656.236L757.462 656.934L758.288 657.639L759.134 658.353L760.001 659.074L760.889 659.804L761.798 660.541L762.728 661.286L763.68 662.039L764.652 662.8L765.647 663.569L766.663 664.346L767.7 665.131L768.759 665.924L769.841 666.725L770.944 667.535L772.069 668.352L773.216 669.178L774.386 670.012L775.578 670.854L777.408 672.132L778.657 672.994L779.928 673.865L781.222 674.744L783.206 676.078L785.242 677.431L787.33 678.803L789.471 680.193L791.665 681.603L793.912 683.032L796.213 684.479L797.777 685.455L800.168 686.935L802.614 688.434L804.275 689.444C804.649 689.671 805.068 689.813 805.503 689.861L809.052 690.245L812.583 690.616L816.095 690.975L819.589 691.321L823.064 691.654L826.519 691.974C827.093 692.026 827.666 692.078 828.239 692.129L831.664 692.429L835.069 692.716L838.454 692.99C839.016 693.034 839.577 693.078 840.138 693.121L843.49 693.375C844.047 693.416 844.603 693.456 845.159 693.496L848.478 693.729L851.776 693.948L855.051 694.153L858.304 694.344L861.533 694.521L864.738 694.684C865.27 694.71 865.801 694.735 866.332 694.76L869.501 694.901L872.646 695.028C873.168 695.048 873.689 695.067 874.209 695.086L877.316 695.191C906.714 696.119 932.669 695.055 953.78 691.606C976.498 687.894 993.065 681.478 1002.69 671.888C1013.67 660.941 1015.26 646.227 1006.8 628.185C993.516 601.615 977.459 576.403 959.202 552.589C940.159 527.748 919.758 505.72 899.353 486.744L897.578 485.1C897.283 484.829 896.99 484.559 896.698 484.291L894.955 482.701C894.666 482.439 894.378 482.179 894.092 481.92L892.383 480.383L890.697 478.883C890.418 478.636 890.14 478.39 889.863 478.146L888.214 476.7L886.59 475.291C886.053 474.827 885.52 474.369 884.991 473.917L883.419 472.58C883.159 472.36 882.9 472.142 882.642 471.925L881.11 470.643L879.605 469.398L878.579 468.557L877.114 467.368L875.739 466.266L874.456 465.253L873.257 464.32L872.049 463.401C870.715 462.409 868.829 462.692 867.844 464.031ZM747.791 637.302L870.858 470.057L871.627 470.663L872.593 471.433L873.611 472.251L874.677 473.117L875.792 474.031L877.274 475.257L878.784 476.52L880.32 477.82L881.883 479.155L883.472 480.527L885.086 481.936L886.725 483.38C887 483.623 887.276 483.869 887.553 484.115L889.228 485.613C889.509 485.866 889.791 486.12 890.074 486.376L891.783 487.927L893.514 489.515C894.095 490.05 894.679 490.59 895.267 491.137C915.438 509.896 935.613 531.681 954.441 556.239C972.475 579.763 988.328 604.654 1001.4 630.8C1015.51 660.88 998.033 678.296 952.812 685.684L951.717 685.86C937.341 688.133 920.655 689.3 902.128 689.483L899.335 689.503C896.528 689.516 893.681 689.507 890.794 689.476L887.895 689.438C885.953 689.408 883.994 689.368 882.018 689.319L879.042 689.239C878.046 689.21 877.045 689.178 876.041 689.144L873.015 689.036L869.966 688.914C869.456 688.892 868.945 688.87 868.432 688.847L865.347 688.705C864.831 688.68 864.314 688.654 863.796 688.628L860.677 688.465L857.534 688.288C857.009 688.258 856.482 688.227 855.955 688.195L852.779 687.998C852.248 687.965 851.716 687.93 851.183 687.895L847.975 687.679L844.745 687.449L841.495 687.207L838.224 686.952C837.677 686.908 837.13 686.864 836.581 686.819L833.28 686.545L829.959 686.257C829.404 686.208 828.848 686.159 828.291 686.109L824.942 685.803L821.573 685.485C821.01 685.431 820.447 685.376 819.882 685.321L816.486 684.984L813.072 684.635C812.502 684.576 811.931 684.516 811.359 684.456L807.919 684.089L806.816 683.968L804.137 682.332L802.549 681.354L800.986 680.385L798.686 678.948L797.182 678.001L794.972 676.596L793.528 675.67L791.406 674.298L789.337 672.945L787.986 672.053L786.004 670.732L784.712 669.862L783.442 669L782.195 668.147L780.971 667.302L779.77 666.466L778.591 665.638L776.864 664.412L775.188 663.205L773.562 662.017L771.985 660.847L770.457 659.696L769.465 658.939L768.495 658.19C768.336 658.066 768.177 657.942 768.019 657.819L767.081 657.083L766.165 656.354L765.269 655.635L764.395 654.923L763.543 654.219L762.711 653.524L761.502 652.496L760.721 651.821L759.962 651.154L759.223 650.495L758.504 649.844L757.806 649.201L757.128 648.566L756.47 647.94L755.832 647.321L755.213 646.71L754.615 646.107L754.323 645.809C754.088 645.567 753.86 645.329 753.638 645.095L752.99 644.402C752.886 644.289 752.783 644.176 752.681 644.064L752.09 643.404C751.709 642.971 751.352 642.552 751.019 642.147L750.538 641.551L750.091 640.976C749.948 640.788 749.811 640.603 749.68 640.422L749.302 639.889L748.957 639.377C748.629 638.876 748.35 638.406 748.117 637.967L748.003 637.747L747.87 637.475L747.791 637.302Z" fill="#2E186A"/>
<path fill-rule="evenodd" clip-rule="evenodd" d="M821.597 607.128C855.848 589.986 895.047 586.99 931.515 600.836C933.064 601.424 933.843 603.157 933.255 604.706C932.667 606.254 930.934 607.033 929.385 606.445C894.541 593.216 857.08 596.079 824.283 612.493C822.801 613.235 820.999 612.635 820.257 611.153C819.516 609.672 820.116 607.869 821.597 607.128Z" fill="#2E186A"/>
<path fill-rule="evenodd" clip-rule="evenodd" d="M404.889 628.592C405.182 630.162 404.193 631.675 402.662 632.053L400.082 632.56L397.801 633.023L396.04 633.39L394.22 633.777L392.343 634.183L390.413 634.609L388.431 635.054L386.399 635.518C386.057 635.597 385.712 635.677 385.366 635.758C372.503 638.751 359.642 642.22 347.655 646.122L346.735 646.423L344.913 647.027L343.118 647.634L341.349 648.245L339.606 648.858L337.89 649.475L336.201 650.095C335.921 650.198 335.643 650.302 335.366 650.406L333.719 651.03C333.174 651.238 332.634 651.447 332.099 651.657L330.508 652.287C329.194 652.813 327.91 653.342 326.657 653.874L325.167 654.513C318.041 657.612 311.963 660.806 307.106 664.079C305.732 665.005 303.868 664.642 302.942 663.268C302.016 661.894 302.38 660.029 303.754 659.103C309.715 655.086 317.279 651.239 326.204 647.558L327.842 646.89C328.117 646.779 328.394 646.668 328.672 646.558L330.354 645.896L332.065 645.237C333.791 644.581 335.56 643.93 337.371 643.284L339.196 642.641L341.049 642.001C341.36 641.894 341.672 641.788 341.985 641.682L343.878 641.047C344.514 640.836 345.154 640.626 345.798 640.416C357.967 636.456 370.988 632.943 384.006 629.914L386.085 629.434C386.427 629.356 386.768 629.279 387.106 629.202L389.111 628.752L391.065 628.321L392.964 627.91L395.705 627.33L398.473 626.763L400.853 626.294L401.391 626.192C403.019 625.888 404.586 626.963 404.889 628.592Z" fill="#2E186A"/>
<path fill-rule="evenodd" clip-rule="evenodd" d="M757 381.87C811.63 398.53 889 478.06 889 478.06L800.8 572.62L822.94 626.14L782.71 674.85L800.58 781.77L454 783.21L482 655.76L337 567.19L405.29 458.56C405.29 458.56 423.46 424.69 483.15 410.79C531.33 399.56 704.68 365.9 757 381.87Z" fill="#5D21D1"/>
<path fill-rule="evenodd" clip-rule="evenodd" d="M656.5 359.651L655.58 384.001L676 382.571C683.83 387.411 695.91 465.421 622.76 481.131C566.12 493.291 538.86 435.941 530.94 403.071L553.39 397.311L570.21 300.641L656.5 359.651Z" fill="white"/>
<path fill-rule="evenodd" clip-rule="evenodd" d="M567.254 300.125L550.766 394.885L530.194 400.164C528.606 400.571 527.639 402.178 528.023 403.772C532.994 424.401 542.863 445.656 556.327 460.967C573.948 481.004 596.459 489.844 623.39 484.063C656.899 476.866 676.154 456.404 682.669 428.454C684.5 420.6 685.129 412.123 684.825 404.463L684.771 403.291C684.669 401.349 684.506 399.466 684.287 397.666L684.149 396.596C684.101 396.243 684.051 395.893 683.998 395.547L683.834 394.52C682.612 387.243 680.407 381.766 677.577 380.018L677.396 379.914C676.904 379.655 676.348 379.538 675.79 379.577L658.703 380.773L659.498 359.763C659.537 358.733 659.044 357.755 658.193 357.173L571.903 298.163C570.101 296.931 567.629 297.974 567.254 300.125ZM572.366 305.748L653.439 361.19L652.582 383.886L652.581 384.063C652.615 385.764 654.069 387.113 655.79 386.992L674.891 385.653L674.934 385.721C675.171 386.104 675.432 386.646 675.703 387.323L675.885 387.794L676.069 388.304L676.254 388.85C676.285 388.945 676.316 389.04 676.347 389.137L676.532 389.737L676.716 390.37L676.898 391.034L677.077 391.729L677.253 392.453L677.423 393.204L677.588 393.98C677.615 394.112 677.642 394.244 677.668 394.378L677.823 395.19L677.97 396.024L678.108 396.879L678.237 397.752C678.257 397.9 678.278 398.047 678.297 398.196C679.485 407.169 679.092 417.37 676.826 427.092C670.818 452.863 653.274 471.508 622.13 478.196C597.459 483.493 577.093 475.495 560.833 457.005L560.247 456.331C548.57 442.781 539.711 424.3 534.788 406.019L534.579 405.232L554.136 400.215C555.278 399.922 556.143 398.986 556.346 397.824L572.366 305.748Z" fill="#2E186A"/>
<rect x="576.46" y="101.893" width="22.1066" height="38.9132" transform="rotate(160.656 576.46 101.893)" fill="#FE7624"/>
<circle cx="538.38" cy="39.0798" r="39.07" fill="#2E186A"/>
<path fill-rule="evenodd" clip-rule="evenodd" d="M569.8 273.709L561.85 275.299C561.85 275.299 515.78 280.699 518.37 238.449C520.37 206.449 551.91 208.339 567.04 211.149" fill="white"/>
<path fill-rule="evenodd" clip-rule="evenodd" d="M536.875 208.887C545.937 206.016 556.639 206.167 567.588 208.201C569.217 208.503 570.292 210.069 569.99 211.698C569.687 213.327 568.121 214.403 566.492 214.1C556.425 212.23 546.626 212.092 538.687 214.607C528.292 217.9 522.191 225.413 521.364 238.634C520.293 256.117 527.682 265.846 540.986 270.177C547.254 272.218 553.914 272.77 559.705 272.456L560.511 272.406L561.242 272.348L561.391 272.332L569.212 270.769C570.778 270.455 572.304 271.424 572.702 272.95L572.742 273.122C573.055 274.689 572.087 276.214 570.56 276.613L570.388 276.652L562.438 278.242L562.319 278.264L562.095 278.292L561.69 278.331L561.148 278.376L560.714 278.406C554.088 278.84 546.462 278.27 539.129 275.883C523.337 270.741 514.128 258.615 515.376 238.263C516.36 222.52 524.159 212.915 536.875 208.887Z" fill="#2E186A"/>
<path fill-rule="evenodd" clip-rule="evenodd" d="M734.23 255.911C732.75 275.181 715.87 362.801 654.09 362.171C592.31 361.541 557.58 301.171 557.96 243.331C558.34 185.491 589.49 140.911 628.61 140.411C667.73 139.911 744.94 116.411 734.23 255.911Z" fill="white"/>
<path fill-rule="evenodd" clip-rule="evenodd" d="M647.303 136.326L637.707 136.999L634.446 137.203L632.498 137.302L631.145 137.354L629.974 137.386L628.572 137.41C587.344 137.937 555.348 184.297 554.96 243.31C554.762 273.398 563.83 303.427 580.292 325.973C598.299 350.633 623.834 364.861 654.059 365.17C682.88 365.463 704.472 347.787 719.455 317.845C729.591 297.591 735.981 272.281 737.221 256.139C740.756 210.1 735.053 178.878 721.112 159.76C709.655 144.047 693.439 137.059 671.882 135.83L670.726 135.769L669.786 135.727L668.384 135.677L666.985 135.64L665.582 135.619L664.164 135.611L663.207 135.615L661.746 135.631L660.753 135.651L659.225 135.691L658.179 135.726L656.007 135.816L654.299 135.899L651.898 136.033L648.672 136.235L647.303 136.326ZM716.264 163.295C729.218 181.059 734.674 210.933 731.239 255.68C730.055 271.088 723.854 295.647 714.09 315.16C700.03 343.256 680.265 359.436 654.121 359.17C625.867 358.882 602.069 345.621 585.138 322.434C569.458 300.961 560.77 272.189 560.96 243.349C561.329 187.242 591.25 143.887 628.648 143.409L629.783 143.391L630.878 143.365L632.265 143.318L633.746 143.25L636.22 143.108L640.082 142.851L646.988 142.362L649.671 142.182L651.565 142.063L653.949 141.926L656.189 141.814L657.788 141.746L658.819 141.708L660.32 141.664L661.774 141.633L663.19 141.616L664.116 141.612L665.487 141.619L666.391 141.631L667.739 141.661L669.086 141.704L669.987 141.742L670.893 141.785C691.141 142.821 705.897 149.076 716.264 163.295Z" fill="#2E186A"/>
<path fill-rule="evenodd" clip-rule="evenodd" d="M572.42 88.77C607.15 77.77 644.42 72.68 677.25 85.71C776.64 130.65 776.9 205.6 735.1 239.71C736.69 186.61 723.71 160.86 705.46 148.71C685.52 180.49 621.11 208.02 562.12 208.71C561.99 209.24 561.88 209.77 561.76 210.3C545.58 208.3 520.13 209.74 518.37 238.42C515.94 277.98 556.19 275.77 561.37 275.32C562.05 278.45 570.3 306.74 570.3 306.74L561.38 347.33L430.15 327C426.411 326.916 422.935 325.058 420.788 321.996C418.64 318.935 418.077 315.034 419.27 311.49C435.05 264.49 460.77 125.79 572.42 88.77Z" fill="#2E186A"/>
<path fill-rule="evenodd" clip-rule="evenodd" d="M678.125 205.654C679.721 205.572 681.089 206.752 681.262 208.32L681.276 208.496L685.096 282.376C685.189 284.175 683.69 285.635 681.918 285.525L681.74 285.509L663.39 283.289C661.745 283.09 660.573 281.595 660.772 279.95C660.964 278.364 662.36 277.218 663.935 277.316L664.11 277.332L678.92 279.123L675.284 208.805C675.202 207.21 676.381 205.841 677.949 205.669L678.125 205.654Z" fill="#2E186A"/>
<path fill-rule="evenodd" clip-rule="evenodd" d="M708.425 204.212C712.985 204.936 716.751 207.391 719.185 211.787C719.987 213.236 719.463 215.062 718.013 215.864C716.563 216.667 714.738 216.142 713.935 214.693C712.435 211.983 710.288 210.583 707.483 210.137C705.217 209.777 702.672 210.07 700.166 210.794C699.671 210.937 699.212 211.088 698.795 211.239L698.358 211.403L697.953 211.57C696.445 212.256 694.666 211.59 693.979 210.082C693.293 208.574 693.959 206.795 695.467 206.109L695.621 206.041L695.971 205.893L696.375 205.734L696.833 205.565L697.34 205.39L697.897 205.211L698.5 205.03C701.781 204.082 705.161 203.693 708.425 204.212Z" fill="#2E186A"/>
<path fill-rule="evenodd" clip-rule="evenodd" d="M627.965 201.144C631.873 199.308 635.906 198.435 639.84 199.131C643.096 199.708 646.013 201.351 648.411 204.13C649.494 205.384 649.354 207.278 648.1 208.361C646.846 209.443 644.951 209.304 643.869 208.05C642.379 206.323 640.699 205.377 638.794 205.04C636.282 204.595 633.404 205.218 630.516 206.575C629.871 206.877 629.269 207.197 628.719 207.519L628.18 207.846L627.759 208.118L627.579 208.243C626.24 209.22 624.364 208.927 623.387 207.589C622.41 206.25 622.703 204.373 624.041 203.397C624.15 203.317 624.268 203.234 624.396 203.147L624.805 202.875C625.606 202.358 626.676 201.749 627.965 201.144Z" fill="#2E186A"/>
<ellipse cx="637.805" cy="226.855" rx="9.48" ry="6.13" transform="rotate(-81.15 637.805 226.855)" fill="#2E186A"/>
<ellipse cx="704.315" cy="232.539" rx="9.48" ry="6.13" transform="rotate(-83.87 704.315 232.539)" fill="#2E186A"/>
<path fill-rule="evenodd" clip-rule="evenodd" d="M549.672 271.616C551.111 270.926 552.826 271.484 553.591 272.861L553.675 273.023L567.275 301.363C567.992 302.857 567.362 304.649 565.868 305.366C564.43 306.056 562.715 305.498 561.949 304.121L561.865 303.959L548.265 275.619C547.549 274.125 548.178 272.333 549.672 271.616Z" fill="#FE7624"/>
<path fill-rule="evenodd" clip-rule="evenodd" d="M552.808 207.695C554.167 206.859 555.931 207.237 556.835 208.526L556.935 208.679L585.505 255.129C586.373 256.54 585.933 258.388 584.522 259.256C583.163 260.092 581.399 259.714 580.495 258.425L580.395 258.272L551.825 211.822C550.957 210.411 551.397 208.563 552.808 207.695Z" fill="#FE7624"/>
<path fill-rule="evenodd" clip-rule="evenodd" d="M577.46 246.591C577.46 246.591 576.27 294.591 557.96 295.721C564.82 316.811 623.89 402.021 690.46 356.431C702.816 347.791 713.002 336.407 720.22 323.171C736.41 294.171 735.22 275.531 735.22 275.531C735.22 275.531 707.52 247.191 685.57 242.621C663.62 238.051 654.85 253.921 625.79 259.381C608.577 262.589 590.833 257.893 577.46 246.591Z" fill="#FEBA91"/>
<path fill-rule="evenodd" clip-rule="evenodd" d="M587.695 217.562C583.224 247.056 597.903 274.019 620.995 277.52C644.086 281.02 666.097 259.619 670.568 230.125C675.039 200.63 660.36 173.667 637.269 170.166C614.177 166.666 592.166 188.067 587.695 217.562ZM593.627 218.461C597.647 191.942 616.967 173.157 636.369 176.098C655.771 179.04 668.656 202.706 664.636 229.225C660.616 255.744 641.296 274.529 621.894 271.588C602.492 268.646 589.607 244.98 593.627 218.461Z" fill="#FE7624"/>
<path fill-rule="evenodd" clip-rule="evenodd" d="M687.888 229.869C683.69 257.567 697.483 282.906 719.209 286.2C740.935 289.493 761.619 269.38 765.818 241.683C770.017 213.985 756.223 188.645 734.497 185.352C712.771 182.058 692.087 202.171 687.888 229.869ZM693.821 230.768C697.568 206.046 715.561 188.55 733.598 191.284C751.635 194.018 763.634 216.061 759.886 240.783C756.138 265.506 738.145 283.002 720.109 280.268C702.072 277.533 690.073 255.491 693.821 230.768Z" fill="#FE7624"/>
<path fill-rule="evenodd" clip-rule="evenodd" d="M665.678 224.033C665.852 222.444 667.236 221.282 668.811 221.363L668.987 221.378L691.777 223.878C693.424 224.058 694.613 225.54 694.432 227.187C694.258 228.775 692.874 229.937 691.299 229.856L691.123 229.842L668.333 227.342C666.686 227.161 665.497 225.679 665.678 224.033Z" fill="#FE7624"/>
<path fill-rule="evenodd" clip-rule="evenodd" d="M590.679 204.926C592.332 204.821 593.758 206.075 593.864 207.729C593.966 209.323 592.803 210.706 591.237 210.898L591.061 210.914L554.571 213.244C552.918 213.35 551.492 212.095 551.386 210.441C551.284 208.847 552.447 207.464 554.013 207.272L554.189 207.256L590.679 204.926Z" fill="#FE7624"/>
<path fill-rule="evenodd" clip-rule="evenodd" d="M865.59 551.909C875.7 533.609 895.88 510.609 958.4 511.959C1028.19 513.469 1030.91 555.679 1066.17 643.009C1068.96 651.869 1031.61 671.329 1031.42 714.489C980.5 679.489 1019.23 585.689 942.57 594.309C887.57 601.759 876.2 588.869 876.2 588.869L865.59 551.909Z" fill="white"/>
<path fill-rule="evenodd" clip-rule="evenodd" d="M890.881 521.945C878.085 529.074 869.686 538.292 862.964 550.459C862.58 551.154 862.487 551.974 862.706 552.737L873.316 589.697C873.439 590.125 873.656 590.52 873.95 590.854L874.117 591.032L874.221 591.135C876.572 593.402 881.084 595.708 888.408 597.383L889.448 597.612C889.624 597.65 889.802 597.687 889.982 597.724C891.587 598.053 893.273 598.342 895.042 598.589L896.233 598.747C898.641 599.052 901.196 599.281 903.903 599.431L905.27 599.499C907.569 599.602 909.973 599.649 912.487 599.638L914.008 599.624C914.775 599.614 915.551 599.598 916.338 599.577L917.925 599.528L919.538 599.465C919.809 599.453 920.081 599.441 920.355 599.428L922.008 599.343C922.563 599.312 923.123 599.279 923.688 599.243L925.394 599.128C925.681 599.108 925.969 599.087 926.258 599.066L928.005 598.929C928.592 598.881 929.184 598.83 929.78 598.777L931.582 598.61C931.884 598.581 932.188 598.551 932.493 598.521L934.336 598.331C934.955 598.265 935.578 598.196 936.206 598.125L938.105 597.904C938.423 597.866 938.743 597.827 939.064 597.788L941.005 597.543C941.656 597.459 942.312 597.372 942.973 597.282C962.097 595.133 974.199 599.399 982.066 609.601L982.475 610.139L982.874 610.681L983.265 611.229L983.647 611.784L984.022 612.345L984.388 612.914L984.747 613.491C984.807 613.587 984.866 613.685 984.924 613.782L985.273 614.373C985.33 614.472 985.387 614.572 985.444 614.672L985.783 615.278C985.839 615.38 985.895 615.482 985.95 615.585L986.279 616.208L986.603 616.842C986.656 616.949 986.709 617.057 986.762 617.164L987.078 617.818L987.388 618.486L987.694 619.168C987.744 619.283 987.794 619.398 987.845 619.515L988.144 620.219L988.438 620.94L988.73 621.678L989.017 622.433L989.302 623.206C989.349 623.336 989.396 623.467 989.443 623.599L989.724 624.401C989.77 624.536 989.817 624.672 989.863 624.809L990.14 625.641L990.415 626.493L990.689 627.367L990.961 628.262L991.367 629.649L991.637 630.604L991.907 631.583L992.312 633.098L992.582 634.141L992.853 635.211L993.125 636.309L993.536 638.009L993.951 639.774L994.371 641.608L994.94 644.163L995.376 646.165L998.034 658.66L998.81 662.099L999.214 663.836L999.62 665.531C999.688 665.81 999.756 666.087 999.824 666.362L1000.23 667.997C1000.37 668.535 1000.51 669.066 1000.65 669.592L1001.06 671.151C1001.55 672.949 1002.05 674.675 1002.56 676.34L1003 677.752C1004.64 682.879 1006.44 687.437 1008.57 691.774C1013.73 702.311 1020.57 710.67 1029.72 716.962C1031.71 718.327 1034.41 716.912 1034.42 714.503C1034.5 697.273 1040.43 683.072 1051.24 669.053C1051.51 668.706 1051.78 668.36 1052.05 668.015L1052.88 666.982C1053.02 666.809 1053.16 666.637 1053.3 666.464L1054.15 665.418C1054.44 665.067 1054.74 664.712 1055.04 664.352L1055.97 663.257L1056.95 662.121L1058.84 659.966L1062.1 656.276L1063.14 655.073L1063.87 654.216L1064.16 653.875L1064.71 653.21C1064.8 653.1 1064.89 652.992 1064.97 652.885L1065.47 652.252L1065.95 651.639C1068.92 647.721 1069.95 645.014 1069.03 642.108C1069.01 642.033 1068.98 641.959 1068.95 641.886L1068.05 639.617L1066.97 636.886L1064.95 631.693L1061.07 621.602L1049.69 591.884L1046.66 584.036L1044.55 578.59L1043.19 575.137L1042.41 573.187L1041.74 571.552L1041.32 570.548L1040.98 569.736L1040.29 568.136C1040.18 567.872 1040.07 567.609 1039.95 567.347L1039.27 565.792L1038.59 564.267L1037.91 562.772L1037.23 561.305C1037.12 561.063 1037.01 560.823 1036.9 560.583L1036.22 559.159C1036.11 558.925 1036 558.691 1035.88 558.458L1035.21 557.077C1035.1 556.849 1034.99 556.622 1034.87 556.396L1034.2 555.056L1033.52 553.742C1033.41 553.525 1033.3 553.31 1033.19 553.095L1032.51 551.821C1032.28 551.401 1032.06 550.985 1031.83 550.573L1031.15 549.35C1030.7 548.543 1030.24 547.753 1029.79 546.979L1029.1 545.83C1028.64 545.072 1028.18 544.33 1027.72 543.604L1027.02 542.525C1022.37 535.411 1017.44 529.806 1011.78 525.171C998.876 514.601 982.146 509.473 958.465 508.96C953.523 508.854 948.787 508.895 944.252 509.081L942.449 509.162C936.473 509.461 930.851 510.016 925.566 510.818L923.991 511.067C910.946 513.196 899.998 516.866 890.881 521.945ZM1057.35 652.594L1053.48 656.981L1052.41 658.2L1051.4 659.371C1051.07 659.754 1050.75 660.131 1050.44 660.503L1049.52 661.607L1048.63 662.691C1048.48 662.871 1048.34 663.051 1048.19 663.23L1047.34 664.306L1046.49 665.388L1046.02 666.013C1036.03 679.13 1029.98 692.603 1028.68 708.359L1028.66 708.628L1028.38 708.388C1020.91 702.022 1015.58 693.994 1011.33 683.232L1010.87 682.047C1010.5 681.051 1010.13 680.031 1009.76 678.988L1009.33 677.725C1009.12 677.087 1008.91 676.441 1008.7 675.787L1008.29 674.465C1008.15 674.021 1008.01 673.572 1007.88 673.12L1007.48 671.75L1007.08 670.356L1006.69 668.938C1006.63 668.699 1006.56 668.459 1006.5 668.219L1006.12 666.762C1006.06 666.517 1005.99 666.271 1005.93 666.024L1005.56 664.53L1005.19 663.009L1004.82 661.461C1004.76 661.201 1004.7 660.94 1004.64 660.678L1004 657.854L1003.02 653.305L1001.53 646.259L1000.93 643.453L1000.63 642.1L1000.19 640.131L999.754 638.233L999.467 637.006L999.039 635.221L998.755 634.067L998.331 632.388L997.908 630.77L997.626 629.724L997.343 628.702L997.059 627.705L996.632 626.254L996.345 625.315L996.057 624.398L995.766 623.503C995.717 623.355 995.668 623.208 995.62 623.062L995.325 622.197C995.275 622.055 995.226 621.913 995.176 621.772L994.877 620.936C994.827 620.798 994.776 620.661 994.726 620.524L994.421 619.715L994.112 618.924L993.799 618.149C993.693 617.893 993.587 617.64 993.481 617.389L993.158 616.646C993.103 616.523 993.049 616.401 992.994 616.279L992.663 615.557L992.326 614.848L991.983 614.151L991.634 613.467L991.278 612.794C991.158 612.572 991.037 612.351 990.914 612.132L990.544 611.48L990.165 610.837L989.778 610.202L989.383 609.575L988.979 608.955C988.911 608.852 988.843 608.75 988.774 608.648L988.357 608.037C988.286 607.936 988.215 607.835 988.144 607.734L987.712 607.131L987.27 606.532C987.121 606.333 986.97 606.135 986.818 605.937C978.242 594.815 965.41 589.708 946.706 590.928L945.451 591.019C944.397 591.103 943.325 591.206 942.235 591.328L941.285 591.456L939.405 591.699C938.784 591.777 938.166 591.853 937.554 591.927L935.73 592.14L933.933 592.339C933.339 592.403 932.749 592.464 932.164 592.523L930.422 592.692C929.557 592.774 928.703 592.849 927.859 592.92L926.184 593.054L924.536 593.173C924.264 593.192 923.993 593.21 923.722 593.228L922.114 593.327L920.533 593.412L918.978 593.483C918.721 593.494 918.465 593.504 918.21 593.514L916.694 593.565C912.937 593.676 909.424 593.663 906.147 593.532L904.849 593.474C902.706 593.366 900.667 593.207 898.73 592.999L897.58 592.869C897.391 592.846 897.202 592.823 897.014 592.799L895.901 592.651C895.35 592.574 894.808 592.493 894.276 592.408L893.222 592.232C892.528 592.11 891.85 591.982 891.187 591.846C887.02 590.992 883.771 589.903 881.328 588.693L881.05 588.554C880.454 588.249 879.956 587.962 879.547 587.7L879.167 587.446C879.05 587.364 878.942 587.285 878.844 587.21L868.819 552.286L868.9 552.144C874.993 541.502 882.504 533.48 893.801 527.186C909.019 518.708 930.011 514.347 958.335 514.959C980.771 515.444 996.217 520.179 1007.98 529.813C1011.41 532.622 1014.57 535.852 1017.58 539.654L1018.27 540.542C1019.19 541.739 1020.1 542.992 1020.99 544.304L1021.66 545.299C1022 545.803 1022.33 546.314 1022.66 546.835L1023.32 547.888L1023.98 548.965C1024.64 550.054 1025.3 551.179 1025.95 552.342L1026.6 553.518C1026.82 553.915 1027.04 554.315 1027.25 554.72L1027.91 555.948L1028.56 557.203C1028.66 557.414 1028.77 557.627 1028.88 557.841L1029.53 559.136C1029.75 559.573 1029.97 560.014 1030.19 560.459L1030.84 561.811L1031.49 563.19L1032.15 564.599L1032.81 566.037L1033.46 567.505L1034.13 569.003L1034.79 570.531L1035.46 572.091L1036.05 573.496L1037 575.812L1038.76 580.278L1040.93 585.843L1046.52 600.381L1057.91 630.112L1060.91 637.85L1062.82 642.72L1063.32 643.972L1063.33 644.027C1063.35 644.247 1063.27 644.569 1063.08 645L1062.95 645.271C1062.92 645.319 1062.9 645.367 1062.87 645.417L1062.7 645.728C1062.67 645.782 1062.64 645.837 1062.6 645.894L1062.39 646.245C1062.35 646.306 1062.31 646.367 1062.27 646.431L1062.01 646.822C1061.97 646.89 1061.92 646.959 1061.87 647.029L1061.56 647.462C1061.51 647.536 1061.45 647.612 1061.4 647.689L1061.04 648.164L1060.65 648.668C1060.59 648.754 1060.52 648.842 1060.45 648.93L1060.01 649.477L1059.53 650.052L1058.77 650.959L1057.8 652.083L1057.35 652.594Z" fill="#2E186A"/>
<path fill-rule="evenodd" clip-rule="evenodd" d="M904.703 588.398C905.317 586.859 907.062 586.108 908.601 586.722C910.085 587.313 910.836 588.957 910.337 590.454L910.277 590.619L908.057 596.189C907.443 597.728 905.698 598.479 904.159 597.865C902.675 597.274 901.924 595.63 902.423 594.134L902.483 593.968L904.703 588.398Z" fill="#2E186A"/>
<path fill-rule="evenodd" clip-rule="evenodd" d="M914.128 580.937L917.975 571.253C918.586 569.713 917.833 567.969 916.293 567.358C914.753 566.747 913.009 567.499 912.398 569.039L908.552 578.721C907.94 580.261 908.692 582.005 910.232 582.617C911.772 583.229 913.516 582.477 914.128 580.937ZM921.819 561.565L925.658 551.875C926.268 550.335 925.514 548.591 923.973 547.982C922.433 547.372 920.69 548.126 920.08 549.667L916.242 559.353C915.631 560.893 916.384 562.637 917.924 563.247C919.465 563.858 921.208 563.105 921.819 561.565ZM929.491 542.185L933.316 532.489C933.923 530.947 933.165 529.205 931.624 528.598C930.082 527.991 928.34 528.749 927.733 530.29L923.911 539.98C923.302 541.521 924.058 543.264 925.599 543.873C927.14 544.481 928.882 543.726 929.491 542.185Z" fill="#2E186A"/>
<path fill-rule="evenodd" clip-rule="evenodd" d="M933.735 514.989C934.337 513.445 936.076 512.682 937.62 513.284C939.108 513.864 939.871 515.503 939.384 517.003L939.325 517.169L937.145 522.759C936.543 524.303 934.804 525.066 933.26 524.464C931.771 523.883 931.008 522.245 931.496 520.745L931.555 520.579L933.735 514.989Z" fill="#2E186A"/>
<path fill-rule="evenodd" clip-rule="evenodd" d="M994.792 620.223L995.385 619.539L995.87 618.966L996.399 618.332L996.97 617.639C998.652 615.581 1000.49 613.221 1002.41 610.591C1003.39 609.254 1003.1 607.377 1001.76 606.398C1000.43 605.419 998.551 605.709 997.572 607.045C995.88 609.356 994.264 611.447 992.77 613.295L992.048 614.179L991.281 615.101L990.308 616.236C989.207 617.475 989.318 619.371 990.557 620.472C991.795 621.572 993.691 621.461 994.792 620.223ZM1009.29 600.524C1011.48 597.08 1013.56 593.565 1015.48 589.994C1016.27 588.535 1015.72 586.716 1014.27 585.929C1012.81 585.143 1010.99 585.687 1010.2 587.146C1008.35 590.586 1006.35 593.978 1004.23 597.304C1003.34 598.702 1003.75 600.556 1005.15 601.445C1006.55 602.334 1008.4 601.922 1009.29 600.524ZM1020.85 578.967C1022.53 575.097 1023.97 571.247 1025.17 567.426C1025.66 565.845 1024.78 564.163 1023.19 563.67C1021.61 563.177 1019.93 564.059 1019.44 565.641C1018.31 569.25 1016.94 572.901 1015.35 576.58C1014.69 578.101 1015.39 579.867 1016.91 580.526C1018.43 581.185 1020.19 580.487 1020.85 578.967ZM1028.07 555.365C1028.45 553.092 1028.72 550.843 1028.88 548.621C1029 546.969 1027.76 545.531 1026.11 545.41C1024.46 545.29 1023.02 546.531 1022.9 548.184C1022.75 550.22 1022.5 552.287 1022.15 554.382C1021.88 556.017 1022.98 557.562 1024.62 557.833C1026.25 558.105 1027.8 557 1028.07 555.365Z" fill="#2E186A"/>
<rect x="854.287" y="380.76" width="101.43" height="244.47" transform="rotate(37.72 854.287 380.76)" fill="white"/>
<path fill-rule="evenodd" clip-rule="evenodd" d="M936.354 440.441L856.122 378.386C854.812 377.373 852.927 377.613 851.914 378.924L702.346 572.302C701.333 573.613 701.573 575.497 702.884 576.51L783.116 638.566C784.427 639.579 786.311 639.339 787.324 638.028L936.892 444.65C937.906 443.339 937.665 441.455 936.354 440.441ZM930.311 443.351L784.414 631.983L708.928 573.599L854.825 384.967L930.311 443.351Z" fill="#2E186A"/>
<path fill-rule="evenodd" clip-rule="evenodd" d="M711.62 579.489L795.82 470.629L711.62 579.489Z" fill="white"/>
<path fill-rule="evenodd" clip-rule="evenodd" d="M793.447 468.794C794.461 467.483 796.345 467.242 797.655 468.256C798.916 469.231 799.187 471.01 798.304 472.311L798.193 472.464L713.993 581.324C712.979 582.635 711.095 582.876 709.785 581.862C708.524 580.887 708.253 579.108 709.136 577.807L709.247 577.654L793.447 468.794Z" fill="#2E186A"/>
<path fill-rule="evenodd" clip-rule="evenodd" d="M836.027 430.434C837.041 429.124 838.925 428.883 840.235 429.897C841.496 430.871 841.767 432.651 840.884 433.951L840.773 434.105L722.073 587.575C721.059 588.886 719.175 589.126 717.865 588.113C716.604 587.138 716.333 585.359 717.216 584.058L717.327 583.904L836.027 430.434Z" fill="#FE7624"/>
<path fill-rule="evenodd" clip-rule="evenodd" d="M844.107 436.684C845.121 435.374 847.005 435.133 848.315 436.147C849.576 437.121 849.847 438.901 848.964 440.201L848.853 440.355L730.153 593.825C729.139 595.136 727.255 595.376 725.945 594.363C724.684 593.388 724.413 591.609 725.296 590.308L725.407 590.154L844.107 436.684Z" fill="#FE7624"/>
<path fill-rule="evenodd" clip-rule="evenodd" d="M852.187 442.934C853.201 441.624 855.085 441.383 856.396 442.397C857.656 443.372 857.927 445.151 857.044 446.452L856.933 446.605L738.223 600.065C737.209 601.376 735.325 601.616 734.014 600.603C732.754 599.628 732.483 597.848 733.366 596.548L733.477 596.394L852.187 442.934Z" fill="#FE7624"/>
<path fill-rule="evenodd" clip-rule="evenodd" d="M860.257 449.184C861.271 447.874 863.155 447.633 864.465 448.647C865.726 449.621 865.997 451.401 865.114 452.701L865.003 452.855L746.303 606.315C745.289 607.626 743.405 607.866 742.095 606.853C740.834 605.878 740.563 604.098 741.446 602.798L741.557 602.644L860.257 449.184Z" fill="#FE7624"/>
<path fill-rule="evenodd" clip-rule="evenodd" d="M868.337 455.425C869.351 454.114 871.235 453.873 872.545 454.887C873.806 455.862 874.077 457.641 873.194 458.942L873.083 459.095L754.383 612.565C753.369 613.876 751.485 614.117 750.175 613.103C748.914 612.128 748.643 610.349 749.526 609.048L749.637 608.895L868.337 455.425Z" fill="#FE7624"/>
<path fill-rule="evenodd" clip-rule="evenodd" d="M876.417 461.675C877.431 460.364 879.315 460.123 880.625 461.137C881.886 462.112 882.157 463.891 881.274 465.192L881.163 465.345L762.463 618.815C761.449 620.126 759.565 620.367 758.255 619.353C756.994 618.378 756.723 616.599 757.606 615.298L757.717 615.145L876.417 461.675Z" fill="#FE7624"/>
<path fill-rule="evenodd" clip-rule="evenodd" d="M884.497 467.925C885.511 466.614 887.395 466.373 888.705 467.387C889.966 468.362 890.237 470.141 889.354 471.442L889.243 471.595L770.543 625.065C769.529 626.376 767.645 626.617 766.335 625.603C765.074 624.628 764.803 622.849 765.686 621.548L765.797 621.395L884.497 467.925Z" fill="#FE7624"/>
<path fill-rule="evenodd" clip-rule="evenodd" d="M892.577 474.175C893.591 472.864 895.475 472.623 896.785 473.637C898.046 474.612 898.317 476.391 897.434 477.692L897.323 477.845L778.623 631.315C777.609 632.626 775.725 632.867 774.415 631.853C773.154 630.878 772.883 629.099 773.766 627.798L773.877 627.645L892.577 474.175Z" fill="#FE7624"/>
<path fill-rule="evenodd" clip-rule="evenodd" d="M900.52 486.749C900.52 486.749 831.07 410.749 758.91 504.059L857.09 377.119L937.32 439.179L900.52 486.749Z" fill="white"/>
<path fill-rule="evenodd" clip-rule="evenodd" d="M854.717 375.284L756.537 502.224C754.09 505.388 758.836 509.059 761.283 505.895C783.554 477.097 806.713 462.986 830.177 460.853C848.111 459.222 865.242 464.628 880.884 474.683C885.712 477.787 890.032 481.113 893.778 484.435C894.649 485.207 895.445 485.94 896.164 486.628L896.858 487.299L897.563 488.001L898.305 488.773C899.562 490.148 901.753 490.058 902.893 488.585L939.693 441.015C940.707 439.704 940.466 437.82 939.156 436.806L858.926 374.746C857.615 373.733 855.731 373.973 854.717 375.284ZM857.628 381.327L933.111 439.716L900.233 482.217L899.921 481.921C899.254 481.292 898.533 480.632 897.759 479.945C893.793 476.428 889.23 472.916 884.129 469.636C867.452 458.915 849.058 453.111 829.633 454.877L828.877 454.95C815.258 456.326 801.818 461.416 788.68 470.586L788.488 470.72L857.628 381.327Z" fill="#2E186A"/>
<path fill-rule="evenodd" clip-rule="evenodd" d="M937.32 439.18L857.09 377.12L872.44 368.51L952.67 430.56L937.32 439.18Z" fill="white"/>
<path fill-rule="evenodd" clip-rule="evenodd" d="M870.972 365.893L855.622 374.503C853.748 375.555 853.555 378.178 855.254 379.493L935.484 441.553C936.437 442.29 937.739 442.385 938.789 441.796L954.139 433.176C956.012 432.124 956.205 429.501 954.505 428.187L874.275 366.137C873.323 365.4 872.022 365.304 870.972 365.893ZM872.175 372.098L947.251 430.162L937.583 435.591L862.509 377.519L872.175 372.098Z" fill="#2E186A"/>
<rect x="766.223" y="295.99" width="101.43" height="389.6" transform="rotate(23.79 766.223 295.99)" fill="white"/>
<path fill-rule="evenodd" clip-rule="evenodd" d="M860.245 334.161L767.433 293.245C765.917 292.577 764.146 293.264 763.478 294.78L606.319 651.276C605.651 652.792 606.338 654.563 607.854 655.231L700.666 696.147C702.182 696.815 703.952 696.128 704.621 694.612L861.78 338.116C862.448 336.6 861.761 334.829 860.245 334.161ZM855.079 338.44L700.34 689.446L613.019 650.951L767.758 299.945L855.079 338.44Z" fill="#2E186A"/>
<path fill-rule="evenodd" clip-rule="evenodd" d="M728.435 396.051C729.103 394.534 730.874 393.847 732.39 394.515C733.852 395.16 734.543 396.829 733.992 398.307L733.925 398.471L619.885 657.201C619.217 658.717 617.446 659.404 615.93 658.736C614.468 658.091 613.777 656.422 614.328 654.944L614.395 654.781L728.435 396.051Z" fill="#FE7624"/>
<path fill-rule="evenodd" clip-rule="evenodd" d="M760.525 348.56C761.193 347.044 762.964 346.357 764.48 347.025C765.942 347.67 766.633 349.339 766.082 350.817L766.015 350.98L629.225 661.32C628.557 662.836 626.786 663.524 625.27 662.855C623.808 662.211 623.117 660.541 623.668 659.064L623.735 658.9L760.525 348.56Z" fill="#FE7624"/>
<path fill-rule="evenodd" clip-rule="evenodd" d="M769.865 352.68C770.533 351.163 772.304 350.476 773.82 351.144C775.282 351.789 775.973 353.458 775.422 354.936L775.355 355.099L638.575 665.439C637.907 666.955 636.136 667.643 634.62 666.975C633.158 666.33 632.467 664.661 633.018 663.183L633.085 663.02L769.865 352.68Z" fill="#FE7624"/>
<path fill-rule="evenodd" clip-rule="evenodd" d="M779.215 356.801C779.883 355.284 781.654 354.597 783.17 355.265C784.632 355.91 785.323 357.579 784.772 359.057L784.705 359.221L647.915 669.561C647.247 671.077 645.476 671.764 643.96 671.096C642.498 670.451 641.807 668.782 642.358 667.304L642.425 667.141L779.215 356.801Z" fill="#FE7624"/>
<path fill-rule="evenodd" clip-rule="evenodd" d="M788.555 360.92C789.223 359.404 790.994 358.716 792.51 359.384C793.972 360.029 794.663 361.698 794.112 363.176L794.045 363.34L657.265 673.68C656.597 675.196 654.826 675.883 653.31 675.215C651.848 674.57 651.157 672.901 651.708 671.423L651.775 671.26L788.555 360.92Z" fill="#FE7624"/>
<path fill-rule="evenodd" clip-rule="evenodd" d="M797.905 365.041C798.573 363.525 800.344 362.837 801.86 363.506C803.322 364.15 804.013 365.82 803.462 367.297L803.395 367.461L666.605 677.801C665.937 679.317 664.166 680.004 662.65 679.336C661.188 678.691 660.497 677.022 661.048 675.544L661.115 675.381L797.905 365.041Z" fill="#FE7624"/>
<path fill-rule="evenodd" clip-rule="evenodd" d="M807.245 369.15C807.913 367.634 809.684 366.947 811.2 367.615C812.662 368.259 813.353 369.929 812.802 371.407L812.735 371.57L675.955 681.92C675.287 683.436 673.516 684.124 672 683.455C670.538 682.811 669.847 681.141 670.398 679.664L670.465 679.5L807.245 369.15Z" fill="#FE7624"/>
<path fill-rule="evenodd" clip-rule="evenodd" d="M816.595 373.269C817.263 371.753 819.034 371.066 820.55 371.734C822.012 372.378 822.703 374.048 822.152 375.526L822.085 375.689L685.295 686.039C684.627 687.555 682.856 688.243 681.34 687.574C679.878 686.93 679.187 685.26 679.738 683.783L679.805 683.619L816.595 373.269Z" fill="#FE7624"/>
<path fill-rule="evenodd" clip-rule="evenodd" d="M825.935 377.39C826.603 375.874 828.374 375.187 829.89 375.855C831.352 376.5 832.043 378.169 831.492 379.647L831.425 379.81L694.645 690.15C693.977 691.666 692.206 692.354 690.69 691.686C689.228 691.041 688.537 689.372 689.088 687.894L689.155 687.73L825.935 377.39Z" fill="#FE7624"/>
<path fill-rule="evenodd" clip-rule="evenodd" d="M836.68 387.68C836.68 387.68 750.97 330.68 703.4 438.59L768.12 291.74L860.94 332.65L836.68 387.68Z" fill="white"/>
<path fill-rule="evenodd" clip-rule="evenodd" d="M765.375 290.531L700.655 437.381C699.066 440.985 704.365 443.386 706.068 439.965L706.145 439.801C719.388 409.761 736.249 391.103 755.84 382.058C776.722 372.416 799.164 374.152 820.68 382.937C824.599 384.537 828.147 386.25 831.256 387.959C831.565 388.129 831.863 388.296 832.15 388.458L832.977 388.933L833.736 389.381L834.414 389.795L835.019 390.179C836.569 391.21 838.674 390.595 839.425 388.891L863.685 333.861C864.353 332.345 863.666 330.574 862.15 329.906L769.33 288.996C767.814 288.328 766.043 289.015 765.375 290.531ZM769.655 295.696L856.984 334.186L835.309 383.352L834.993 383.173C834.719 383.019 834.437 382.861 834.146 382.702C830.843 380.885 827.089 379.073 822.948 377.382C813.222 373.411 802.89 370.72 792.257 369.897C778.804 368.857 765.706 370.894 753.325 376.611L752.695 376.905C742.433 381.756 732.928 389.027 724.287 398.893L724.057 399.157L769.655 295.696Z" fill="#2E186A"/>
<path fill-rule="evenodd" clip-rule="evenodd" d="M860.94 332.651L768.12 291.741L768.53 272.211L861.35 313.121L860.94 332.651Z" fill="white"/>
<path fill-rule="evenodd" clip-rule="evenodd" d="M765.531 272.147L765.121 291.677C765.095 292.889 765.801 293.997 766.91 294.485L859.73 335.395C861.688 336.258 863.894 334.853 863.939 332.713L864.349 313.183C864.375 311.972 863.669 310.864 862.56 310.375L769.74 269.465C767.782 268.602 765.576 270.008 765.531 272.147ZM771.435 276.768L858.308 315.058L858.034 328.091L771.161 289.801L771.435 276.768Z" fill="#2E186A"/>
<path fill-rule="evenodd" clip-rule="evenodd" d="M916.64 557.089L835 508.389L792.46 575.469C783.25 589.989 795.36 601.369 812.59 627.929C819.7 587.839 893.15 592.399 893.15 592.399L916.64 557.089Z" fill="#5D21D1"/>
<ellipse cx="876.17" cy="531.903" rx="31.13" ry="47.4" transform="rotate(-57.62 876.17 531.903)" fill="#5D21D1"/>
<path fill-rule="evenodd" clip-rule="evenodd" d="M872.013 528.684C868.118 534.826 872.239 543.949 880.704 549.317C889.17 554.685 899.179 554.523 903.074 548.381C906.968 542.24 902.847 533.116 894.382 527.748C885.917 522.38 875.907 522.543 872.013 528.684ZM875.391 530.826C877.867 526.922 885.416 526.799 892.24 531.126C899.064 535.454 902.172 542.334 899.696 546.239C897.22 550.144 889.67 550.266 882.847 545.939C876.023 541.612 872.914 534.731 875.391 530.826Z" fill="white"/>
<path fill-rule="evenodd" clip-rule="evenodd" d="M885.33 537.18C888.411 532.307 893.274 530.053 898.024 531.316C899.091 531.6 899.727 532.696 899.443 533.763C899.159 534.831 898.063 535.466 896.996 535.182C894.117 534.416 891.075 535.77 888.864 539.082L888.681 539.363C886.829 542.127 886.86 545.745 888.762 548.477C889.392 549.383 889.169 550.63 888.262 551.261C887.356 551.892 886.109 551.668 885.478 550.762C882.701 546.771 882.592 541.514 885.147 537.461L885.33 537.18Z" fill="white"/>
<path fill-rule="evenodd" clip-rule="evenodd" d="M831.845 520.395C831.98 519.298 832.978 518.519 834.074 518.654C835.17 518.789 835.95 519.787 835.815 520.883C834.195 534.051 844.229 550.046 861.461 560.95C882.84 574.512 905.856 574.328 914.311 560.998C914.903 560.065 916.138 559.788 917.071 560.38C918.004 560.972 918.281 562.207 917.689 563.14C907.804 578.724 882.334 578.928 859.321 564.329C840.903 552.675 830.01 535.31 831.845 520.395Z" fill="white"/>
<path fill-rule="evenodd" clip-rule="evenodd" d="M814 498.061L722.14 473.621L699.65 549.801C694.78 566.281 711.19 585.661 736.29 593.081C761.39 600.501 785.7 593.151 790.57 576.661L793.01 574.661L789.07 576.321L814 498.061Z" fill="#5D21D1"/>
<ellipse cx="768.219" cy="484.985" rx="31.13" ry="47.4" transform="rotate(-73.54 768.219 484.985)" fill="#5D21D1"/>
<path fill-rule="evenodd" clip-rule="evenodd" d="M763.344 483.04C761.284 490.015 767.75 497.658 777.362 500.498C786.975 503.338 796.556 500.436 798.617 493.462C800.678 486.488 794.212 478.845 784.599 476.005C774.986 473.164 765.405 476.066 763.344 483.04ZM767.18 484.174C768.491 479.74 775.717 477.551 783.466 479.841C791.215 482.13 796.091 487.894 794.781 492.329C793.471 496.763 786.245 498.951 778.496 496.662C770.747 494.372 765.87 488.608 767.18 484.174Z" fill="white"/>
<path fill-rule="evenodd" clip-rule="evenodd" d="M789.039 478.401C790.144 478.384 791.053 479.265 791.07 480.37C791.087 481.474 790.205 482.383 789.101 482.4C786.131 482.446 783.583 484.588 782.359 488.393L782.263 488.705C781.24 491.873 782.261 495.344 784.837 497.453C785.692 498.152 785.817 499.413 785.118 500.267C784.418 501.122 783.158 501.248 782.303 500.548C778.537 497.465 776.995 492.434 778.347 487.83L778.442 487.524C780.079 481.984 784.125 478.476 789.039 478.401Z" fill="white"/>
<path fill-rule="evenodd" clip-rule="evenodd" d="M720.852 471.004C721.165 469.945 722.277 469.34 723.336 469.653C724.396 469.966 725.001 471.078 724.688 472.137C719.474 489.791 724.59 500.896 745.513 510.358C768.989 520.959 795.125 519.158 805.232 505.965C805.904 505.088 807.159 504.921 808.036 505.593C808.913 506.265 809.079 507.52 808.408 508.397C796.955 523.347 768.848 525.284 743.866 514.003C721.126 503.72 715.071 490.578 720.852 471.004Z" fill="white"/>
<path fill-rule="evenodd" clip-rule="evenodd" d="M726.09 557.25L832.59 580.4L813.2 669.63C809 688.94 781.76 699.42 752.35 693.03C722.94 686.64 702.5 665.8 706.7 646.48L726.09 557.25Z" fill="#FEBA91"/>
<path fill-rule="evenodd" clip-rule="evenodd" d="M723.158 556.614L703.768 645.844L703.642 646.46C699.593 667.584 721.228 689.339 751.713 695.962C782.544 702.661 811.509 691.521 816.131 670.268L835.522 581.038C835.873 579.419 834.846 577.821 833.227 577.469L726.727 554.319C725.108 553.967 723.51 554.994 723.158 556.614ZM728.384 560.819L829.021 582.695L810.268 668.994C806.49 686.364 780.97 696.179 752.987 690.099C725.306 684.085 706.218 664.891 709.528 647.625L709.639 647.082L728.384 560.819Z" fill="#5D21D1"/>
<ellipse cx="779.844" cy="566.402" rx="35.79" ry="54.49" transform="rotate(-77.74 779.844 566.402)" fill="#FEBA91"/>
<path fill-rule="evenodd" clip-rule="evenodd" d="M743.835 557.99C741.962 566.613 750.319 575.138 761.911 577.657C773.503 580.176 784.646 575.888 786.519 567.266C788.393 558.643 780.035 550.118 768.443 547.599C756.851 545.08 745.709 549.368 743.835 557.99ZM749.699 559.264C750.729 554.524 758.426 551.562 767.169 553.462C775.913 555.362 781.686 561.251 780.656 565.992C779.626 570.732 771.929 573.694 763.185 571.794C754.442 569.894 748.668 564.005 749.699 559.264Z" fill="#5D21D1"/>
<path fill-rule="evenodd" clip-rule="evenodd" d="M758.802 548.72C759.62 547.279 761.451 546.775 762.892 547.593C767.988 550.488 770.259 556.42 768.961 562.977L768.886 563.336C767.757 569.238 763.128 573.847 757.221 574.951C755.592 575.255 754.025 574.182 753.721 572.553C753.428 570.982 754.415 569.469 755.946 569.09L756.119 569.053C759.506 568.42 762.18 565.831 762.949 562.422L763.008 562.136C763.927 557.898 762.747 554.548 760.132 552.931L759.928 552.81C758.487 551.992 757.983 550.16 758.802 548.72Z" fill="#5D21D1"/>
<path fill-rule="evenodd" clip-rule="evenodd" d="M723.665 554.194C719.046 575.451 740.776 597.608 771.607 604.308C802.439 611.007 831.404 599.867 836.023 578.61C840.642 557.353 818.913 535.197 788.081 528.497C757.249 521.797 728.285 532.937 723.665 554.194ZM729.529 555.468C733.304 538.094 758.824 528.279 786.807 534.36C814.791 540.441 833.936 559.962 830.16 577.336C826.385 594.71 800.865 604.525 772.881 598.444C744.898 592.363 725.753 572.842 729.529 555.468Z" fill="#5D21D1"/>
<path fill-rule="evenodd" clip-rule="evenodd" d="M602 481.57V596.43C602 620.43 566.68 639.79 523.11 639.79C479.54 639.79 444.22 620.38 444.22 596.43V481.57H602Z" fill="white"/>
<path fill-rule="evenodd" clip-rule="evenodd" d="M602 478.57H444.22C442.563 478.57 441.22 479.913 441.22 481.57V596.43C441.22 622.52 478.102 642.79 523.11 642.79C568.15 642.79 605 622.553 605 596.43V481.57C605 479.913 603.657 478.57 602 478.57ZM447.22 484.569H599V596.43C599 618.271 565.277 636.79 523.11 636.79L521.849 636.785C480.303 636.419 447.22 618.021 447.22 596.43V484.569Z" fill="#2E186A"/>
<ellipse cx="523.08" cy="476.72" rx="78.89" ry="33.13" fill="white"/>
<path fill-rule="evenodd" clip-rule="evenodd" d="M523.08 440.59C478.014 440.59 441.19 456.054 441.19 476.72C441.19 497.386 478.014 512.85 523.08 512.85C568.146 512.85 604.97 497.386 604.97 476.72C604.97 456.054 568.146 440.59 523.08 440.59ZM523.08 446.59C565.153 446.59 598.97 460.791 598.97 476.72C598.97 492.648 565.153 506.85 523.08 506.85C481.007 506.85 447.19 492.648 447.19 476.72C447.19 460.791 481.007 446.59 523.08 446.59Z" fill="#2E186A"/>
<path fill-rule="evenodd" clip-rule="evenodd" d="M523.08 508.301C524.678 508.301 525.984 509.55 526.075 511.125L526.08 511.301V517.301C526.08 518.958 524.737 520.301 523.08 520.301C521.482 520.301 520.176 519.052 520.085 517.477L520.08 517.301V511.301C520.08 509.644 521.423 508.301 523.08 508.301Z" fill="#2E186A"/>
<path fill-rule="evenodd" clip-rule="evenodd" d="M520.08 529.869V542.439C520.08 544.096 521.423 545.439 523.08 545.439C524.737 545.439 526.08 544.096 526.08 542.439V529.869C526.08 528.212 524.737 526.869 523.08 526.869C521.423 526.869 520.08 528.212 520.08 529.869ZM520.08 555.009V567.579C520.08 569.236 521.423 570.579 523.08 570.579C524.737 570.579 526.08 569.236 526.08 567.579V555.009C526.08 553.352 524.737 552.009 523.08 552.009C521.423 552.009 520.08 553.352 520.08 555.009ZM520.08 580.149V592.719C520.08 594.376 521.423 595.719 523.08 595.719C524.737 595.719 526.08 594.376 526.08 592.719V580.149C526.08 578.492 524.737 577.149 523.08 577.149C521.423 577.149 520.08 578.492 520.08 580.149ZM520.08 605.289V617.859C520.08 619.516 521.423 620.859 523.08 620.859C524.737 620.859 526.08 619.516 526.08 617.859V605.289C526.08 603.632 524.737 602.289 523.08 602.289C521.423 602.289 520.08 603.632 520.08 605.289Z" fill="#2E186A"/>
<path fill-rule="evenodd" clip-rule="evenodd" d="M523.08 627.41C524.678 627.41 525.984 628.659 526.075 630.234L526.08 630.41V636.41C526.08 638.067 524.737 639.41 523.08 639.41C521.482 639.41 520.176 638.161 520.085 636.586L520.08 636.41V630.41C520.08 628.753 521.423 627.41 523.08 627.41Z" fill="#2E186A"/>
<ellipse cx="523.08" cy="475.28" rx="22.86" ry="6.29" fill="#2E186A"/>
<path fill-rule="evenodd" clip-rule="evenodd" d="M730.41 500.32V615.17C730.41 639.17 695.09 658.54 651.52 658.54C607.95 658.54 572.62 639.12 572.62 615.17V500.32H730.41Z" fill="white"/>
<path fill-rule="evenodd" clip-rule="evenodd" d="M730.41 497.32H572.62C570.963 497.32 569.62 498.663 569.62 500.32V615.17C569.62 641.261 606.513 661.54 651.52 661.54C696.556 661.54 733.41 641.295 733.41 615.17V500.32C733.41 498.663 732.067 497.32 730.41 497.32ZM575.619 503.319H727.409L727.41 615.17C727.41 637.013 693.683 655.54 651.52 655.54L650.259 655.535C608.714 655.169 575.62 636.762 575.62 615.17L575.619 503.319Z" fill="#2E186A"/>
<ellipse cx="651.52" cy="495.47" rx="78.89" ry="33.13" fill="white"/>
<path fill-rule="evenodd" clip-rule="evenodd" d="M651.52 459.34C606.454 459.34 569.63 474.804 569.63 495.47C569.63 516.136 606.454 531.6 651.52 531.6C696.586 531.6 733.41 516.136 733.41 495.47C733.41 474.804 696.586 459.34 651.52 459.34ZM651.52 465.34C693.593 465.34 727.41 479.541 727.41 495.47C727.41 511.398 693.593 525.6 651.52 525.6C609.447 525.6 575.63 511.398 575.63 495.47C575.63 479.541 609.447 465.34 651.52 465.34Z" fill="#2E186A"/>
<path fill-rule="evenodd" clip-rule="evenodd" d="M607.99 521.039C609.588 521.039 610.894 522.288 610.985 523.863L610.99 524.039V530.039C610.99 531.696 609.647 533.039 607.99 533.039C606.392 533.039 605.086 531.79 604.995 530.215L604.99 530.039V524.039C604.99 522.382 606.333 521.039 607.99 521.039Z" fill="#2E186A"/>
<path fill-rule="evenodd" clip-rule="evenodd" d="M604.99 542.609V555.179C604.99 556.836 606.333 558.179 607.99 558.179C609.647 558.179 610.99 556.836 610.99 555.179V542.609C610.99 540.953 609.647 539.609 607.99 539.609C606.333 539.609 604.99 540.953 604.99 542.609ZM604.99 567.749V580.319C604.99 581.976 606.333 583.319 607.99 583.319C609.647 583.319 610.99 581.976 610.99 580.319V567.749C610.99 566.093 609.647 564.749 607.99 564.749C606.333 564.749 604.99 566.093 604.99 567.749ZM604.99 592.889V605.459C604.99 607.116 606.333 608.459 607.99 608.459C609.647 608.459 610.99 607.116 610.99 605.459V592.889C610.99 591.233 609.647 589.889 607.99 589.889C606.333 589.889 604.99 591.233 604.99 592.889ZM604.99 618.029V630.599C604.99 632.256 606.333 633.599 607.99 633.599C609.647 633.599 610.99 632.256 610.99 630.599V618.029C610.99 616.373 609.647 615.029 607.99 615.029C606.333 615.029 604.99 616.373 604.99 618.029Z" fill="#2E186A"/>
<path fill-rule="evenodd" clip-rule="evenodd" d="M607.99 640.141C609.588 640.141 610.894 641.39 610.985 642.964L610.99 643.141V649.141C610.99 650.797 609.647 652.141 607.99 652.141C606.392 652.141 605.086 650.892 604.995 649.317L604.99 649.141V643.141C604.99 641.484 606.333 640.141 607.99 640.141Z" fill="#2E186A"/>
<ellipse cx="651.52" cy="494.03" rx="22.86" ry="6.29" fill="#2E186A"/>
<path fill-rule="evenodd" clip-rule="evenodd" d="M694.15 545.58V645.41C694.15 669.41 658.83 688.77 615.26 688.77C571.69 688.77 536.37 669.36 536.37 645.41V545.58H694.15Z" fill="white"/>
<path fill-rule="evenodd" clip-rule="evenodd" d="M694.15 542.58H536.37C534.713 542.58 533.37 543.923 533.37 545.58V645.41C533.37 671.5 570.252 691.77 615.26 691.77C660.3 691.77 697.15 671.533 697.15 645.41V545.58C697.15 543.923 695.807 542.58 694.15 542.58ZM539.369 548.58H691.149L691.15 645.41C691.15 667.25 657.427 685.77 615.26 685.77L613.998 685.765C572.453 685.399 539.37 667 539.37 645.41L539.369 548.58Z" fill="#2E186A"/>
<ellipse cx="615.26" cy="540.73" rx="78.89" ry="33.13" fill="white"/>
<path fill-rule="evenodd" clip-rule="evenodd" d="M615.26 504.6C570.194 504.6 533.37 520.064 533.37 540.73C533.37 561.395 570.194 576.86 615.26 576.86C660.326 576.86 697.15 561.395 697.15 540.73C697.15 520.064 660.326 504.6 615.26 504.6ZM615.26 510.6C657.333 510.6 691.15 524.801 691.15 540.73C691.15 556.658 657.333 570.86 615.26 570.86C573.187 570.86 539.37 556.658 539.37 540.73C539.37 524.801 573.187 510.6 615.26 510.6Z" fill="#2E186A"/>
<path fill-rule="evenodd" clip-rule="evenodd" d="M631 570.85C632.598 570.85 633.904 572.099 633.995 573.673L634 573.85V579.85C634 581.506 632.657 582.85 631 582.85C629.402 582.85 628.096 581.601 628.005 580.026L628 579.85V573.85C628 572.193 629.343 570.85 631 570.85Z" fill="#2E186A"/>
<path fill-rule="evenodd" clip-rule="evenodd" d="M628 590.75V601.65C628 603.307 629.343 604.65 631 604.65C632.657 604.65 634 603.307 634 601.65V590.75C634 589.093 632.657 587.75 631 587.75C629.343 587.75 628 589.093 628 590.75ZM628 612.55V623.45C628 625.107 629.343 626.45 631 626.45C632.657 626.45 634 625.107 634 623.45V612.55C634 610.893 632.657 609.55 631 609.55C629.343 609.55 628 610.893 628 612.55ZM628 634.35V645.25C628 646.907 629.343 648.25 631 648.25C632.657 648.25 634 646.907 634 645.25V634.35C634 632.693 632.657 631.35 631 631.35C629.343 631.35 628 632.693 628 634.35ZM628 656.15V667.05C628 668.707 629.343 670.05 631 670.05C632.657 670.05 634 668.707 634 667.05V656.15C634 654.493 632.657 653.15 631 653.15C629.343 653.15 628 654.493 628 656.15Z" fill="#2E186A"/>
<path fill-rule="evenodd" clip-rule="evenodd" d="M631 674.939C632.598 674.939 633.904 676.188 633.995 677.763L634 677.939V683.939C634 685.596 632.657 686.939 631 686.939C629.402 686.939 628.096 685.691 628.005 684.116L628 683.939V677.939C628 676.283 629.343 674.939 631 674.939Z" fill="#2E186A"/>
<ellipse cx="615.26" cy="539.29" rx="22.86" ry="6.29" fill="#2E186A"/>
<rect x="384.218" y="387.627" width="12.25" height="49.79" transform="rotate(-18.91 384.218 387.627)" fill="#5D21D1"/>
<rect x="380.141" y="424.113" width="42.89" height="49.79" transform="rotate(-18.91 380.141 424.113)" fill="#5D21D1"/>
<rect x="356.591" y="462.119" width="116.26" height="288.52" rx="23.43" transform="rotate(-19.25 356.591 462.119)" fill="#FEBA91"/>
<path fill-rule="evenodd" clip-rule="evenodd" d="M512.11 522.85L496.91 479.31L469 489C457.232 478.146 440.38 474.79 425.352 480.308C410.324 485.826 399.648 499.29 397.7 515.18L367.66 527L382.29 568.89L416.51 555.89C427.646 563.268 441.593 565.008 454.201 560.592C466.808 556.177 476.622 546.114 480.72 533.4L512.11 522.85Z" fill="white"/>
<path fill-rule="evenodd" clip-rule="evenodd" d="M410.77 365.171C410.77 365.171 412.94 381.511 388.02 388.621C363.36 395.621 359.96 377.421 365.32 374.871C369.04 373.101 391.75 361.771 405.32 354.981C412.379 351.445 420.051 349.299 427.92 348.661C430.356 348.421 432.802 348.304 435.25 348.311C443.04 348.701 443.06 357.831 434.1 358.311C423.79 358.781 410.77 365.171 410.77 365.171Z" fill="#5D21D1"/>
<path fill-rule="evenodd" clip-rule="evenodd" d="M469 524.181L461.45 502.071L448.76 506.411L444.42 493.711L422.31 501.261L426.65 513.961L413.95 518.301L421.5 540.411L434.2 536.071L438.53 548.771L460.64 541.221L456.31 528.521L469 524.181Z" fill="#5D21D1"/>
<path fill-rule="evenodd" clip-rule="evenodd" d="M605.91 573.07C600.69 570.68 555.76 578.73 531.13 582.81C531.13 582.81 566.39 573.44 581.13 567.1C595.87 560.76 592.25 549.1 584.4 548.42C580.07 548.07 543.16 557.63 507.12 571.57C509.96 563.47 518.47 536.18 504.61 533.71C488.7 530.87 488.8 566.51 456.34 596.07C448.68 601.07 442.57 606.17 438.9 611.28L363 634.35L399.14 756.1L462.57 667C484.28 678.33 540.94 651.24 540.94 651.24C588.61 647.65 590.68 632.98 582.41 630.76C574.14 628.54 534 629.39 534 629.39C534 629.39 539.1 625.12 573 624.59C606.9 624.06 603.91 604.73 596.94 603C589.97 601.27 532.28 606.84 532.28 606.84L593.86 594.34C610.61 592.05 613.87 576.7 605.91 573.07Z" fill="#FE7624"/>
<path fill-rule="evenodd" clip-rule="evenodd" d="M833.25 600.58L725.75 625.87C724.08 625.35 721.39 624.4 721.39 624.4C675.45 622.8 652.45 593.26 641.55 605.7C633.97 614.35 648.4 626.62 657.91 633.3C624 642.94 591.46 657 588 659.81C581.86 664.75 585.42 676.46 601.18 673.45C616.94 670.44 651.4 658.45 651.4 658.45C628.7 668.87 586.99 687.39 584 692.28C579.45 699.76 590.75 710.64 606 703.11L664 678.94C664 678.94 613.05 706.66 608.25 712C603.45 717.34 611.84 735 640.17 716.47C668.5 697.94 675.17 698.61 675.17 698.61C675.17 698.61 641.67 722.92 636.07 729.39C630.47 735.86 653.96 752.39 683.26 724.04C683.26 724.04 737.45 704.34 744.56 693.04L859.08 729.3L833.25 600.58Z" fill="#FE7624"/>
<path fill-rule="evenodd" clip-rule="evenodd" d="M1375.26 778.641C1376.92 778.641 1378.26 779.984 1378.26 781.641C1378.26 783.238 1377.01 784.544 1375.44 784.636L1375.26 784.641H3C1.34315 784.641 0 783.297 0 781.641C0 780.043 1.24892 778.737 2.82373 778.646L3 778.641H1375.26Z" fill="#2E186A"/>
</svg>
