<svg width="1248" height="712" viewBox="0 0 1248 712" fill="none" xmlns="http://www.w3.org/2000/svg">
<path fill-rule="evenodd" clip-rule="evenodd" d="M1035.1 613.9C1022.4 621 998.9 629.5 979.5 610.5C959.5 591 945.2 591.4 938.5 593.3C936.5 592.9 934.3 593.8 933.2 595.7L891.1 672.2C887.8 678.2 881.4 682 874.5 682H737.4C734.7 682 732.5 684.2 732.5 686.9C732.5 689.6 734.7 691.8 737.4 691.8H874.5C885 691.8 894.6 686.1 899.7 676.9L924.3 632.1C933.5 633.3 946 637.4 957.7 648.9C980.3 670.9 1006.8 658.5 1016.5 652.6C1018.9 651.2 1020.8 649.1 1022.2 646.7L1038.7 617.6C1040.2 615.2 1037.5 612.5 1035.1 613.9Z" fill="#5D21D1"/>
<path fill-rule="evenodd" clip-rule="evenodd" d="M354.7 525.4C354.1 524.1 352.5 523.6 351.3 524.3C350.9 524.5 346.7 527.1 328.4 536.2L320 540.3C280.1 559.5 221.2 583.9 197.3 573.8C196.3 573.4 195.2 573.6 194.5 574.4C194.4 574.5 185.8 583.8 167 592.6C149.7 600.7 119.9 609.9 76.4 607.8C74.9 607.7 73.6 609 73.9 610.6C74.1 611.8 75.1 612.6 76.3 612.7C80.2 612.9 83.9 613 87.6 613L89.4 624.8C89.8 627.4 93.3 628.1 94.6 625.8L102.2 612.6C107.5 612.3 112.6 611.8 117.5 611.2L120.3 621.4C121 623.9 124.5 624.2 125.6 621.9L131.6 609C135.7 608.2 139.5 607.3 143.1 606.4L145.4 614.9C146.1 617.4 149.6 617.7 150.7 615.4L156.9 602.2C161.5 600.6 165.5 598.9 169.1 597.2L170.7 603.1C171.4 605.6 174.9 605.9 176 603.6L182.2 590.2C190.3 585.3 195.1 581 197.2 578.9C202.3 580.7 208.5 581.2 215.5 580.8L219.7 591.2C220.7 593.6 224 593.5 224.9 591.1L229.5 579C233.9 578.2 238.4 577.2 243 575.9L244.9 584C245.5 586.6 249 587 250.1 584.6L256.6 571.8C261 570.4 265.4 568.8 269.8 567.2L271.5 574.5C272.1 577 275.4 577.5 276.7 575.3L284.5 561.6C288.4 560 292.3 558.4 296.2 556.7L298.1 563.7C298.8 566.2 302.3 566.5 303.4 564.2L309.6 550.8C313.8 548.9 317.8 547 321.7 545.1L323.2 550.8C323.9 553.3 327.4 553.6 328.5 551.3L334.2 539.1C349.7 531.3 352.6 529.5 354.1 528.7C354.7 528 355.3 526.6 354.7 525.4Z" fill="#5D21D1"/>
<path fill-rule="evenodd" clip-rule="evenodd" d="M473.8 490.1C472.8 489.7 471.7 489.9 471 490.7C470.9 490.8 462.3 500.1 443.5 508.9C426.2 517 396.4 526.2 352.9 524.1C351.4 524 350.1 525.3 350.4 526.9C350.6 528.1 351.6 528.9 352.8 529C356.7 529.2 360.4 529.3 364.1 529.3L365.8 540.9C366.2 543.6 369.8 544.3 371.2 541.9L378.6 528.9C383.9 528.6 389 528.1 393.9 527.5L396.6 537.5C397.3 540.1 400.9 540.4 402 538L407.9 525.3C412 524.5 415.8 523.6 419.4 522.7L422.6 532.3C423.5 534.9 427.1 535 428.1 532.4L433.2 518.5C437.8 516.9 441.8 515.2 445.4 513.5L446.9 519.2C447.6 521.8 451.2 522.1 452.3 519.7L458.4 506.6C466.5 501.7 471.3 497.4 473.4 495.3" fill="#5D21D1"/>
<path fill-rule="evenodd" clip-rule="evenodd" d="M1110.9 546.1C1110.4 544.8 1108.9 544.1 1107.7 544.7C1069.2 560.8 1028.7 552.7 987.4 520.8C956.3 496.8 936.5 467.5 936.3 467.3C935.5 466.2 934 465.9 932.9 466.6C931.8 467.4 931.5 468.9 932.2 470C932.3 470.2 938.1 478.8 948.4 490.5L953.3 514C953.8 516.6 957.3 517.1 958.6 514.9L963.5 506.6C967.7 510.7 972.2 514.8 977 518.8L982.2 536.9C982.9 539.3 986.1 539.7 987.4 537.6L992 530.4C996.1 533.3 1000.2 535.9 1004.4 538.4L1011.6 558.7C1012.4 561 1015.6 561.3 1016.8 559.2L1023.2 548C1027.2 549.7 1031.1 551.1 1035.1 552.3L1044.5 568.7C1045.8 570.9 1049 570.5 1049.8 568.1L1053.3 556.4C1058.4 557.1 1063.5 557.5 1068.6 557.5C1069 557.5 1069.4 557.5 1069.8 557.5L1079.9 570.7C1081.3 572.6 1084.3 572 1085 569.7L1089.1 555.4C1095.9 554 1102.6 552 1109.3 549.2C1110.6 548.7 1111.4 547.3 1110.9 546.1Z" fill="#5D21D1"/>
<path fill-rule="evenodd" clip-rule="evenodd" d="M75.9 607.1C77.4977 607.1 78.8037 608.349 78.8949 609.923L78.9 610.1V708.9C78.9 710.556 77.5568 711.9 75.9 711.9C74.3023 711.9 72.9963 710.651 72.9051 709.076L72.9 708.9V610.1C72.9 608.443 74.2431 607.1 75.9 607.1Z" fill="#FE7624"/>
<path fill-rule="evenodd" clip-rule="evenodd" d="M196.2 573.1C197.798 573.1 199.104 574.349 199.195 575.923L199.2 576.1V707.3C199.2 708.956 197.857 710.3 196.2 710.3C194.602 710.3 193.296 709.051 193.205 707.476L193.2 707.3V576.1C193.2 574.443 194.543 573.1 196.2 573.1Z" fill="#FE7624"/>
<path fill-rule="evenodd" clip-rule="evenodd" d="M352.8 523.3C354.398 523.3 355.704 524.549 355.795 526.124L355.8 526.3V707.1C355.8 708.757 354.457 710.1 352.8 710.1C351.202 710.1 349.896 708.851 349.805 707.276L349.8 707.1V526.3C349.8 524.643 351.143 523.3 352.8 523.3Z" fill="#FE7624"/>
<path fill-rule="evenodd" clip-rule="evenodd" d="M1108.9 543.5C1110.5 543.5 1111.8 544.749 1111.89 546.324L1111.9 546.5V708.9C1111.9 710.557 1110.56 711.9 1108.9 711.9C1107.3 711.9 1106 710.651 1105.91 709.076L1105.9 708.9V546.5C1105.9 544.843 1107.24 543.5 1108.9 543.5Z" fill="#FE7624"/>
<path fill-rule="evenodd" clip-rule="evenodd" d="M924.9 454.6L562.9 457C557.1 457 551.9 460 549.5 464.6L432.7 677.1L135.9 677.3C135.9 677.3 130.8 707.1 173.5 708.9L813.5 708.1L938.5 473.6C943.3 464.7 935.9 454.5 924.9 454.6Z" fill="#FE7624"/>
<path fill-rule="evenodd" clip-rule="evenodd" d="M469.9 676.2L775.6 674.9L870.2 490.6C873.9 483.5 869 474.9 861.4 475L583.6 478.4L469.9 676.2Z" fill="white"/>
<path fill-rule="evenodd" clip-rule="evenodd" d="M894.973 454.8C908.076 454.682 917.003 466.912 911.516 477.884L911.345 478.216L787.545 709.516C786.763 710.977 784.945 711.527 783.484 710.745C782.078 709.992 781.515 708.279 782.174 706.848L782.255 706.685L906.047 475.399C909.632 468.612 903.956 460.72 895.027 460.799C893.37 460.814 892.015 459.483 892 457.826C891.985 456.17 893.316 454.814 894.973 454.8Z" fill="white"/>
<path fill-rule="evenodd" clip-rule="evenodd" d="M486.2 548.9L519.7 610.5C521.4 613.4 525.8 612.2 525.8 608.9L523.6 580.9C523.6 580.9 543.2 648.3 570.1 650C597 651.7 622.8 579 622.8 579L615.7 609.5C615.7 612.9 620.1 614 621.8 611.1L657.6 548.9" fill="#5D21D1"/>
<path fill-rule="evenodd" clip-rule="evenodd" d="M444.3 310.7C444.3 310.7 364.4 418.9 374.7 515.7H551V308.4L444.3 310.7Z" fill="#5D21D1"/>
<path fill-rule="evenodd" clip-rule="evenodd" d="M695.5 310.7C695.5 310.7 775.4 418.9 765.1 515.7H588.8V308.4L695.5 310.7Z" fill="#5D21D1"/>
<path fill-rule="evenodd" clip-rule="evenodd" d="M641.8 515.7C709.5 394 702.1 297.4 682.4 231.2C662.6 165 616.2 91.2002 572.1 91.2002C528 91.2002 481.6 165 461.8 231.2C442 297.4 433.7 394 501.4 515.7L482.5 556.5H661L641.8 515.7Z" fill="white"/>
<path fill-rule="evenodd" clip-rule="evenodd" d="M572.1 88.2002C550.152 88.2002 527.003 105.151 505.418 134.602C486.092 160.97 469.185 196.04 458.926 230.341C447.224 269.466 442.251 309.702 445.798 352.883L445.931 354.462C450.368 405.539 466.703 458.542 496.912 513.774L498.037 515.82L479.778 555.239C478.857 557.227 480.309 559.5 482.5 559.5H661L661.172 559.495C663.274 559.38 664.626 557.16 663.714 555.223L645.167 515.81L646.309 513.737C676.849 457.901 693.38 404.369 697.864 352.898C701.637 309.585 696.845 269.222 685.275 230.345C675.015 196.04 658.108 160.97 638.782 134.602C617.197 105.151 594.049 88.2002 572.1 88.2002ZM572.1 94.2002C591.681 94.2002 613.375 110.086 633.943 138.149C652.848 163.942 669.457 198.394 679.526 232.06C690.888 270.241 695.591 309.854 691.886 352.377C687.385 404.044 670.522 457.898 639.178 514.242L639.084 514.425C638.706 515.23 638.704 516.166 639.086 516.978L656.272 553.5H487.195L504.122 516.961C504.525 516.091 504.488 515.08 504.022 514.242C472.711 457.956 456.027 404.134 451.777 352.392C448.296 309.997 453.176 270.502 464.674 232.06C474.743 198.394 491.352 163.942 510.257 138.149C530.825 110.086 552.519 94.2002 572.1 94.2002Z" fill="#2E186A"/>
<path fill-rule="evenodd" clip-rule="evenodd" d="M572.1 341.6C599.935 341.6 622.5 314.737 622.5 281.6C622.5 248.463 599.935 221.6 572.1 221.6C544.265 221.6 521.7 248.463 521.7 281.6C521.7 314.737 544.265 341.6 572.1 341.6Z" fill="#5D21D1"/>
<path fill-rule="evenodd" clip-rule="evenodd" d="M572.1 368.6C576.739 368.6 580.5 364.122 580.5 358.6C580.5 353.077 576.739 348.6 572.1 348.6C567.461 348.6 563.7 353.077 563.7 358.6C563.7 364.122 567.461 368.6 572.1 368.6Z" fill="#5D21D1"/>
<path fill-rule="evenodd" clip-rule="evenodd" d="M604.5 368.6C609.139 368.6 612.9 364.122 612.9 358.6C612.9 353.077 609.139 348.6 604.5 348.6C599.861 348.6 596.1 353.077 596.1 358.6C596.1 364.122 599.861 368.6 604.5 368.6Z" fill="#5D21D1"/>
<path fill-rule="evenodd" clip-rule="evenodd" d="M537.2 368.6C541.839 368.6 545.6 364.122 545.6 358.6C545.6 353.077 541.839 348.6 537.2 348.6C532.561 348.6 528.8 353.077 528.8 358.6C528.8 364.122 532.561 368.6 537.2 368.6Z" fill="#5D21D1"/>
<path fill-rule="evenodd" clip-rule="evenodd" d="M572.1 321C593.142 321 610.2 300.719 610.2 275.7C610.2 250.682 593.142 230.4 572.1 230.4C551.058 230.4 534 250.682 534 275.7C534 300.719 551.058 321 572.1 321Z" fill="white"/>
<path fill-rule="evenodd" clip-rule="evenodd" d="M572.1 227.4C549.275 227.4 531 249.129 531 275.7C531 302.272 549.275 324 572.1 324C594.925 324 613.2 302.272 613.2 275.7C613.2 249.129 594.925 227.4 572.1 227.4ZM572.1 233.4C591.359 233.4 607.2 252.235 607.2 275.7C607.2 299.166 591.359 318 572.1 318C552.841 318 537 299.166 537 275.7C537 252.235 552.841 233.4 572.1 233.4Z" fill="#2E186A"/>
<path fill-rule="evenodd" clip-rule="evenodd" d="M581 89.5004V18.6004C581 18.4004 581 18.2004 581 17.9004C582.3 16.1004 583.1 13.8004 583.1 11.4004C583.1 5.30039 578.2 0.400391 572.1 0.400391C566 0.400391 561.1 5.30039 561.1 11.4004C561.1 13.8004 561.9 16.1004 563.2 17.9004C563.2 18.1004 563.2 18.3004 563.2 18.6004V89.4004C544.7 93.2004 526.2 108.7 509.3 129.5C528.4 125.1 550.7 122.7 576.3 124.1C599.2 125.4 619.6 128.6 637.5 132.9C620 110.5 600.4 93.7004 581 89.5004Z" fill="#5D21D1"/>
<path fill-rule="evenodd" clip-rule="evenodd" d="M654.2 169.7C632.1 162.3 606.7 155.8 572.6 154.5C537.8 153.2 511.4 161 489.7 169.5C480.2 187.1 472.7 204.5 466.6 223.2C492.6 210.5 524.5 197.1 573.4 198C619.9 198.8 651.9 209.1 676.2 219.9C670.3 202.4 663.1 186.3 654.2 169.7Z" fill="#5D21D1"/>
<path fill-rule="evenodd" clip-rule="evenodd" d="M639.2 515.2C642.4 509.4 645.5 503.7 648.4 498C633.1 491.8 611.1 486.6 572 487C532.5 486.7 510.4 492 495.1 498.3C498 503.9 501 509.6 504.1 515.3C504.1 515.3 538.8 508.5 571.9 508.8C604.5 508.5 639.2 515.2 639.2 515.2Z" fill="#5D21D1"/>
<path fill-rule="evenodd" clip-rule="evenodd" d="M823.6 674.9H666.4C666.4 674.9 643.8 654.6 654.2 638C664.6 621.4 691.9 617.4 700.8 634.2C700.8 634.2 704.7 602.1 737.6 604.6C770.6 607.1 768 641.4 768 641.4C768 641.4 809.7 611.9 808.6 658C808.5 657.9 811.1 674.9 823.6 674.9Z" fill="white"/>
<path fill-rule="evenodd" clip-rule="evenodd" d="M666.4 677.9H823.6L823.803 677.895C827.532 677.699 827.532 672.102 823.803 671.906L823.6 671.9C819.424 671.9 816.322 669.43 814.038 665.03C813.181 663.38 812.516 661.585 812.041 659.819C811.9 659.297 811.785 658.809 811.699 658.387L811.62 657.97L811.603 657.871L811.599 658.072C812.129 635.863 802.842 626.949 787.805 629.522C783.573 630.245 779.138 631.848 774.658 634.063L773.859 634.464C773.066 634.869 772.291 635.282 771.539 635.701L770.906 636.057L770.903 636.011C770.848 635.315 770.775 634.591 770.684 633.844C770.178 629.701 769.167 625.609 767.522 621.752C762.66 610.346 753.181 602.931 738.359 601.652L737.827 601.609C721.807 600.392 710.624 606.663 703.757 617.751L703.357 618.411C701.785 621.061 700.548 623.832 699.601 626.626L699.374 627.309L699.106 627.048C686.671 615.242 662.122 619.705 651.658 636.407C649.863 639.272 648.843 642.351 648.551 645.585C647.881 653.027 650.995 660.693 656.512 668.223C658.226 670.562 660.057 672.72 661.89 674.651L662.35 675.132C663.241 676.052 663.947 676.729 664.395 677.132C664.946 677.627 665.66 677.9 666.4 677.9ZM737.373 607.592C750.179 608.562 757.931 614.552 762.003 624.105C763.408 627.401 764.286 630.955 764.728 634.572C765.009 636.865 765.084 638.89 765.038 640.487L765.022 640.927L765.009 641.173C764.821 643.649 767.535 645.244 769.593 643.943L770.127 643.58L770.824 643.121C771.128 642.925 771.456 642.717 771.809 642.499C773.493 641.457 775.35 640.413 777.317 639.441C781.318 637.463 785.234 636.049 788.817 635.436C793.842 634.576 797.764 635.357 800.496 637.979L800.683 638.163C803.897 641.408 805.702 647.47 805.619 656.834L805.603 657.753L805.599 657.853L805.603 658.208L805.623 658.431L805.643 658.588C805.663 658.726 805.689 658.889 805.721 659.069L805.755 659.254C805.873 659.877 806.038 660.603 806.247 661.378C806.827 663.536 807.64 665.729 808.712 667.795L808.893 668.137C809.531 669.325 810.233 670.426 811 671.427L811.373 671.899H667.596L667.343 671.649C666.998 671.306 666.63 670.93 666.242 670.521C664.575 668.764 662.905 666.797 661.352 664.677C656.616 658.213 654.015 651.809 654.527 646.123C654.735 643.82 655.454 641.649 656.742 639.593C666.305 624.33 690.249 621.66 697.922 635.19L698.149 635.605C699.496 638.147 703.266 637.506 703.752 634.738L703.811 634.33C703.841 634.133 703.89 633.849 703.959 633.49C704.138 632.559 704.385 631.513 704.71 630.382C705.641 627.146 707 623.911 708.858 620.91C714.592 611.652 723.687 606.552 737.373 607.592Z" fill="#2E186A"/>
<path fill-rule="evenodd" clip-rule="evenodd" d="M323.1 675.2H480.3C480.3 675.2 502.9 654.9 492.5 638.3C482.1 621.7 454.8 617.7 445.9 634.5C445.9 634.5 442 602.4 409.1 604.9C376.1 607.4 378.7 641.7 378.7 641.7C378.7 641.7 337 612.2 338.1 658.3C338.2 658.2 335.6 675.1 323.1 675.2Z" fill="white"/>
<path fill-rule="evenodd" clip-rule="evenodd" d="M323.1 678.2H480.3C481.04 678.2 481.754 677.926 482.305 677.432L482.55 677.208C483.082 676.714 483.86 675.952 484.81 674.951C486.643 673.02 488.474 670.862 490.188 668.523C495.705 660.993 498.819 653.327 498.149 645.884C497.857 642.651 496.837 639.572 495.042 636.707L494.68 636.143C484.022 619.905 459.888 615.676 447.594 627.348L447.325 627.609L447.099 626.926C446.073 623.899 444.707 620.899 442.943 618.051C436.155 607.09 425.15 600.836 409.424 601.87L408.873 601.909C393.746 603.055 384.098 610.51 379.178 622.052C377.533 625.908 376.522 630.001 376.016 634.144L375.951 634.7C375.91 635.068 375.874 635.429 375.842 635.784L375.793 636.357L375.161 636.001C374.158 635.442 373.116 634.893 372.042 634.362C367.562 632.148 363.127 630.545 358.895 629.821L358.446 629.748C343.823 627.452 334.761 636.205 335.088 657.709L335.096 658.169L335.05 658.434C334.96 658.905 334.829 659.478 334.66 660.101C334.185 661.857 333.521 663.645 332.664 665.29L332.491 665.615C330.279 669.697 327.316 672.045 323.388 672.193L323.076 672.2C319.092 672.232 319.116 678.2 323.1 678.2ZM437.842 621.21C439.7 624.21 441.059 627.446 441.99 630.682C442.315 631.813 442.562 632.858 442.741 633.79L442.872 634.524L442.922 634.862C443.269 637.718 447.018 638.47 448.464 636.059L448.551 635.904C455.966 621.907 480.299 624.475 489.958 639.893C491.246 641.949 491.965 644.12 492.173 646.423C492.685 652.109 490.084 658.513 485.348 664.977C483.795 667.097 482.125 669.064 480.458 670.821L480.171 671.121L479.62 671.685C479.442 671.865 479.27 672.037 479.103 672.2L335.29 672.199L335.314 672.172C336.308 670.953 337.197 669.575 337.986 668.061C339.059 666 339.872 663.815 340.452 661.667C340.661 660.896 340.827 660.173 340.944 659.553L341.009 659.195C341.027 659.084 341.043 658.981 341.056 658.889L341.077 658.732L341.097 658.508L341.101 658.165L341.095 658.045L341.081 657.133C340.996 647.59 342.873 641.476 346.204 638.279C348.936 635.657 352.858 634.876 357.883 635.735C361.466 636.348 365.382 637.763 369.383 639.741C371.35 640.713 373.207 641.757 374.892 642.799L375.564 643.221C375.671 643.289 375.775 643.356 375.876 643.421L376.573 643.88L376.967 644.149C378.994 645.583 381.757 644.075 381.7 641.641L381.673 641.123C381.607 639.478 381.671 637.329 381.972 634.872C382.414 631.255 383.292 627.701 384.697 624.405C388.714 614.983 396.31 609.026 408.804 607.934L409.327 607.891C423.013 606.851 432.108 611.952 437.842 621.21Z" fill="#2E186A"/>
<path fill-rule="evenodd" clip-rule="evenodd" d="M1244.5 705.9C1246.16 705.9 1247.5 707.244 1247.5 708.9C1247.5 710.498 1246.25 711.804 1244.68 711.895L1244.5 711.9H3.5C1.84315 711.9 0.5 710.557 0.5 708.9C0.5 707.303 1.74892 705.997 3.32373 705.905L3.5 705.9H1244.5Z" fill="#2E186A"/>
</svg>
