<svg width="1698" height="842" viewBox="0 0 1698 842" fill="none" xmlns="http://www.w3.org/2000/svg">
<path fill-rule="evenodd" clip-rule="evenodd" d="M1034.6 533H1008.6C1000.6 533 994.1 526.5 994.1 518.5V486.6L953.8 496.4L964.6 538.8C976 694 771.5 711 763.8 542.9L637.1 573.9V573.8L554.4 591.8L609.5 811.7L724.3 784C740.1 814.6 751.7 835.8 751.7 835.8H1106L1034.6 533Z" fill="#2E186A"/>
<path fill-rule="evenodd" clip-rule="evenodd" d="M138.238 194C169.169 194.387 197.086 198.397 222.239 205.72C223.829 206.183 224.744 207.848 224.28 209.439C223.817 211.029 222.152 211.944 220.561 211.48C196.789 204.559 170.446 200.655 141.296 200.052L140.547 200.037L140.396 200.72C139.857 203.174 139.318 206.035 138.813 209.273C134.811 234.943 135.413 264.703 143.797 295.82C144.228 297.419 143.28 299.066 141.68 299.497C140.081 299.928 138.434 298.98 138.003 297.38C129.482 265.755 128.778 235.512 132.741 209.284L132.884 208.349C133.408 204.988 133.971 202.006 134.535 199.435L134.702 198.686C134.784 198.325 134.863 197.986 134.939 197.669L135.263 196.37C135.28 196.304 135.295 196.249 135.308 196.203C135.67 194.888 136.874 193.983 138.238 194Z" fill="#FE7624"/>
<path fill-rule="evenodd" clip-rule="evenodd" d="M218.247 207.772C218.538 206.141 220.097 205.055 221.728 205.347C223.359 205.638 224.445 207.197 224.153 208.828C218.399 241.031 218.867 272.358 224.746 303.035C225.058 304.663 223.992 306.235 222.365 306.546C220.737 306.858 219.165 305.792 218.854 304.165C212.84 272.782 212.361 240.716 218.247 207.772Z" fill="#FE7624"/>
<path fill-rule="evenodd" clip-rule="evenodd" d="M314.254 25.8115C315.169 24.7769 316.673 24.5016 317.896 25.1447L318.385 25.4074C318.769 25.6166 319.22 25.8667 319.736 26.1579L320.641 26.6736C321.73 27.2985 322.929 28.0047 324.232 28.7927L324.797 29.1354C330.22 32.4365 336.255 36.4182 342.749 41.0892C361.287 54.4218 379.818 70.6165 397.117 89.7477C407.876 101.646 417.825 114.34 426.798 127.839C427.716 129.219 427.341 131.081 425.961 131.998C424.581 132.916 422.719 132.541 421.802 131.161C412.997 117.915 403.231 105.455 392.667 93.7719C375.669 74.9743 357.455 59.0566 339.246 45.9602C333.182 41.5992 327.535 37.8565 322.437 34.7256L321.677 34.2605C320.384 33.4734 319.194 32.7674 318.114 32.1421L317.156 31.5929L317.145 31.605C265.062 90.9432 235.134 149.57 224.474 207.068L224.153 208.827C223.862 210.459 222.303 211.545 220.672 211.253C219.041 210.962 217.955 209.403 218.247 207.772C228.925 147.994 259.941 87.1711 314.254 25.8115Z" fill="#FE7624"/>
<path fill-rule="evenodd" clip-rule="evenodd" d="M583.364 257.037C618.427 242.3 659.166 240.889 705.875 255.13C707.235 255.545 708.117 256.857 707.988 258.273L707.927 258.878L707.781 260.191L707.611 261.599C707.413 263.186 707.169 264.964 706.874 266.92C705.85 273.733 704.433 281.318 702.562 289.483C697.214 312.813 689.291 336.148 678.278 357.953C677.531 359.431 675.726 360.025 674.248 359.278C672.769 358.531 672.175 356.726 672.922 355.248C683.697 333.915 691.467 311.03 696.713 288.142C698.55 280.131 699.938 272.695 700.941 266.027L701.142 264.662C701.303 263.552 701.446 262.509 701.571 261.535L701.742 260.156L701.408 260.057C657.607 247.219 619.536 248.641 586.703 262.147L585.689 262.568C557.985 274.212 534.928 294.09 516.125 319.915C505.127 335.019 496.266 351.218 489.36 367.417C486.944 373.084 484.946 378.342 483.343 383.055L482.984 384.122C482.638 385.162 482.331 386.117 482.063 386.981L481.716 388.125L481.492 388.897C481.052 390.494 479.401 391.432 477.803 390.992C476.206 390.552 475.268 388.901 475.708 387.303L475.963 386.421C476.033 386.186 476.11 385.929 476.195 385.652L476.475 384.748C476.817 383.659 477.212 382.448 477.663 381.123C479.313 376.272 481.364 370.873 483.84 365.064C490.914 348.473 499.989 331.883 511.274 316.383C530.679 289.732 554.561 269.142 583.364 257.037Z" fill="#FE7624"/>
<path fill-rule="evenodd" clip-rule="evenodd" d="M532.953 37.7297C534.097 37.0415 535.557 37.1915 536.537 38.0975L536.863 38.405L537.512 39.0321C538.183 39.6881 538.945 40.4529 539.792 41.3259L540.16 41.7066C542.991 44.6432 546.138 48.1278 549.524 52.1499C559.177 63.6183 568.822 77.1102 577.823 92.5428C587.426 109.01 595.725 126.75 602.333 145.713C602.878 147.278 602.052 148.988 600.487 149.533C598.923 150.078 597.212 149.252 596.667 147.687C590.19 129.101 582.054 111.709 572.64 95.5655C563.82 80.4424 554.373 67.2288 544.933 56.0137L543.708 54.5697C541.079 51.4954 538.615 48.7733 536.357 46.4094L535.84 45.8702C535.483 45.4992 535.14 45.1478 534.814 44.8162L534.069 44.0661L532.94 44.7531C482.929 75.2634 443.508 109.397 413.805 146.61L412.89 147.762C386.002 181.735 367.547 217.786 356.58 255.341C356.115 256.931 354.449 257.844 352.859 257.38C351.269 256.915 350.356 255.25 350.82 253.659C374.832 171.435 433.083 97.8336 532.953 37.7297Z" fill="#FE7624"/>
<path fill-rule="evenodd" clip-rule="evenodd" d="M478.909 164.184C514.82 207.467 535.493 248.712 542.75 287.853C543.052 289.482 541.976 291.048 540.347 291.35C538.718 291.652 537.152 290.576 536.85 288.947C529.933 251.633 510.383 212.16 476.39 170.565L475.767 169.805L474.64 170.348C473.825 170.742 472.951 171.171 472.021 171.633L470.879 172.203L469.096 173.104C463.986 175.703 458.376 178.705 452.381 182.096C433.234 192.926 414.088 205.47 396.232 219.568C359.985 248.184 333.815 279.401 322.007 312.586C307.448 353.5 315.495 395.48 350.622 438.4C351.671 439.682 351.482 441.572 350.2 442.622C348.918 443.671 347.028 443.482 345.978 442.2C309.545 397.683 301.077 353.507 316.354 310.574C328.605 276.147 355.461 244.111 392.514 214.858C410.632 200.555 430.03 187.846 449.427 176.873L451.555 175.677C457.538 172.333 463.12 169.383 468.188 166.841L469.353 166.259C470.491 165.693 471.549 165.176 472.52 164.708L473.777 164.108L475.36 163.368C476.592 162.809 478.045 163.144 478.909 164.184Z" fill="#FE7624"/>
<path fill-rule="evenodd" clip-rule="evenodd" d="M140.737 295.411C208.096 289.481 268.499 309.2 321.628 347.887C342.049 362.757 360.568 379.875 377.165 398.423C389.627 412.348 400.104 426.048 408.593 438.731C409.515 440.108 409.146 441.971 407.769 442.893C406.392 443.815 404.528 443.445 403.607 442.069C395.267 429.608 384.958 416.129 372.694 402.424C356.366 384.177 338.155 367.344 318.097 352.738C266.073 314.856 207.073 295.595 141.263 301.388C139.613 301.534 138.157 300.313 138.012 298.663C137.866 297.012 139.086 295.557 140.737 295.411Z" fill="#FE7624"/>
<path fill-rule="evenodd" clip-rule="evenodd" d="M140.742 295.411C142.393 295.269 143.846 296.491 143.989 298.142C144.131 299.793 142.909 301.247 141.258 301.389C122.999 302.965 104.051 306.611 84.4417 312.364L83.07 312.77L83.6416 313.953C83.8845 314.452 84.1391 314.968 84.4056 315.503L85.2407 317.162C88.2897 323.158 92.0013 329.846 96.3913 337.054C108.943 357.662 124.4 378.274 142.882 397.506C160.757 416.106 180.568 432.429 202.372 445.845C203.783 446.713 204.223 448.561 203.355 449.972C202.487 451.383 200.639 451.823 199.228 450.955C176.972 437.261 156.769 420.615 138.556 401.664C119.751 382.096 104.035 361.137 91.267 340.175C86.7949 332.832 83.0091 326.01 79.8925 319.881L79.3117 318.732C78.6528 317.418 78.0589 316.203 77.5296 315.092L77.0916 314.164C76.928 313.815 76.7785 313.492 76.643 313.196L76.1718 312.149L76.1471 312.092C75.4372 310.453 76.3081 308.561 78.015 308.034C99.6835 301.343 120.605 297.149 140.742 295.411Z" fill="#FE7624"/>
<path fill-rule="evenodd" clip-rule="evenodd" d="M635.3 437.2C644.847 437.2 652.622 444.866 652.797 454.371L652.8 454.7V507.6C652.8 517.147 645.134 524.921 635.628 525.097L635.3 525.1L611.894 525.099L596.925 590.866C596.571 592.424 595.063 593.42 593.507 593.159L593.334 593.125C591.776 592.771 590.78 591.263 591.041 589.707L591.075 589.534L606.575 521.434C606.872 520.128 607.996 519.185 609.318 519.105L609.5 519.1H635.3C641.546 519.1 646.641 514.101 646.796 507.892L646.8 507.6V454.7C646.8 448.454 641.801 443.359 635.592 443.204L635.3 443.2H582C580.343 443.2 579 441.857 579 440.2C579 438.602 580.249 437.296 581.824 437.205L582 437.2H635.3Z" fill="#2E186A"/>
<path fill-rule="evenodd" clip-rule="evenodd" d="M443.7 437.3C445.357 437.3 446.7 438.643 446.7 440.3C446.7 441.898 445.451 443.204 443.876 443.295L443.7 443.3H213.5C207.254 443.3 202.159 448.299 202.004 454.508L202 454.8V507.7C202 513.946 206.999 519.041 213.208 519.196L213.5 519.2H237.6C238.939 519.2 240.108 520.086 240.48 521.358L240.525 521.534L312.425 837.334C312.793 838.95 311.781 840.557 310.166 840.925C308.608 841.28 307.058 840.352 306.619 838.837L306.575 838.666L235.206 525.2H213.5C203.953 525.2 196.178 517.534 196.003 508.029L196 507.7V454.8C196 445.253 203.666 437.479 213.172 437.303L213.5 437.3H443.7Z" fill="#2E186A"/>
<path fill-rule="evenodd" clip-rule="evenodd" d="M638.305 574.049L638.492 574.157L900.692 738.257C902.995 739.698 902.349 743.214 899.684 743.743L890.177 745.66C886.763 746.354 883.006 747.124 878.924 747.966L867.816 750.271C854.28 753.095 839.655 756.203 824.165 759.562C768.867 771.555 713.571 784.347 661.794 797.433L658.012 798.391C606.562 811.453 561.441 824.114 524.428 836.118L520.706 837.332C517.629 838.341 514.613 839.345 511.66 840.342C510.091 840.872 508.388 840.03 507.858 838.46C507.328 836.89 508.17 835.188 509.74 834.658L513.333 833.451C516.353 832.443 519.434 831.43 522.577 830.41L525.277 829.538C561.915 817.749 606.212 805.351 656.535 792.576C708.212 779.456 763.485 766.624 818.843 754.579L826.598 752.897C842.579 749.441 857.604 746.261 871.422 743.392L886.353 740.316L891.12 739.345L636.361 579.902L632.705 580.756C631.13 581.127 629.405 581.536 627.54 581.982L624.057 582.819C616.978 584.528 609.238 586.443 600.977 588.545C573.443 595.549 545.747 603.178 519.679 611.168C518.095 611.654 516.417 610.763 515.932 609.179C515.446 607.595 516.337 605.917 517.921 605.432C543.044 597.731 569.656 590.37 596.183 583.576L599.498 582.73C608.244 580.505 616.409 578.488 623.827 576.702L630.117 575.202L636.234 573.775C636.937 573.615 637.672 573.714 638.305 574.049Z" fill="#2E186A"/>
<path fill-rule="evenodd" clip-rule="evenodd" d="M534.862 342.65C551.749 337.094 568.812 337.707 586.024 345.154L598.761 350.78C638.552 368.4 658.931 378.364 672.797 388.004L673.215 388.296C682.353 394.704 687.308 400.34 687.626 405.888C687.995 412.324 682.384 416.935 671.402 420.147L670.922 420.285C656.512 424.388 634.342 436.819 606.688 455.559C600.613 459.676 594.335 464.056 587.891 468.666C572.524 479.657 556.91 491.438 541.868 503.22L539.123 505.375C535.82 507.974 532.713 510.442 529.828 512.753L526.549 515.389L523.31 518.013L523.335 522L523.353 526.314C523.434 548.792 523.282 574.086 522.736 598.354L522.608 603.744C521.882 632.621 520.648 655.216 518.803 669.325L518.674 670.296C515.19 696.473 508.25 724.695 500.223 747.015C499.662 748.574 497.944 749.384 496.385 748.823C494.826 748.262 494.016 746.544 494.577 744.985C502.32 723.453 509.054 696.246 512.541 670.876L512.853 668.552C514.727 654.22 515.973 630.688 516.684 600.557L516.789 595.872C517.291 572.385 517.431 548.041 517.353 526.335L517.3 516.627C517.292 515.72 517.694 514.859 518.395 514.283L521.859 511.465L523.755 509.934C527.791 506.685 532.314 503.088 537.24 499.224L538.168 498.496C553.275 486.665 568.956 474.833 584.4 463.785C590.884 459.148 597.203 454.738 603.322 450.592L605.842 448.892C632.279 431.127 653.624 419.216 668.357 414.785L670.151 414.26C678.415 411.786 681.793 408.973 681.636 406.231C681.459 403.138 677.485 398.618 669.77 393.208L668.957 392.642C656.078 383.772 636.956 374.334 601.012 358.344L584.284 350.943C568.213 343.82 552.454 343.178 536.736 348.35C517.264 354.743 504.315 363.435 490.076 380.025L489.548 380.643C476.856 395.572 465.149 413.289 435.189 461.965L432.356 466.571L432.282 466.685C378.464 545.962 342.412 635.361 330.941 711.037C320.195 781.926 333.027 829.61 364.206 834.943C365.839 835.222 366.936 836.773 366.657 838.406C366.378 840.039 364.827 841.136 363.194 840.857C327.509 834.753 313.826 783.908 325.009 710.138C336.502 634.321 372.282 545.12 425.694 465.718L427.291 463.353L431.862 455.925C460.395 409.618 472.021 392.077 484.576 377.229L484.977 376.757C500.136 358.927 514.095 349.468 534.862 342.65Z" fill="#2E186A"/>
<path fill-rule="evenodd" clip-rule="evenodd" d="M719.121 310.5L719.297 310.507C720.951 310.616 722.203 312.044 722.093 313.698C719.391 354.667 724.293 409.861 733.049 456.851C733.353 458.479 732.278 460.046 730.65 460.349C729.021 460.653 727.454 459.579 727.151 457.95C718.31 410.508 713.367 354.842 716.106 313.303C716.212 311.708 717.544 310.488 719.121 310.5Z" fill="#2E186A"/>
<path fill-rule="evenodd" clip-rule="evenodd" d="M963.712 365.335C963.858 363.685 965.315 362.465 966.965 362.612C976.251 363.435 985.121 366.078 992.111 371.311C1001.86 378.609 1006.46 389.995 1004.37 405.699C1002.48 419.771 995.428 428.557 984.464 432.44C976.177 435.376 966.264 435.339 955.715 433.242C954.09 432.919 953.035 431.34 953.358 429.715C953.681 428.09 955.26 427.035 956.885 427.358C966.47 429.263 975.372 429.295 982.461 426.785C991.292 423.657 996.835 416.754 998.426 404.905C1000.23 391.327 996.496 382.09 988.514 376.114C982.572 371.664 974.709 369.322 966.435 368.588C964.785 368.442 963.565 366.985 963.712 365.335Z" fill="#2E186A"/>
<path fill-rule="evenodd" clip-rule="evenodd" d="M947.56 471.993C949.108 471.599 950.682 472.487 951.159 473.99L951.207 474.16L967.507 538.16C967.551 538.33 967.579 538.505 967.592 538.68C970.276 575.216 961.301 606.168 942.824 628.879C925.889 649.695 901.724 662.414 875.632 664.874C849.464 667.342 823.388 659.307 802.929 641.826C780.551 622.704 765.997 593.477 761.819 556.235C761.634 554.588 762.819 553.104 764.466 552.919C766.112 552.734 767.597 553.919 767.781 555.566C771.796 591.347 785.65 619.17 806.827 637.265C826.038 653.68 850.501 661.218 875.068 658.901C899.573 656.59 922.259 644.65 938.17 625.093C955.473 603.823 964.012 574.762 961.682 540.17L961.626 539.382L945.393 475.641C944.999 474.092 945.886 472.518 947.39 472.041L947.56 471.993Z" fill="#2E186A"/>
<path fill-rule="evenodd" clip-rule="evenodd" d="M919.739 369.51C918.166 369.384 916.765 370.498 916.533 372.058L914.52 385.447L913.542 391.896C912.454 399.047 911.367 406.125 910.315 412.885L908.976 421.428C907.655 429.808 906.496 436.97 905.534 442.666L904.805 446.919L903.458 446.607C902.717 446.438 901.933 446.263 901.106 446.082L900.478 445.946C894.433 444.642 887.443 443.34 879.591 442.126C849.818 437.521 816.453 435.416 780.85 437.204L778.42 437.422L775.843 437.67C774.319 437.822 772.695 437.989 770.991 438.173C764.293 438.896 757.594 439.732 751.262 440.677L749.544 440.937C738.492 442.64 729.778 444.511 724.16 446.586C722.866 447.064 722.065 448.364 722.219 449.735L722.373 450.983L722.529 452.159C722.639 452.963 722.765 453.839 722.907 454.784L722.993 455.358C723.669 459.787 724.543 464.718 725.636 470.026C728.762 485.199 733.027 500.375 738.61 514.566C745.985 533.312 755.119 548.907 766.255 560.297C783.204 577.634 808.579 584.606 837.207 581.899C862.291 579.528 887.804 569.677 904.186 556.433C932.619 533.447 939.578 522.718 946.315 494.648L946.669 493.153C948.565 484.98 951.304 470.018 954.688 449.787L955.85 442.784L956.619 438.101C958.692 425.406 960.834 411.859 962.937 398.262L964.603 387.42L966.267 376.444C966.524 374.725 965.272 373.148 963.539 373.01L919.739 369.51ZM922.053 375.713L959.854 378.734L957.567 393.721L956.218 402.434C954.768 411.754 953.307 421.002 951.868 429.918L950.184 440.265L948.91 447.96C945.394 469.024 942.564 484.46 940.681 492.408L940.169 494.539C937.023 507.472 934.492 514.436 929.998 521.606L929.756 521.991C924.208 530.717 915.539 539.539 900.414 551.767C884.981 564.244 860.588 573.662 836.643 575.926C809.674 578.476 786.08 571.993 770.545 556.103C760.045 545.363 751.299 530.43 744.193 512.369C738.749 498.53 734.574 483.675 731.513 468.816C730.441 463.613 729.585 458.784 728.925 454.454L728.683 452.826L728.489 451.453L728.87 451.336C734.046 449.759 741.44 448.257 750.458 446.867C756.628 445.917 763.211 445.071 769.829 444.336L771.635 444.138C773.602 443.926 775.46 443.736 777.179 443.568L779.978 443.303L781.203 443.193L781.15 443.196C816.322 441.431 849.284 443.51 878.674 448.055C886.038 449.194 892.624 450.41 898.359 451.628L899.213 451.811C901.076 452.213 902.723 452.588 904.145 452.929L905.742 453.322L906.422 453.497C908.117 453.953 909.84 452.862 910.152 451.134L910.662 448.265C911.66 442.555 912.943 434.734 914.455 425.195L915.928 415.828L916.879 409.711C917.625 404.892 918.385 399.942 919.147 394.944L921.671 378.26L922.053 375.713Z" fill="#2E186A"/>
<path fill-rule="evenodd" clip-rule="evenodd" d="M961 389.2C961 389.2 981.9 346 988 310.4C993.8 277 976.2 243.4 944.8 230.7C918.5 220 909.9 223.5 909.9 223.5C909.9 223.5 925.5 195.7 884.9 154.8C870.6 140.4 850.8 132.4 830.5 132.9C780.8 134.2 765.3 176.2 765.3 176.2C765.3 176.2 712.3 78.2999 603.1 135.9C592.1 141.7 579.6 157.9 573.7 168.9C537.5 235.2 656 314.2 717.8 320.6C785.7 327.6 828.3 319.2 849 301.2C833.5 312 861.3 411.3 961 389.2Z" fill="#2E186A"/>
<path fill-rule="evenodd" clip-rule="evenodd" d="M777.399 408.205C779.538 408.311 781.201 410.08 781.2 412.199L781.195 412.399L778.283 470.905L794.966 465.495C797.002 464.835 799.183 465.894 799.936 467.872L800.005 468.066C800.665 470.102 799.606 472.283 797.628 473.036L797.434 473.105L775.234 480.305C772.629 481.15 769.986 479.189 770 476.487L770.005 476.301L773.205 412.001C773.311 409.862 775.08 408.199 777.199 408.2L777.399 408.205Z" fill="#2E186A"/>
<path fill-rule="evenodd" clip-rule="evenodd" d="M815.055 355.79C825.17 353.603 834.058 355.749 841.427 360.643C843.295 361.884 844.923 363.215 846.308 364.555L846.716 364.958C847.363 365.606 847.834 366.138 848.128 366.507C849.505 368.235 849.221 370.751 847.493 372.128C845.765 373.505 843.249 373.221 841.872 371.493C841.725 371.308 841.345 370.886 840.744 370.304C839.695 369.289 838.444 368.265 837.001 367.307C831.327 363.539 824.592 361.913 816.745 363.61C814.586 364.077 812.457 362.705 811.99 360.545C811.523 358.386 812.895 356.257 815.055 355.79Z" fill="#2E186A"/>
<path fill-rule="evenodd" clip-rule="evenodd" d="M748.765 340.716C752.643 339.922 756.655 340.134 760.501 340.95L761.122 341.088C762.115 341.317 762.889 341.542 763.397 341.716C765.487 342.432 766.6 344.707 765.884 346.797C765.19 348.821 763.034 349.93 761 349.346L760.568 349.211C760.507 349.192 760.435 349.172 760.354 349.148C759.913 349.023 759.405 348.896 758.84 348.776C755.98 348.169 753.013 348.012 750.369 348.553C746.615 349.321 743.962 351.379 742.431 355.341C741.635 357.402 739.32 358.427 737.259 357.631C735.198 356.835 734.173 354.52 734.969 352.459C737.53 345.827 742.457 342.007 748.765 340.716Z" fill="#2E186A"/>
<path fill-rule="evenodd" clip-rule="evenodd" d="M849.9 488.8C846.4 484 812.3 507.9 825.6 510.1C838.9 512.2 857.4 499.1 849.9 488.8Z" fill="#2E186A"/>
<path fill-rule="evenodd" clip-rule="evenodd" d="M706.9 484.4L836.4 440.6C836.4 440.6 853.7 434 853.1 411.5C852.5 389 824.2 380.6 824.2 380.6L686.1 361.1L706.9 484.4Z" fill="#FE7624"/>
<path fill-rule="evenodd" clip-rule="evenodd" d="M568.3 484.4L697.8 440.6C697.8 440.6 715.1 434 714.5 411.5C713.9 389 685.6 380.6 685.6 380.6L618.8 385L547.5 361.1L568.3 484.4Z" fill="#FE7624"/>
<path fill-rule="evenodd" clip-rule="evenodd" d="M684.8 488.4C720.091 488.4 748.7 459.791 748.7 424.5C748.7 389.209 720.091 360.6 684.8 360.6C649.509 360.6 620.9 389.209 620.9 424.5C620.9 459.791 649.509 488.4 684.8 488.4Z" fill="#2E186A"/>
<path fill-rule="evenodd" clip-rule="evenodd" d="M545.2 489.3C580.491 489.3 609.1 460.691 609.1 425.4C609.1 390.109 580.491 361.5 545.2 361.5C509.909 361.5 481.3 390.109 481.3 425.4C481.3 460.691 509.909 489.3 545.2 489.3Z" fill="#2E186A"/>
<path fill-rule="evenodd" clip-rule="evenodd" d="M633.2 317.591L634.466 317.325C649.875 314.139 665.265 312.694 671.532 313.631C679.335 314.768 680.877 322.179 675.708 329.343C670.648 336.354 660.106 342.92 645.578 347.368C643.994 347.854 642.317 346.963 641.831 345.378C641.346 343.794 642.237 342.116 643.822 341.631C657.198 337.536 666.641 331.654 670.842 325.832C673.629 321.971 673.296 320.028 670.811 319.592L670.656 319.567C665.157 318.745 650.033 320.187 635.049 323.332L634.45 323.459C615.169 327.566 598.225 333.823 587.034 341.748C585.682 342.706 583.809 342.386 582.852 341.034C581.894 339.682 582.214 337.809 583.566 336.852C595.544 328.369 613.192 321.853 633.2 317.591Z" fill="#2E186A"/>
<path fill-rule="evenodd" clip-rule="evenodd" d="M600.686 337.886C615.164 334.337 635.159 337.926 657.344 346.517L658.119 346.819C675.14 353.484 692.257 362.877 697.874 368.142L698.063 368.322C701.521 371.598 701.932 375.969 699.017 379.422C696.507 382.393 691.823 384.331 685.765 384.971C671.869 386.438 652.616 381.266 630.927 368.817L630.195 368.395L629.53 367.969L628.982 367.626C628.691 367.447 628.376 367.258 628.039 367.06C626.423 366.11 624.641 365.158 622.751 364.272C618.8 362.419 614.929 361.109 611.388 360.574C609.627 360.308 607.986 360.242 606.488 360.386C604.839 360.545 603.373 359.337 603.214 357.688C603.055 356.039 604.263 354.573 605.912 354.414C607.931 354.219 610.059 354.305 612.284 354.641C616.473 355.274 620.866 356.761 625.298 358.839C627.368 359.81 629.312 360.848 631.08 361.888L631.828 362.334C632.367 362.66 632.803 362.935 633.127 363.147L633.276 363.245L633.911 363.612C654.348 375.343 672.212 380.214 684.706 379.047L685.135 379.004C689.795 378.512 693.079 377.153 694.433 375.55C695.195 374.648 695.16 373.897 694.065 372.802L693.916 372.658C689.175 368.079 672.473 358.883 655.931 352.406C634.492 344.011 615.263 340.49 602.114 343.714C600.505 344.108 598.881 343.123 598.486 341.514C598.092 339.905 599.076 338.281 600.686 337.886Z" fill="#2E186A"/>
<path fill-rule="evenodd" clip-rule="evenodd" d="M570.459 337.669C584.957 334.499 604.79 338.221 626.668 346.752L627.45 347.059C644.297 353.702 661.136 362.955 666.675 368.143L666.863 368.322C670.321 371.598 670.732 375.969 667.817 379.422C665.307 382.393 660.623 384.331 654.565 384.971C640.669 386.438 621.416 381.266 599.727 368.817L598.995 368.395L598.33 367.969L597.782 367.626C597.491 367.447 597.176 367.258 596.839 367.06C595.223 366.11 593.441 365.158 591.551 364.272C587.6 362.419 583.729 361.109 580.188 360.574C578.427 360.308 576.786 360.242 575.288 360.386C573.639 360.545 572.173 359.337 572.014 357.688C571.855 356.039 573.063 354.573 574.712 354.414C576.731 354.219 578.859 354.305 581.084 354.641C585.273 355.274 589.666 356.761 594.098 358.839C596.168 359.81 598.112 360.848 599.88 361.888L600.628 362.334C601.167 362.66 601.603 362.935 601.927 363.147L602.076 363.245L602.711 363.612C623.148 375.343 641.012 380.214 653.506 379.047L653.935 379.004C658.595 378.512 661.879 377.153 663.233 375.55C663.995 374.648 663.96 373.897 662.865 372.803L662.716 372.658C658.051 368.154 641.621 359.096 625.25 352.641L623.723 352.045C603.158 344.12 584.649 340.708 571.741 343.531C570.122 343.885 568.523 342.859 568.169 341.241C567.815 339.622 568.841 338.023 570.459 337.669Z" fill="#2E186A"/>
<path fill-rule="evenodd" clip-rule="evenodd" d="M537.003 341.995C550.994 335.287 572.315 337.864 597.161 347.01L598.358 347.455C616.53 354.282 635.357 364.463 641.163 370.022C644.621 373.298 645.032 377.67 642.117 381.122C639.608 384.093 634.923 386.032 628.865 386.671C614.969 388.138 595.716 382.966 574.027 370.517L573.295 370.095L572.63 369.669L572.082 369.326C571.791 369.148 571.476 368.958 571.139 368.76C569.523 367.81 567.741 366.858 565.851 365.972C561.9 364.119 558.029 362.809 554.488 362.274C552.727 362.008 551.086 361.942 549.588 362.086C547.939 362.245 546.473 361.037 546.314 359.388C546.155 357.739 547.363 356.273 549.012 356.114C551.031 355.919 553.159 356.005 555.384 356.341C559.573 356.974 563.966 358.461 568.398 360.54C570.468 361.51 572.412 362.548 574.18 363.588L574.928 364.034C575.467 364.36 575.903 364.635 576.227 364.847L576.376 364.945L577.011 365.312C597.448 377.043 615.312 381.914 627.806 380.747L628.235 380.704C632.895 380.212 636.179 378.853 637.533 377.25C638.328 376.309 638.255 375.532 637.025 374.367L636.669 374.037C631.045 368.98 612.939 359.278 595.664 352.853L595.089 352.64C571.648 344.012 551.702 341.601 539.597 347.405C538.103 348.122 536.311 347.491 535.595 345.997C534.879 344.503 535.509 342.711 537.003 341.995Z" fill="#2E186A"/>
<path fill-rule="evenodd" clip-rule="evenodd" d="M1061.35 47.7511C1089.31 42.5156 1116.62 59.1806 1122.75 85.1768L1122.93 85.9674L1142.73 177.767C1143.08 179.387 1142.05 180.983 1140.43 181.332C1138.87 181.669 1137.33 180.724 1136.91 179.204L1136.87 179.032L1117.07 87.2382C1112.02 64.0527 1087.58 48.9426 1062.45 53.6486C1037.57 58.3089 1021.44 80.4648 1025.99 103.372L1026.13 104.066L1055.73 241.066C1056.08 242.686 1055.05 244.282 1053.43 244.632C1051.87 244.97 1050.33 244.025 1049.91 242.505L1049.87 242.333L1020.27 105.336C1014.51 78.7805 1032.98 53.063 1061.35 47.7511Z" fill="#2E186A"/>
<path fill-rule="evenodd" clip-rule="evenodd" d="M1172.6 48.4052C1173.46 21.3928 1197.69 0.154305 1226.49 1.00128C1255.1 1.83987 1277.7 23.8326 1277.32 50.4633L1274.1 185.072C1274.06 186.728 1272.68 188.039 1271.03 187.999C1269.43 187.961 1268.16 186.681 1268.1 185.105L1268.1 184.928L1271.3 51.1052C1272.05 27.5124 1252 7.75139 1226.31 6.9987C1200.99 6.25383 1179.77 24.6147 1178.63 47.889L1178.6 48.5957L1174.6 173.896C1174.55 175.552 1173.16 176.851 1171.5 176.798C1169.91 176.747 1168.64 175.458 1168.6 173.881L1168.6 173.704L1172.6 48.4052Z" fill="#2E186A"/>
<path fill-rule="evenodd" clip-rule="evenodd" d="M1319.97 85.7617C1325.73 59.3195 1353.31 42.2628 1381.55 47.5512C1409.61 52.8049 1428.03 78.1422 1422.8 104.339L1422.63 105.133L1394.53 235.233C1394.18 236.853 1392.59 237.882 1390.97 237.532C1389.4 237.195 1388.39 235.699 1388.64 234.14L1388.67 233.967L1416.77 103.862C1421.79 80.7857 1405.55 58.1504 1380.45 53.4487C1355.57 48.7897 1331.37 63.5525 1325.97 86.4262L1325.81 87.1218L1302.31 181.922C1301.91 183.53 1300.29 184.51 1298.68 184.112C1297.13 183.727 1296.16 182.201 1296.45 180.65L1296.49 180.478L1319.97 85.7617Z" fill="#2E186A"/>
<path fill-rule="evenodd" clip-rule="evenodd" d="M1444.66 178.98C1457.62 154.862 1488.94 145.119 1514.76 157.078C1540.45 168.974 1551.06 197.891 1538.63 221.991L1538.24 222.719L1415.04 452.12C1414.26 453.579 1412.44 454.127 1410.98 453.343C1409.57 452.588 1409.01 450.874 1409.68 449.444L1409.76 449.281L1532.96 219.88C1544.32 198.737 1535.11 173.113 1512.24 162.522C1489.48 151.983 1461.93 160.376 1450.29 181.185L1449.94 181.819L1418.64 240.119C1417.86 241.579 1416.04 242.127 1414.58 241.343C1413.18 240.589 1412.61 238.874 1413.28 237.445L1413.36 237.281L1444.66 178.98Z" fill="#2E186A"/>
<path fill-rule="evenodd" clip-rule="evenodd" d="M1001.88 397.457C1003.29 396.702 1005.03 397.182 1005.85 398.523L1005.94 398.681L1032.94 448.981C1033.73 450.441 1033.18 452.26 1031.72 453.043C1030.31 453.798 1028.57 453.317 1027.75 451.977L1027.66 451.819L1000.66 401.519C999.873 400.059 1000.42 398.24 1001.88 397.457Z" fill="#2E186A"/>
<path fill-rule="evenodd" clip-rule="evenodd" d="M928.139 157.078C953.703 145.239 984.655 154.669 997.849 178.261L998.243 178.981L1035.24 247.881C1036.03 249.34 1035.48 251.159 1034.02 251.943C1032.61 252.698 1030.88 252.218 1030.05 250.878L1029.96 250.719L992.957 181.82C981.524 160.547 953.649 151.876 930.661 162.522C908.021 173.007 898.765 198.226 909.608 219.244L909.943 219.88L989.743 368.38C990.527 369.839 989.98 371.658 988.52 372.443C987.115 373.198 985.376 372.718 984.549 371.379L984.457 371.22L904.657 222.72C891.628 198.477 902.193 169.094 928.139 157.078Z" fill="#2E186A"/>
<path fill-rule="evenodd" clip-rule="evenodd" d="M1155.52 169.424C1182.36 166.029 1206.91 188.478 1210.87 219.42L1210.98 220.36L1222.02 317.216L1243.17 219.871C1249.66 189.624 1276.11 171.718 1302.44 179.896L1303.24 180.152C1329.34 188.78 1345.12 219.81 1339.02 249.827L1338.83 250.736L1319.55 339.632L1355.17 261.459C1367.67 233.94 1397.23 223.939 1421.31 239.02L1422.04 239.485C1445.68 254.864 1454.84 289.039 1442.9 316.415L1442.53 317.242L1381.13 452.242C1380.44 453.75 1378.67 454.417 1377.16 453.731C1375.7 453.069 1375.03 451.392 1375.6 449.921L1375.67 449.758L1437.07 314.759C1448.36 289.89 1440.1 258.392 1418.76 244.515C1397.93 230.964 1372.3 239.229 1360.97 263.212L1360.63 263.944L1313.43 367.544C1311.97 370.758 1307.17 369.23 1307.73 365.841L1307.77 365.664L1332.97 249.461C1338.95 222.035 1324.66 193.554 1301.36 185.848C1278.57 178.315 1255.35 193.583 1249.21 220.323L1249.03 221.137L1224.03 336.237C1223.32 339.49 1218.68 339.319 1218.15 336.127L1218.12 335.94L1205.02 221.039C1201.8 192.737 1179.83 172.397 1156.28 175.376C1132.95 178.326 1116.29 203.097 1119.09 231.011L1119.18 231.857L1132.78 350.157C1133.18 353.592 1128.45 354.822 1127.07 351.753L1127 351.584L1097.2 274.684C1087.1 248.634 1061.46 236.636 1039.96 247.574C1018.4 258.539 1008.73 288.306 1018.4 314.328L1018.7 315.115L1070.9 449.715C1071.5 451.26 1070.73 452.998 1069.18 453.597C1067.7 454.175 1066.03 453.482 1065.37 452.047L1065.3 451.885L1013.1 317.284C1001.88 288.333 1012.58 254.769 1037.24 242.226C1061.85 229.706 1090.89 243.055 1102.45 271.645L1102.8 272.516L1124.15 327.614L1113.22 232.54C1109.68 201.521 1128.1 173.412 1154.71 169.534L1155.52 169.424Z" fill="#FE7624"/>
<path fill-rule="evenodd" clip-rule="evenodd" d="M1431.5 447.9C1441.05 447.9 1448.82 455.566 1449 465.071L1449 465.4V518.5C1449 528.047 1441.33 535.821 1431.83 535.997L1431.5 536H1409.58L1368.72 709.388C1368.35 710.943 1366.84 711.928 1365.28 711.655L1365.11 711.62C1363.56 711.254 1362.57 709.738 1362.84 708.185L1362.88 708.012L1404.28 532.312C1404.59 531.016 1405.7 530.084 1407.02 530.005L1407.2 530H1431.5C1437.75 530 1442.84 525.001 1443 518.792L1443 518.5V465.4C1443 459.154 1438 454.059 1431.79 453.904L1431.5 453.9H1008.5C1002.25 453.9 997.159 458.899 997.004 465.108L997 465.4V518.5C997 524.745 1002 529.841 1008.21 529.996L1008.5 530H1034.5C1035.83 530 1037 530.876 1037.37 532.138L1037.42 532.312L1109.32 837.512C1109.7 839.125 1108.7 840.74 1107.09 841.12C1105.53 841.486 1103.98 840.57 1103.53 839.058L1103.48 838.888L1032.12 536H1008.5C998.953 536 991.178 528.334 991.003 518.828L991 518.5V465.4C991 455.853 998.666 448.078 1008.17 447.903L1008.5 447.9H1431.5Z" fill="#2E186A"/>
<path fill-rule="evenodd" clip-rule="evenodd" d="M1289.92 661.142C1296.66 658.259 1301.59 659.056 1306.4 663.332C1307.51 664.318 1308.61 665.456 1310.01 667.05L1310.89 668.062C1311.7 669.023 1314.27 672.033 1315.21 673.097C1319.44 677.883 1323.45 681.687 1328.53 685.396C1329.23 685.911 1329.95 686.419 1330.68 686.917L1331.65 687.565C1337.14 691.236 1341.66 693.734 1351.65 698.873L1355.41 700.807C1360.23 703.299 1363.13 704.863 1366.41 706.784C1378.86 714.074 1388.76 722.335 1398.54 734.522C1399.58 735.814 1399.37 737.702 1398.08 738.739C1396.79 739.777 1394.9 739.57 1393.86 738.278C1384.75 726.932 1375.61 719.224 1364.11 712.396L1362.74 711.594C1359.71 709.835 1356.87 708.307 1352.15 705.877L1347.18 703.319C1337.61 698.375 1333.19 695.868 1327.31 691.879C1326.52 691.341 1325.75 690.795 1324.99 690.241C1319.76 686.423 1315.59 682.512 1311.3 677.727L1310.28 676.569C1308.86 674.937 1306.08 671.674 1306.09 671.686L1305.53 671.042C1304.27 669.604 1303.32 668.617 1302.42 667.818C1299.34 665.086 1296.89 664.688 1292.29 666.654C1288.83 668.152 1288.08 671.675 1290.13 678.043C1292.09 684.137 1296.49 691.941 1302.86 701.085C1303.81 702.444 1303.47 704.314 1302.12 705.261C1300.76 706.209 1298.89 705.875 1297.94 704.515C1291.25 694.923 1286.61 686.672 1284.42 679.882C1281.54 670.934 1282.97 664.145 1289.92 661.142Z" fill="#2E186A"/>
<path fill-rule="evenodd" clip-rule="evenodd" d="M1191.47 680.303L1192.56 680.26C1203.29 679.889 1220.39 680.727 1237.25 683.066C1262.3 686.541 1284.81 692.858 1302.64 702.565C1304.09 703.358 1304.63 705.18 1303.83 706.635C1303.04 708.09 1301.22 708.627 1299.76 707.834C1282.95 698.675 1261.52 692.591 1237.6 689.175L1236.43 689.009C1219.35 686.64 1202.01 685.843 1191.74 686.296C1185.77 686.584 1184.29 691.005 1189.15 697.867C1190.11 699.219 1189.79 701.091 1188.43 702.048C1187.08 703.006 1185.21 702.685 1184.25 701.333C1176.89 690.928 1180.26 680.843 1191.47 680.303Z" fill="#2E186A"/>
<path fill-rule="evenodd" clip-rule="evenodd" d="M1171.87 696.809C1180.3 696.165 1199.11 698.3 1218.53 702.402C1242.81 707.531 1265.83 715.076 1284.09 724.643C1285.56 725.412 1286.13 727.225 1285.36 728.692C1284.59 730.16 1282.78 730.726 1281.31 729.957C1263.59 720.677 1241.07 713.296 1217.29 708.273L1215.29 707.857C1197.1 704.135 1179.8 702.221 1172.33 702.792C1163.1 703.489 1164.93 716.109 1180.98 728.959C1182.27 729.994 1182.48 731.883 1181.44 733.176C1180.41 734.469 1178.52 734.677 1177.22 733.641C1167.74 726.047 1162.05 717.792 1161.01 710.581C1159.9 702.973 1164.23 697.387 1171.87 696.809Z" fill="#2E186A"/>
<path fill-rule="evenodd" clip-rule="evenodd" d="M1182.55 727.804C1199.16 726.987 1243 737.153 1274.53 751.262C1276.04 751.938 1276.72 753.713 1276.04 755.225C1275.36 756.738 1273.59 757.415 1272.07 756.738C1256.12 749.6 1237.86 743.65 1219.86 739.384L1218.32 739.022C1202.92 735.449 1189.06 733.491 1182.86 733.796C1178.27 734.041 1175.98 737.496 1176.95 743.347C1178.18 750.77 1184.38 759.747 1194.94 767.929C1196.25 768.944 1196.49 770.828 1195.47 772.138C1194.46 773.447 1192.57 773.686 1191.26 772.671C1179.6 763.633 1172.53 753.405 1171.03 744.328C1169.51 735.175 1174.1 728.255 1182.55 727.804Z" fill="#2E186A"/>
<path fill-rule="evenodd" clip-rule="evenodd" d="M1200.24 759.322C1211.58 757.933 1243.64 765.986 1272.75 778.028C1274.28 778.661 1275.01 780.416 1274.37 781.947C1273.74 783.478 1271.98 784.206 1270.45 783.572L1268.76 782.877C1241 771.591 1210.79 764.075 1200.95 765.279C1197.6 765.679 1196.26 767.012 1196.39 769.294C1196.58 772.599 1199.56 777.443 1205.3 782.87C1220.12 796.888 1249.09 811.554 1290.06 823.826C1291.65 824.302 1292.55 825.974 1292.07 827.561C1291.6 829.148 1289.93 830.049 1288.34 829.574C1246.55 817.055 1216.78 801.985 1201.18 787.23C1194.43 780.852 1190.69 774.778 1190.4 769.638C1190.07 763.928 1193.95 760.071 1200.24 759.322Z" fill="#2E186A"/>
<path fill-rule="evenodd" clip-rule="evenodd" d="M1302.41 701.5L1302.59 701.506C1341.53 703.938 1374.26 715.158 1397.59 732.744C1418.88 748.794 1430.9 769.31 1430.84 788.747C1430.77 808.772 1417.96 825.263 1394.89 833.589C1369.54 842.741 1333.26 841.829 1288.41 829.594C1286.81 829.158 1285.87 827.509 1286.31 825.911C1286.74 824.312 1288.39 823.37 1289.99 823.806C1333.75 835.742 1368.81 836.624 1392.86 827.945C1413.65 820.44 1424.78 806.113 1424.84 788.728C1424.89 771.354 1413.86 752.525 1393.97 737.535C1371.63 720.689 1340.03 709.856 1302.21 707.494C1300.56 707.391 1299.3 705.967 1299.41 704.313C1299.51 702.719 1300.83 701.493 1302.41 701.5Z" fill="#2E186A"/>
<path fill-rule="evenodd" clip-rule="evenodd" d="M1694.6 835.8C1696.26 835.8 1697.6 837.143 1697.6 838.8C1697.6 840.398 1696.35 841.704 1694.78 841.795L1694.6 841.8H3C1.34315 841.8 0 840.457 0 838.8C0 837.202 1.24892 835.896 2.82373 835.805L3 835.8H1694.6Z" fill="#2E186A"/>
</svg>
